%TF.GenerationSoftware,KiCad,Pcbnew,10.0.0*%
%TF.CreationDate,2026-04-29T20:53:33+08:00*%
%TF.ProjectId,candle,63616e64-6c65-42e6-9b69-6361645f7063,rev?*%
%TF.SameCoordinates,Original*%
%TF.FileFunction,Soldermask,Bot*%
%TF.FilePolarity,Negative*%
%FSLAX46Y46*%
G04 Gerber Fmt 4.6, Leading zero omitted, Abs format (unit mm)*
G04 Created by KiCad (PCBNEW 10.0.0) date 2026-04-29 20:53:33*
%MOMM*%
%LPD*%
G01*
G04 APERTURE LIST*
G04 Aperture macros list*
%AMRoundRect*
0 Rectangle with rounded corners*
0 $1 Rounding radius*
0 $2 $3 $4 $5 $6 $7 $8 $9 X,Y pos of 4 corners*
0 Add a 4 corners polygon primitive as box body*
4,1,4,$2,$3,$4,$5,$6,$7,$8,$9,$2,$3,0*
0 Add four circle primitives for the rounded corners*
1,1,$1+$1,$2,$3*
1,1,$1+$1,$4,$5*
1,1,$1+$1,$6,$7*
1,1,$1+$1,$8,$9*
0 Add four rect primitives between the rounded corners*
20,1,$1+$1,$2,$3,$4,$5,0*
20,1,$1+$1,$4,$5,$6,$7,0*
20,1,$1+$1,$6,$7,$8,$9,0*
20,1,$1+$1,$8,$9,$2,$3,0*%
G04 Aperture macros list end*
%ADD10RoundRect,0.504000X-1.596000X-3.496000X1.596000X-3.496000X1.596000X3.496000X-1.596000X3.496000X0*%
%ADD11RoundRect,0.225000X0.250000X-0.225000X0.250000X0.225000X-0.250000X0.225000X-0.250000X-0.225000X0*%
%ADD12RoundRect,0.250000X0.475000X-0.250000X0.475000X0.250000X-0.475000X0.250000X-0.475000X-0.250000X0*%
%ADD13RoundRect,0.175000X0.225000X-0.175000X0.225000X0.175000X-0.225000X0.175000X-0.225000X-0.175000X0*%
%ADD14RoundRect,0.200000X0.275000X-0.200000X0.275000X0.200000X-0.275000X0.200000X-0.275000X-0.200000X0*%
%ADD15RoundRect,0.050000X-0.362500X-0.050000X0.362500X-0.050000X0.362500X0.050000X-0.362500X0.050000X0*%
%ADD16RoundRect,0.050000X-0.050000X-0.362500X0.050000X-0.362500X0.050000X0.362500X-0.050000X0.362500X0*%
%ADD17R,2.300000X2.300000*%
G04 APERTURE END LIST*
D10*
%TO.C,J1*%
X10000000Y-12000000D03*
X20000000Y-12000000D03*
%TD*%
D11*
%TO.C,C3*%
X6800000Y-343775000D03*
X6800000Y-342225000D03*
%TD*%
D12*
%TO.C,C4*%
X23200000Y-343950000D03*
X23200000Y-342050000D03*
%TD*%
D11*
%TO.C,C8*%
X18000000Y-324775000D03*
X18000000Y-323225000D03*
%TD*%
D13*
%TO.C,D129*%
X4850000Y-416700000D03*
X4850000Y-415300000D03*
%TD*%
%TO.C,D130*%
X7750000Y-416700000D03*
X7750000Y-415300000D03*
%TD*%
%TO.C,D131*%
X10650000Y-416700000D03*
X10650000Y-415300000D03*
%TD*%
%TO.C,D132*%
X13550000Y-416700000D03*
X13550000Y-415300000D03*
%TD*%
%TO.C,D133*%
X16450000Y-416700000D03*
X16450000Y-415300000D03*
%TD*%
%TO.C,D134*%
X19350000Y-416700000D03*
X19350000Y-415300000D03*
%TD*%
%TO.C,D135*%
X22250000Y-416700000D03*
X22250000Y-415300000D03*
%TD*%
%TO.C,D136*%
X25150000Y-416700000D03*
X25150000Y-415300000D03*
%TD*%
%TO.C,D137*%
X4850000Y-413800000D03*
X4850000Y-412400000D03*
%TD*%
%TO.C,D138*%
X7750000Y-413800000D03*
X7750000Y-412400000D03*
%TD*%
%TO.C,D139*%
X10650000Y-413800000D03*
X10650000Y-412400000D03*
%TD*%
%TO.C,D140*%
X13550000Y-413800000D03*
X13550000Y-412400000D03*
%TD*%
%TO.C,D141*%
X16450000Y-413800000D03*
X16450000Y-412400000D03*
%TD*%
%TO.C,D142*%
X19350000Y-413800000D03*
X19350000Y-412400000D03*
%TD*%
%TO.C,D143*%
X22250000Y-413800000D03*
X22250000Y-412400000D03*
%TD*%
%TO.C,D144*%
X25150000Y-413800000D03*
X25150000Y-412400000D03*
%TD*%
%TO.C,D145*%
X4850000Y-410900000D03*
X4850000Y-409500000D03*
%TD*%
%TO.C,D146*%
X7750000Y-410900000D03*
X7750000Y-409500000D03*
%TD*%
%TO.C,D147*%
X10650000Y-410900000D03*
X10650000Y-409500000D03*
%TD*%
%TO.C,D148*%
X13550000Y-410900000D03*
X13550000Y-409500000D03*
%TD*%
%TO.C,D149*%
X16450000Y-410900000D03*
X16450000Y-409500000D03*
%TD*%
%TO.C,D150*%
X19350000Y-410900000D03*
X19350000Y-409500000D03*
%TD*%
%TO.C,D151*%
X22250000Y-410900000D03*
X22250000Y-409500000D03*
%TD*%
%TO.C,D152*%
X25150000Y-410900000D03*
X25150000Y-409500000D03*
%TD*%
%TO.C,D153*%
X4850000Y-408000000D03*
X4850000Y-406600000D03*
%TD*%
%TO.C,D154*%
X7750000Y-408000000D03*
X7750000Y-406600000D03*
%TD*%
%TO.C,D155*%
X10650000Y-408000000D03*
X10650000Y-406600000D03*
%TD*%
%TO.C,D156*%
X13550000Y-408000000D03*
X13550000Y-406600000D03*
%TD*%
%TO.C,D157*%
X16450000Y-408000000D03*
X16450000Y-406600000D03*
%TD*%
%TO.C,D158*%
X19350000Y-408000000D03*
X19350000Y-406600000D03*
%TD*%
%TO.C,D159*%
X22250000Y-408000000D03*
X22250000Y-406600000D03*
%TD*%
%TO.C,D160*%
X25150000Y-408000000D03*
X25150000Y-406600000D03*
%TD*%
%TO.C,D161*%
X4850000Y-405100000D03*
X4850000Y-403700000D03*
%TD*%
%TO.C,D162*%
X7750000Y-405100000D03*
X7750000Y-403700000D03*
%TD*%
%TO.C,D163*%
X10650000Y-405100000D03*
X10650000Y-403700000D03*
%TD*%
%TO.C,D164*%
X13550000Y-405100000D03*
X13550000Y-403700000D03*
%TD*%
%TO.C,D165*%
X16450000Y-405100000D03*
X16450000Y-403700000D03*
%TD*%
%TO.C,D166*%
X19350000Y-405100000D03*
X19350000Y-403700000D03*
%TD*%
%TO.C,D167*%
X22250000Y-405100000D03*
X22250000Y-403700000D03*
%TD*%
%TO.C,D168*%
X25150000Y-405100000D03*
X25150000Y-403700000D03*
%TD*%
%TO.C,D169*%
X4850000Y-402200000D03*
X4850000Y-400800000D03*
%TD*%
%TO.C,D170*%
X7750000Y-402200000D03*
X7750000Y-400800000D03*
%TD*%
%TO.C,D171*%
X10650000Y-402200000D03*
X10650000Y-400800000D03*
%TD*%
%TO.C,D172*%
X13550000Y-402200000D03*
X13550000Y-400800000D03*
%TD*%
%TO.C,D173*%
X16450000Y-402200000D03*
X16450000Y-400800000D03*
%TD*%
%TO.C,D174*%
X19350000Y-402200000D03*
X19350000Y-400800000D03*
%TD*%
%TO.C,D175*%
X22250000Y-402200000D03*
X22250000Y-400800000D03*
%TD*%
%TO.C,D176*%
X25150000Y-402200000D03*
X25150000Y-400800000D03*
%TD*%
%TO.C,D177*%
X4850000Y-399300000D03*
X4850000Y-397900000D03*
%TD*%
%TO.C,D178*%
X7750000Y-399300000D03*
X7750000Y-397900000D03*
%TD*%
%TO.C,D179*%
X10650000Y-399300000D03*
X10650000Y-397900000D03*
%TD*%
%TO.C,D180*%
X13550000Y-399300000D03*
X13550000Y-397900000D03*
%TD*%
%TO.C,D181*%
X16450000Y-399300000D03*
X16450000Y-397900000D03*
%TD*%
%TO.C,D182*%
X19350000Y-399300000D03*
X19350000Y-397900000D03*
%TD*%
%TO.C,D183*%
X22250000Y-399300000D03*
X22250000Y-397900000D03*
%TD*%
%TO.C,D184*%
X25150000Y-399300000D03*
X25150000Y-397900000D03*
%TD*%
%TO.C,D185*%
X4850000Y-396400000D03*
X4850000Y-395000000D03*
%TD*%
%TO.C,D186*%
X7750000Y-396400000D03*
X7750000Y-395000000D03*
%TD*%
%TO.C,D187*%
X10650000Y-396400000D03*
X10650000Y-395000000D03*
%TD*%
%TO.C,D188*%
X13550000Y-396400000D03*
X13550000Y-395000000D03*
%TD*%
%TO.C,D189*%
X16450000Y-396400000D03*
X16450000Y-395000000D03*
%TD*%
%TO.C,D190*%
X19350000Y-396400000D03*
X19350000Y-395000000D03*
%TD*%
%TO.C,D191*%
X22250000Y-396400000D03*
X22250000Y-395000000D03*
%TD*%
%TO.C,D192*%
X25150000Y-396400000D03*
X25150000Y-395000000D03*
%TD*%
%TO.C,D193*%
X4850000Y-393500000D03*
X4850000Y-392100000D03*
%TD*%
%TO.C,D194*%
X7750000Y-393500000D03*
X7750000Y-392100000D03*
%TD*%
%TO.C,D195*%
X10650000Y-393500000D03*
X10650000Y-392100000D03*
%TD*%
%TO.C,D196*%
X13550000Y-393500000D03*
X13550000Y-392100000D03*
%TD*%
%TO.C,D197*%
X16450000Y-393500000D03*
X16450000Y-392100000D03*
%TD*%
%TO.C,D198*%
X19350000Y-393500000D03*
X19350000Y-392100000D03*
%TD*%
%TO.C,D199*%
X22250000Y-393500000D03*
X22250000Y-392100000D03*
%TD*%
%TO.C,D200*%
X25150000Y-393500000D03*
X25150000Y-392100000D03*
%TD*%
%TO.C,D201*%
X4850000Y-390600000D03*
X4850000Y-389200000D03*
%TD*%
%TO.C,D202*%
X7750000Y-390600000D03*
X7750000Y-389200000D03*
%TD*%
%TO.C,D203*%
X10650000Y-390600000D03*
X10650000Y-389200000D03*
%TD*%
%TO.C,D204*%
X13550000Y-390600000D03*
X13550000Y-389200000D03*
%TD*%
%TO.C,D205*%
X16450000Y-390600000D03*
X16450000Y-389200000D03*
%TD*%
%TO.C,D206*%
X19350000Y-390600000D03*
X19350000Y-389200000D03*
%TD*%
%TO.C,D207*%
X22250000Y-390600000D03*
X22250000Y-389200000D03*
%TD*%
%TO.C,D208*%
X25150000Y-390600000D03*
X25150000Y-389200000D03*
%TD*%
%TO.C,D209*%
X4850000Y-387700000D03*
X4850000Y-386300000D03*
%TD*%
%TO.C,D210*%
X7750000Y-387700000D03*
X7750000Y-386300000D03*
%TD*%
%TO.C,D211*%
X10650000Y-387700000D03*
X10650000Y-386300000D03*
%TD*%
%TO.C,D212*%
X13550000Y-387700000D03*
X13550000Y-386300000D03*
%TD*%
%TO.C,D213*%
X16450000Y-387700000D03*
X16450000Y-386300000D03*
%TD*%
%TO.C,D214*%
X19350000Y-387700000D03*
X19350000Y-386300000D03*
%TD*%
%TO.C,D215*%
X22250000Y-387700000D03*
X22250000Y-386300000D03*
%TD*%
%TO.C,D216*%
X25150000Y-387700000D03*
X25150000Y-386300000D03*
%TD*%
%TO.C,D217*%
X4850000Y-384800000D03*
X4850000Y-383400000D03*
%TD*%
%TO.C,D218*%
X7750000Y-384800000D03*
X7750000Y-383400000D03*
%TD*%
%TO.C,D219*%
X10650000Y-384800000D03*
X10650000Y-383400000D03*
%TD*%
%TO.C,D220*%
X13550000Y-384800000D03*
X13550000Y-383400000D03*
%TD*%
%TO.C,D221*%
X16450000Y-384800000D03*
X16450000Y-383400000D03*
%TD*%
%TO.C,D222*%
X19350000Y-384800000D03*
X19350000Y-383400000D03*
%TD*%
%TO.C,D223*%
X22250000Y-384800000D03*
X22250000Y-383400000D03*
%TD*%
%TO.C,D224*%
X25150000Y-384800000D03*
X25150000Y-383400000D03*
%TD*%
%TO.C,D225*%
X4850000Y-381900000D03*
X4850000Y-380500000D03*
%TD*%
%TO.C,D226*%
X7750000Y-381900000D03*
X7750000Y-380500000D03*
%TD*%
%TO.C,D227*%
X10650000Y-381900000D03*
X10650000Y-380500000D03*
%TD*%
%TO.C,D228*%
X13550000Y-381900000D03*
X13550000Y-380500000D03*
%TD*%
%TO.C,D229*%
X16450000Y-381900000D03*
X16450000Y-380500000D03*
%TD*%
%TO.C,D230*%
X19350000Y-381900000D03*
X19350000Y-380500000D03*
%TD*%
%TO.C,D231*%
X22250000Y-381900000D03*
X22250000Y-380500000D03*
%TD*%
%TO.C,D232*%
X25150000Y-381900000D03*
X25150000Y-380500000D03*
%TD*%
%TO.C,D233*%
X4850000Y-379000000D03*
X4850000Y-377600000D03*
%TD*%
%TO.C,D234*%
X7750000Y-379000000D03*
X7750000Y-377600000D03*
%TD*%
%TO.C,D235*%
X10650000Y-379000000D03*
X10650000Y-377600000D03*
%TD*%
%TO.C,D236*%
X13550000Y-379000000D03*
X13550000Y-377600000D03*
%TD*%
%TO.C,D237*%
X16450000Y-379000000D03*
X16450000Y-377600000D03*
%TD*%
%TO.C,D238*%
X19350000Y-379000000D03*
X19350000Y-377600000D03*
%TD*%
%TO.C,D239*%
X22250000Y-379000000D03*
X22250000Y-377600000D03*
%TD*%
%TO.C,D240*%
X25150000Y-379000000D03*
X25150000Y-377600000D03*
%TD*%
%TO.C,D241*%
X4850000Y-376100000D03*
X4850000Y-374700000D03*
%TD*%
%TO.C,D242*%
X7750000Y-376100000D03*
X7750000Y-374700000D03*
%TD*%
%TO.C,D243*%
X10650000Y-376100000D03*
X10650000Y-374700000D03*
%TD*%
%TO.C,D244*%
X13550000Y-376100000D03*
X13550000Y-374700000D03*
%TD*%
%TO.C,D245*%
X16450000Y-376100000D03*
X16450000Y-374700000D03*
%TD*%
%TO.C,D246*%
X19350000Y-376100000D03*
X19350000Y-374700000D03*
%TD*%
%TO.C,D247*%
X22250000Y-376100000D03*
X22250000Y-374700000D03*
%TD*%
%TO.C,D248*%
X25150000Y-376100000D03*
X25150000Y-374700000D03*
%TD*%
%TO.C,D249*%
X4850000Y-373200000D03*
X4850000Y-371800000D03*
%TD*%
%TO.C,D250*%
X7750000Y-373200000D03*
X7750000Y-371800000D03*
%TD*%
%TO.C,D251*%
X10650000Y-373200000D03*
X10650000Y-371800000D03*
%TD*%
%TO.C,D252*%
X13550000Y-373200000D03*
X13550000Y-371800000D03*
%TD*%
%TO.C,D253*%
X16450000Y-373200000D03*
X16450000Y-371800000D03*
%TD*%
%TO.C,D254*%
X19350000Y-373200000D03*
X19350000Y-371800000D03*
%TD*%
%TO.C,D255*%
X22250000Y-373200000D03*
X22250000Y-371800000D03*
%TD*%
%TO.C,D256*%
X25150000Y-373200000D03*
X25150000Y-371800000D03*
%TD*%
D14*
%TO.C,R2*%
X6800000Y-323825000D03*
X6800000Y-322175000D03*
%TD*%
D15*
%TO.C,U3*%
X13062500Y-329200000D03*
X13062500Y-328800000D03*
X13062500Y-328400000D03*
X13062500Y-328000000D03*
X13062500Y-327600000D03*
X13062500Y-327200000D03*
X13062500Y-326800000D03*
D16*
X13800000Y-326062500D03*
X14200000Y-326062500D03*
X14600000Y-326062500D03*
X15000000Y-326062500D03*
X15400000Y-326062500D03*
X15800000Y-326062500D03*
X16200000Y-326062500D03*
D15*
X16937500Y-326800000D03*
X16937500Y-327200000D03*
X16937500Y-327600000D03*
X16937500Y-328000000D03*
X16937500Y-328400000D03*
X16937500Y-328800000D03*
X16937500Y-329200000D03*
D16*
X16200000Y-329937500D03*
X15800000Y-329937500D03*
X15400000Y-329937500D03*
X15000000Y-329937500D03*
X14600000Y-329937500D03*
X14200000Y-329937500D03*
X13800000Y-329937500D03*
D17*
X15000000Y-328000000D03*
%TD*%
M02*
