%TF.GenerationSoftware,KiCad,Pcbnew,10.0.0*%
%TF.CreationDate,2026-04-29T20:53:33+08:00*%
%TF.ProjectId,candle,63616e64-6c65-42e6-9b69-6361645f7063,rev?*%
%TF.SameCoordinates,Original*%
%TF.FileFunction,Copper,L2,Inr*%
%TF.FilePolarity,Positive*%
%FSLAX46Y46*%
G04 Gerber Fmt 4.6, Leading zero omitted, Abs format (unit mm)*
G04 Created by KiCad (PCBNEW 10.0.0) date 2026-04-29 20:53:33*
%MOMM*%
%LPD*%
G01*
G04 APERTURE LIST*
%TA.AperFunction,ViaPad*%
%ADD10C,0.200000*%
%TD*%
%TA.AperFunction,ViaPad*%
%ADD11C,0.175000*%
%TD*%
%TA.AperFunction,ViaPad*%
%ADD12C,0.400000*%
%TD*%
%TA.AperFunction,Conductor*%
%ADD13C,0.140000*%
%TD*%
%TA.AperFunction,Conductor*%
%ADD14C,0.120000*%
%TD*%
%TA.AperFunction,Conductor*%
%ADD15C,0.180000*%
%TD*%
G04 APERTURE END LIST*
D10*
%TO.N,F_CA1*%
X4800000Y-395600000D03*
X4800000Y-398500000D03*
X4800000Y-401400000D03*
X4800000Y-404300000D03*
X4800000Y-407200000D03*
X4800000Y-410100000D03*
X4800000Y-413000000D03*
X4800000Y-416700000D03*
X16937500Y-319800000D03*
%TO.N,F_CA2*%
X6300000Y-395600000D03*
X6300000Y-398500000D03*
X6300000Y-401400000D03*
X6300000Y-404300000D03*
X6300000Y-407200000D03*
X6300000Y-410100000D03*
X6300000Y-413800000D03*
X6300000Y-415900000D03*
X16200000Y-320250000D03*
%TO.N,F_CA3*%
X9250000Y-395600000D03*
X9250000Y-398500000D03*
X9250000Y-401400000D03*
X9250000Y-404300000D03*
X9250000Y-407200000D03*
X9250000Y-410900000D03*
X9250000Y-413000000D03*
X9250000Y-415900000D03*
X15400000Y-320700000D03*
%TO.N,F_CA4*%
X12150000Y-395600000D03*
X12150000Y-398500000D03*
X12150000Y-401400000D03*
X12150000Y-404300000D03*
X12150000Y-408000000D03*
X12150000Y-410100000D03*
X12150000Y-413000000D03*
X12150000Y-415900000D03*
X15400000Y-321150000D03*
%TO.N,F_CA5*%
X15000000Y-321600000D03*
X15000000Y-395600000D03*
X15000000Y-398500000D03*
X15000000Y-401400000D03*
X15000000Y-405100000D03*
X15000000Y-407200000D03*
X15000000Y-410100000D03*
X15000000Y-413000000D03*
X15000000Y-415900000D03*
%TO.N,F_CA6*%
X17900000Y-319350000D03*
X17900000Y-395600000D03*
X17900000Y-398500000D03*
X17900000Y-402200000D03*
X17900000Y-404300000D03*
X17900000Y-407200000D03*
X17900000Y-410100000D03*
X17900000Y-413000000D03*
X17900000Y-415900000D03*
%TO.N,F_CA7*%
X20800000Y-318900000D03*
X20800000Y-395600000D03*
X20800000Y-399300000D03*
X20800000Y-401400000D03*
X20800000Y-404300000D03*
X20800000Y-407200000D03*
X20800000Y-410100000D03*
X20800000Y-413000000D03*
X20800000Y-415900000D03*
%TO.N,F_CA8*%
X22200000Y-318450000D03*
X22200000Y-396400000D03*
X22200000Y-398500000D03*
X22200000Y-401400000D03*
X22200000Y-404300000D03*
X22200000Y-407200000D03*
X22200000Y-410100000D03*
X22200000Y-413000000D03*
X22200000Y-415900000D03*
%TO.N,F_CA9*%
X25100000Y-318000000D03*
X25100000Y-395600000D03*
X25100000Y-398500000D03*
X25100000Y-401400000D03*
X25100000Y-404300000D03*
X25100000Y-407200000D03*
X25100000Y-410100000D03*
X25100000Y-413000000D03*
X25100000Y-415900000D03*
%TO.N,F_CB1*%
X5300000Y-339250000D03*
X5300000Y-372400000D03*
X5300000Y-375300000D03*
X5300000Y-378200000D03*
X5300000Y-381100000D03*
X5300000Y-384000000D03*
X5300000Y-386900000D03*
X5300000Y-389800000D03*
X5300000Y-393500000D03*
%TO.N,F_CB2*%
X6800000Y-339700000D03*
X6800000Y-372400000D03*
X6800000Y-375300000D03*
X6800000Y-378200000D03*
X6800000Y-381100000D03*
X6800000Y-384000000D03*
X6800000Y-386900000D03*
X6800000Y-390600000D03*
X6800000Y-392700000D03*
%TO.N,F_CB3*%
X9750000Y-340150000D03*
X9750000Y-372400000D03*
X9750000Y-375300000D03*
X9750000Y-378200000D03*
X9750000Y-381100000D03*
X9750000Y-384000000D03*
X9750000Y-387700000D03*
X9750000Y-389800000D03*
X9750000Y-392700000D03*
%TO.N,F_CB4*%
X12650000Y-340600000D03*
X12650000Y-372400000D03*
X12650000Y-375300000D03*
X12650000Y-378200000D03*
X12650000Y-381100000D03*
X12650000Y-384800000D03*
X12650000Y-386900000D03*
X12650000Y-389800000D03*
X12650000Y-392700000D03*
%TO.N,F_CB5*%
X15500000Y-338800000D03*
X15500000Y-372400000D03*
X15500000Y-375300000D03*
X15500000Y-378200000D03*
X15500000Y-381900000D03*
X15500000Y-384000000D03*
X15500000Y-386900000D03*
X15500000Y-389800000D03*
X15500000Y-392700000D03*
%TO.N,F_CB6*%
X18400000Y-338350000D03*
X18400000Y-372400000D03*
X18400000Y-375300000D03*
X18400000Y-379000000D03*
X18400000Y-381100000D03*
X18400000Y-384000000D03*
X18400000Y-386900000D03*
X18400000Y-389800000D03*
X18400000Y-392700000D03*
%TO.N,F_CB7*%
X21300000Y-337900000D03*
X21300000Y-372400000D03*
X21300000Y-376100000D03*
X21300000Y-378200000D03*
X21300000Y-381100000D03*
X21300000Y-384000000D03*
X21300000Y-386900000D03*
X21300000Y-389800000D03*
X21300000Y-392700000D03*
%TO.N,F_CB8*%
X22700000Y-337450000D03*
X22700000Y-373200000D03*
X22700000Y-375300000D03*
X22700000Y-378200000D03*
X22700000Y-381100000D03*
X22700000Y-384000000D03*
X22700000Y-386900000D03*
X22700000Y-389800000D03*
X22700000Y-392700000D03*
%TO.N,F_CB9*%
X25600000Y-337000000D03*
X25600000Y-372400000D03*
X25600000Y-375300000D03*
X25600000Y-378200000D03*
X25600000Y-381100000D03*
X25600000Y-384000000D03*
X25600000Y-386900000D03*
X25600000Y-389800000D03*
X25600000Y-392700000D03*
%TO.N,SCL*%
X12000000Y-237200000D03*
D11*
X13691900Y-236742500D03*
D10*
X19000000Y-322200000D03*
%TO.N,SDA*%
X19500000Y-327600000D03*
%TO.N,SYS*%
X4000000Y-317000000D03*
X4000000Y-327200000D03*
X13400000Y-239000000D03*
D11*
X14257500Y-237308100D03*
D10*
%TO.N,U2_REXT*%
X10300000Y-323825000D03*
X10300000Y-329300000D03*
D12*
%TO.N,GND*%
X12800000Y-238200000D03*
X14000000Y-328000000D03*
X15000000Y-92000000D03*
X16000000Y-328000000D03*
X17500000Y-236000000D03*
X21400000Y-235225000D03*
%TO.N,SCL*%
X14800000Y-242500000D03*
%TO.N,SDA*%
X15600000Y-243400000D03*
%TO.N,SYS*%
X15000000Y-82000000D03*
%TO.N,UPDI*%
X11800000Y-234000000D03*
X13730000Y-34000000D03*
%TD*%
%TO.N,F_CA1*%
D13*
X4800000Y-319800000D02*
X4800000Y-392600000D01*
X16937500Y-319800000D02*
X4800000Y-319800000D01*
X4800000Y-392600000D02*
X4800000Y-395600000D01*
X4800000Y-395600000D02*
X4800000Y-398500000D01*
X4800000Y-398500000D02*
X4800000Y-401400000D01*
X4800000Y-401400000D02*
X4800000Y-404300000D01*
X4800000Y-404300000D02*
X4800000Y-407200000D01*
X4800000Y-407200000D02*
X4800000Y-410100000D01*
X4800000Y-410100000D02*
X4800000Y-413000000D01*
X4800000Y-413000000D02*
X4800000Y-416700000D01*
%TO.N,F_CA2*%
X6300000Y-320250000D02*
X6300000Y-392600000D01*
X16200000Y-320250000D02*
X6300000Y-320250000D01*
X6300000Y-392600000D02*
X6300000Y-395600000D01*
X6300000Y-395600000D02*
X6300000Y-398500000D01*
X6300000Y-398500000D02*
X6300000Y-401400000D01*
X6300000Y-401400000D02*
X6300000Y-404300000D01*
X6300000Y-404300000D02*
X6300000Y-407200000D01*
X6300000Y-407200000D02*
X6300000Y-410100000D01*
X6300000Y-410100000D02*
X6300000Y-413800000D01*
X6300000Y-413800000D02*
X6300000Y-415900000D01*
%TO.N,F_CA3*%
X9250000Y-320700000D02*
X9250000Y-392600000D01*
X15400000Y-320700000D02*
X9250000Y-320700000D01*
X9250000Y-392600000D02*
X9250000Y-395600000D01*
X9250000Y-395600000D02*
X9250000Y-398500000D01*
X9250000Y-398500000D02*
X9250000Y-401400000D01*
X9250000Y-401400000D02*
X9250000Y-404300000D01*
X9250000Y-404300000D02*
X9250000Y-407200000D01*
X9250000Y-407200000D02*
X9250000Y-410900000D01*
X9250000Y-410900000D02*
X9250000Y-413000000D01*
X9250000Y-413000000D02*
X9250000Y-415900000D01*
%TO.N,F_CA4*%
X12150000Y-321150000D02*
X12150000Y-392600000D01*
X15400000Y-321150000D02*
X12150000Y-321150000D01*
X12150000Y-392600000D02*
X12150000Y-395600000D01*
X12150000Y-395600000D02*
X12150000Y-398500000D01*
X12150000Y-398500000D02*
X12150000Y-401400000D01*
X12150000Y-401400000D02*
X12150000Y-404300000D01*
X12150000Y-404300000D02*
X12150000Y-408000000D01*
X12150000Y-408000000D02*
X12150000Y-410100000D01*
X12150000Y-410100000D02*
X12150000Y-413000000D01*
X12150000Y-413000000D02*
X12150000Y-415900000D01*
%TO.N,F_CA5*%
X15000000Y-321600000D02*
X15000000Y-392600000D01*
X15000000Y-392600000D02*
X15000000Y-395600000D01*
X15000000Y-395600000D02*
X15000000Y-398500000D01*
X15000000Y-398500000D02*
X15000000Y-401400000D01*
X15000000Y-401400000D02*
X15000000Y-405100000D01*
X15000000Y-405100000D02*
X15000000Y-407200000D01*
X15000000Y-407200000D02*
X15000000Y-410100000D01*
X15000000Y-410100000D02*
X15000000Y-413000000D01*
X15000000Y-413000000D02*
X15000000Y-415900000D01*
%TO.N,F_CA6*%
X17900000Y-319350000D02*
X17900000Y-392600000D01*
X17900000Y-392600000D02*
X17900000Y-395600000D01*
X17900000Y-395600000D02*
X17900000Y-398500000D01*
X17900000Y-398500000D02*
X17900000Y-402200000D01*
X17900000Y-402200000D02*
X17900000Y-404300000D01*
X17900000Y-404300000D02*
X17900000Y-407200000D01*
X17900000Y-407200000D02*
X17900000Y-410100000D01*
X17900000Y-410100000D02*
X17900000Y-413000000D01*
X17900000Y-413000000D02*
X17900000Y-415900000D01*
%TO.N,F_CA7*%
X20800000Y-318900000D02*
X20800000Y-392600000D01*
X20800000Y-392600000D02*
X20800000Y-395600000D01*
X20800000Y-395600000D02*
X20800000Y-399300000D01*
X20800000Y-399300000D02*
X20800000Y-401400000D01*
X20800000Y-401400000D02*
X20800000Y-404300000D01*
X20800000Y-404300000D02*
X20800000Y-407200000D01*
X20800000Y-407200000D02*
X20800000Y-410100000D01*
X20800000Y-410100000D02*
X20800000Y-413000000D01*
X20800000Y-413000000D02*
X20800000Y-415900000D01*
%TO.N,F_CA8*%
X22200000Y-318450000D02*
X22200000Y-395500000D01*
X22200000Y-395500000D02*
X22200000Y-396400000D01*
X22200000Y-396400000D02*
X22200000Y-398500000D01*
X22200000Y-398500000D02*
X22200000Y-401400000D01*
X22200000Y-401400000D02*
X22200000Y-404300000D01*
X22200000Y-404300000D02*
X22200000Y-407200000D01*
X22200000Y-407200000D02*
X22200000Y-410100000D01*
X22200000Y-410100000D02*
X22200000Y-413000000D01*
X22200000Y-413000000D02*
X22200000Y-415900000D01*
%TO.N,F_CA9*%
X25100000Y-318000000D02*
X25100000Y-392600000D01*
X25100000Y-392600000D02*
X25100000Y-395600000D01*
X25100000Y-395600000D02*
X25100000Y-398500000D01*
X25100000Y-398500000D02*
X25100000Y-401400000D01*
X25100000Y-401400000D02*
X25100000Y-404300000D01*
X25100000Y-404300000D02*
X25100000Y-407200000D01*
X25100000Y-407200000D02*
X25100000Y-410100000D01*
X25100000Y-410100000D02*
X25100000Y-413000000D01*
X25100000Y-413000000D02*
X25100000Y-415900000D01*
%TO.N,F_CB1*%
X5300000Y-339250000D02*
X5300000Y-369400000D01*
X5300000Y-369400000D02*
X5300000Y-372400000D01*
X5300000Y-372400000D02*
X5300000Y-375300000D01*
X5300000Y-375300000D02*
X5300000Y-378200000D01*
X5300000Y-378200000D02*
X5300000Y-381100000D01*
X5300000Y-381100000D02*
X5300000Y-384000000D01*
X5300000Y-384000000D02*
X5300000Y-386900000D01*
X5300000Y-386900000D02*
X5300000Y-389800000D01*
X5300000Y-389800000D02*
X5300000Y-393500000D01*
%TO.N,F_CB2*%
X6800000Y-339700000D02*
X6800000Y-369400000D01*
X6800000Y-369400000D02*
X6800000Y-372400000D01*
X6800000Y-372400000D02*
X6800000Y-375300000D01*
X6800000Y-375300000D02*
X6800000Y-378200000D01*
X6800000Y-378200000D02*
X6800000Y-381100000D01*
X6800000Y-381100000D02*
X6800000Y-384000000D01*
X6800000Y-384000000D02*
X6800000Y-386900000D01*
X6800000Y-386900000D02*
X6800000Y-390600000D01*
X6800000Y-390600000D02*
X6800000Y-392700000D01*
%TO.N,F_CB3*%
X9750000Y-340150000D02*
X9750000Y-369400000D01*
X9750000Y-369400000D02*
X9750000Y-372400000D01*
X9750000Y-372400000D02*
X9750000Y-375300000D01*
X9750000Y-375300000D02*
X9750000Y-378200000D01*
X9750000Y-378200000D02*
X9750000Y-381100000D01*
X9750000Y-381100000D02*
X9750000Y-384000000D01*
X9750000Y-384000000D02*
X9750000Y-387700000D01*
X9750000Y-387700000D02*
X9750000Y-389800000D01*
X9750000Y-389800000D02*
X9750000Y-392700000D01*
%TO.N,F_CB4*%
X12650000Y-340600000D02*
X12650000Y-369400000D01*
X12650000Y-369400000D02*
X12650000Y-372400000D01*
X12650000Y-372400000D02*
X12650000Y-375300000D01*
X12650000Y-375300000D02*
X12650000Y-378200000D01*
X12650000Y-378200000D02*
X12650000Y-381100000D01*
X12650000Y-381100000D02*
X12650000Y-384800000D01*
X12650000Y-384800000D02*
X12650000Y-386900000D01*
X12650000Y-386900000D02*
X12650000Y-389800000D01*
X12650000Y-389800000D02*
X12650000Y-392700000D01*
%TO.N,F_CB5*%
X15500000Y-338800000D02*
X15500000Y-369400000D01*
X15500000Y-369400000D02*
X15500000Y-372400000D01*
X15500000Y-372400000D02*
X15500000Y-375300000D01*
X15500000Y-375300000D02*
X15500000Y-378200000D01*
X15500000Y-378200000D02*
X15500000Y-381900000D01*
X15500000Y-381900000D02*
X15500000Y-384000000D01*
X15500000Y-384000000D02*
X15500000Y-386900000D01*
X15500000Y-386900000D02*
X15500000Y-389800000D01*
X15500000Y-389800000D02*
X15500000Y-392700000D01*
%TO.N,F_CB6*%
X18400000Y-338350000D02*
X18400000Y-369400000D01*
X18400000Y-369400000D02*
X18400000Y-372400000D01*
X18400000Y-372400000D02*
X18400000Y-375300000D01*
X18400000Y-375300000D02*
X18400000Y-379000000D01*
X18400000Y-379000000D02*
X18400000Y-381100000D01*
X18400000Y-381100000D02*
X18400000Y-384000000D01*
X18400000Y-384000000D02*
X18400000Y-386900000D01*
X18400000Y-386900000D02*
X18400000Y-389800000D01*
X18400000Y-389800000D02*
X18400000Y-392700000D01*
%TO.N,F_CB7*%
X21300000Y-337900000D02*
X21300000Y-369400000D01*
X21300000Y-369400000D02*
X21300000Y-372400000D01*
X21300000Y-372400000D02*
X21300000Y-376100000D01*
X21300000Y-376100000D02*
X21300000Y-378200000D01*
X21300000Y-378200000D02*
X21300000Y-381100000D01*
X21300000Y-381100000D02*
X21300000Y-384000000D01*
X21300000Y-384000000D02*
X21300000Y-386900000D01*
X21300000Y-386900000D02*
X21300000Y-389800000D01*
X21300000Y-389800000D02*
X21300000Y-392700000D01*
%TO.N,F_CB8*%
X22700000Y-337450000D02*
X22700000Y-372300000D01*
X22700000Y-372300000D02*
X22700000Y-373200000D01*
X22700000Y-373200000D02*
X22700000Y-375300000D01*
X22700000Y-375300000D02*
X22700000Y-378200000D01*
X22700000Y-378200000D02*
X22700000Y-381100000D01*
X22700000Y-381100000D02*
X22700000Y-384000000D01*
X22700000Y-384000000D02*
X22700000Y-386900000D01*
X22700000Y-386900000D02*
X22700000Y-389800000D01*
X22700000Y-389800000D02*
X22700000Y-392700000D01*
%TO.N,F_CB9*%
X25600000Y-337000000D02*
X25600000Y-369400000D01*
X25600000Y-369400000D02*
X25600000Y-372400000D01*
X25600000Y-372400000D02*
X25600000Y-375300000D01*
X25600000Y-375300000D02*
X25600000Y-378200000D01*
X25600000Y-378200000D02*
X25600000Y-381100000D01*
X25600000Y-381100000D02*
X25600000Y-384000000D01*
X25600000Y-384000000D02*
X25600000Y-386900000D01*
X25600000Y-386900000D02*
X25600000Y-389800000D01*
X25600000Y-389800000D02*
X25600000Y-392700000D01*
%TO.N,SCL*%
D14*
X13691900Y-236742500D02*
X12000000Y-237200000D01*
X14800000Y-242500000D02*
X19000000Y-242500000D01*
X19000000Y-242500000D02*
X19000000Y-322200000D01*
%TO.N,SDA*%
X15600000Y-243400000D02*
X18400000Y-243400000D01*
X18400000Y-243400000D02*
X18400000Y-327600000D01*
X18400000Y-327600000D02*
X19500000Y-327600000D01*
%TO.N,SYS*%
D15*
X4000000Y-327200000D02*
X4000000Y-317000000D01*
D13*
X14257500Y-237308100D02*
X13400000Y-239000000D01*
%TO.N,U2_REXT*%
D15*
X10300000Y-329300000D02*
X10300000Y-323825000D01*
%TD*%
%TA.AperFunction,Conductor*%
%TO.N,GND*%
G36*
X29458691Y-519407D02*
G01*
X29494655Y-568907D01*
X29499500Y-599500D01*
X29499500Y-426996999D01*
X29499319Y-427002979D01*
X29481630Y-427295290D01*
X29480189Y-427307157D01*
X29427936Y-427592265D01*
X29425075Y-427603872D01*
X29338840Y-427880598D01*
X29334601Y-427891776D01*
X29215635Y-428156100D01*
X29210079Y-428166685D01*
X29060125Y-428414735D01*
X29053334Y-428424573D01*
X28874579Y-428652735D01*
X28866652Y-428661684D01*
X28661684Y-428866652D01*
X28652735Y-428874579D01*
X28424573Y-429053334D01*
X28414735Y-429060125D01*
X28166685Y-429210079D01*
X28156100Y-429215635D01*
X27891776Y-429334601D01*
X27880598Y-429338840D01*
X27603872Y-429425075D01*
X27592265Y-429427936D01*
X27307157Y-429480189D01*
X27295290Y-429481630D01*
X27002979Y-429499319D01*
X26996999Y-429499500D01*
X3003001Y-429499500D01*
X2997021Y-429499319D01*
X2704709Y-429481630D01*
X2692842Y-429480189D01*
X2407734Y-429427936D01*
X2396127Y-429425075D01*
X2119401Y-429338840D01*
X2108223Y-429334601D01*
X1843899Y-429215635D01*
X1833314Y-429210079D01*
X1585264Y-429060125D01*
X1575426Y-429053334D01*
X1347264Y-428874579D01*
X1338315Y-428866652D01*
X1133347Y-428661684D01*
X1125420Y-428652735D01*
X946665Y-428424573D01*
X939874Y-428414735D01*
X789920Y-428166685D01*
X784364Y-428156100D01*
X665398Y-427891776D01*
X661159Y-427880598D01*
X574924Y-427603872D01*
X572063Y-427592265D01*
X519810Y-427307157D01*
X518369Y-427295290D01*
X500681Y-427002979D01*
X500500Y-426996999D01*
X500500Y-395560438D01*
X4499500Y-395560438D01*
X4499500Y-395639562D01*
X4500798Y-395644406D01*
X4519979Y-395715990D01*
X4521962Y-395720775D01*
X4529500Y-395758666D01*
X4529500Y-398341333D01*
X4521964Y-398379218D01*
X4519978Y-398384011D01*
X4499500Y-398460435D01*
X4499500Y-398460437D01*
X4499500Y-398460438D01*
X4499500Y-398539562D01*
X4514859Y-398596882D01*
X4519979Y-398615990D01*
X4521962Y-398620775D01*
X4529500Y-398658666D01*
X4529500Y-401241333D01*
X4521964Y-401279218D01*
X4519978Y-401284011D01*
X4499500Y-401360435D01*
X4499500Y-401360437D01*
X4499500Y-401360438D01*
X4499500Y-401439562D01*
X4514859Y-401496882D01*
X4519979Y-401515990D01*
X4521962Y-401520775D01*
X4529500Y-401558666D01*
X4529500Y-404141333D01*
X4521964Y-404179218D01*
X4519978Y-404184011D01*
X4499500Y-404260435D01*
X4499500Y-404260437D01*
X4499500Y-404260438D01*
X4499500Y-404339562D01*
X4514859Y-404396882D01*
X4519979Y-404415990D01*
X4521962Y-404420775D01*
X4529500Y-404458666D01*
X4529500Y-407041333D01*
X4521964Y-407079218D01*
X4519978Y-407084011D01*
X4499500Y-407160435D01*
X4499500Y-407160437D01*
X4499500Y-407160438D01*
X4499500Y-407239562D01*
X4514859Y-407296882D01*
X4519979Y-407315990D01*
X4521962Y-407320775D01*
X4529500Y-407358666D01*
X4529500Y-409941333D01*
X4521964Y-409979218D01*
X4519978Y-409984011D01*
X4499500Y-410060435D01*
X4499500Y-410060437D01*
X4499500Y-410060438D01*
X4499500Y-410139562D01*
X4514859Y-410196882D01*
X4519979Y-410215990D01*
X4521962Y-410220775D01*
X4529500Y-410258666D01*
X4529500Y-412841333D01*
X4521964Y-412879218D01*
X4519978Y-412884011D01*
X4499500Y-412960435D01*
X4499500Y-412960437D01*
X4499500Y-412960438D01*
X4499500Y-413039562D01*
X4514859Y-413096882D01*
X4519979Y-413115990D01*
X4521962Y-413120775D01*
X4529500Y-413158666D01*
X4529500Y-416541333D01*
X4521964Y-416579218D01*
X4519978Y-416584011D01*
X4499500Y-416660435D01*
X4499500Y-416739564D01*
X4519978Y-416815988D01*
X4519980Y-416815992D01*
X4559538Y-416884508D01*
X4559540Y-416884511D01*
X4615489Y-416940460D01*
X4615491Y-416940461D01*
X4684007Y-416980019D01*
X4684011Y-416980021D01*
X4760435Y-417000499D01*
X4760437Y-417000500D01*
X4760438Y-417000500D01*
X4839563Y-417000500D01*
X4839563Y-417000499D01*
X4915989Y-416980021D01*
X4984511Y-416940460D01*
X5040460Y-416884511D01*
X5080021Y-416815989D01*
X5100500Y-416739562D01*
X5100500Y-416660438D01*
X5080021Y-416584011D01*
X5078036Y-416579218D01*
X5070500Y-416541333D01*
X5070500Y-413158666D01*
X5078038Y-413120775D01*
X5080020Y-413115990D01*
X5080021Y-413115989D01*
X5100500Y-413039562D01*
X5100500Y-412960438D01*
X5080021Y-412884011D01*
X5078036Y-412879218D01*
X5070500Y-412841333D01*
X5070500Y-410258666D01*
X5078038Y-410220775D01*
X5080020Y-410215990D01*
X5080021Y-410215989D01*
X5100500Y-410139562D01*
X5100500Y-410060438D01*
X5080021Y-409984011D01*
X5078036Y-409979218D01*
X5070500Y-409941333D01*
X5070500Y-407358666D01*
X5078038Y-407320775D01*
X5080020Y-407315990D01*
X5080021Y-407315989D01*
X5100500Y-407239562D01*
X5100500Y-407160438D01*
X5080021Y-407084011D01*
X5078036Y-407079218D01*
X5070500Y-407041333D01*
X5070500Y-404458666D01*
X5078038Y-404420775D01*
X5080020Y-404415990D01*
X5080021Y-404415989D01*
X5100500Y-404339562D01*
X5100500Y-404260438D01*
X5080021Y-404184011D01*
X5078036Y-404179218D01*
X5070500Y-404141333D01*
X5070500Y-401558666D01*
X5078038Y-401520775D01*
X5080020Y-401515990D01*
X5080021Y-401515989D01*
X5100500Y-401439562D01*
X5100500Y-401360438D01*
X5080021Y-401284011D01*
X5078036Y-401279218D01*
X5070500Y-401241333D01*
X5070500Y-398658666D01*
X5078038Y-398620775D01*
X5080020Y-398615990D01*
X5080021Y-398615989D01*
X5100500Y-398539562D01*
X5100500Y-398460438D01*
X5080021Y-398384011D01*
X5078036Y-398379218D01*
X5070500Y-398341333D01*
X5070500Y-395758666D01*
X5078038Y-395720775D01*
X5080020Y-395715990D01*
X5080021Y-395715989D01*
X5100500Y-395639562D01*
X5100500Y-395560438D01*
X5080021Y-395484011D01*
X5078036Y-395479218D01*
X5070500Y-395441333D01*
X5070500Y-393878625D01*
X5089407Y-393820434D01*
X5138907Y-393784470D01*
X5195124Y-393782999D01*
X5229324Y-393792163D01*
X5260435Y-393800499D01*
X5260437Y-393800500D01*
X5260438Y-393800500D01*
X5339563Y-393800500D01*
X5339563Y-393800499D01*
X5415989Y-393780021D01*
X5484511Y-393740460D01*
X5540460Y-393684511D01*
X5580021Y-393615989D01*
X5600500Y-393539562D01*
X5600500Y-393460438D01*
X5580021Y-393384011D01*
X5578036Y-393379218D01*
X5570500Y-393341333D01*
X5570500Y-389958666D01*
X5578038Y-389920775D01*
X5580020Y-389915990D01*
X5580021Y-389915989D01*
X5600500Y-389839562D01*
X5600500Y-389760438D01*
X5580021Y-389684011D01*
X5578036Y-389679218D01*
X5570500Y-389641333D01*
X5570500Y-387058666D01*
X5578038Y-387020775D01*
X5580020Y-387015990D01*
X5580021Y-387015989D01*
X5600500Y-386939562D01*
X5600500Y-386860438D01*
X5580021Y-386784011D01*
X5578036Y-386779218D01*
X5570500Y-386741333D01*
X5570500Y-384158666D01*
X5578038Y-384120775D01*
X5580020Y-384115990D01*
X5580021Y-384115989D01*
X5600500Y-384039562D01*
X5600500Y-383960438D01*
X5580021Y-383884011D01*
X5578036Y-383879218D01*
X5570500Y-383841333D01*
X5570500Y-381258666D01*
X5578038Y-381220775D01*
X5580020Y-381215990D01*
X5580021Y-381215989D01*
X5600500Y-381139562D01*
X5600500Y-381060438D01*
X5580021Y-380984011D01*
X5578036Y-380979218D01*
X5570500Y-380941333D01*
X5570500Y-378358666D01*
X5578038Y-378320775D01*
X5580020Y-378315990D01*
X5580021Y-378315989D01*
X5600500Y-378239562D01*
X5600500Y-378160438D01*
X5580021Y-378084011D01*
X5578036Y-378079218D01*
X5570500Y-378041333D01*
X5570500Y-375458666D01*
X5578038Y-375420775D01*
X5580020Y-375415990D01*
X5580021Y-375415989D01*
X5600500Y-375339562D01*
X5600500Y-375260438D01*
X5580021Y-375184011D01*
X5578036Y-375179218D01*
X5570500Y-375141333D01*
X5570500Y-372558666D01*
X5578038Y-372520775D01*
X5580020Y-372515990D01*
X5580021Y-372515989D01*
X5600500Y-372439562D01*
X5600500Y-372360438D01*
X5580021Y-372284011D01*
X5578036Y-372279218D01*
X5570500Y-372241333D01*
X5570500Y-339408666D01*
X5578038Y-339370775D01*
X5580020Y-339365990D01*
X5580021Y-339365989D01*
X5600500Y-339289562D01*
X5600500Y-339210438D01*
X5580021Y-339134011D01*
X5540460Y-339065489D01*
X5484511Y-339009540D01*
X5484508Y-339009538D01*
X5415992Y-338969980D01*
X5415988Y-338969978D01*
X5339564Y-338949500D01*
X5339562Y-338949500D01*
X5260438Y-338949500D01*
X5237150Y-338955739D01*
X5195123Y-338967001D01*
X5134021Y-338963798D01*
X5086471Y-338925293D01*
X5070500Y-338871374D01*
X5070500Y-320169500D01*
X5089407Y-320111309D01*
X5138907Y-320075345D01*
X5169500Y-320070500D01*
X5933871Y-320070500D01*
X5992062Y-320089407D01*
X6028026Y-320138907D01*
X6030968Y-320188819D01*
X6029501Y-320196191D01*
X6029500Y-320196194D01*
X6029500Y-320196197D01*
X6029500Y-395441333D01*
X6021964Y-395479218D01*
X6019978Y-395484011D01*
X5999500Y-395560435D01*
X5999500Y-395560437D01*
X5999500Y-395560438D01*
X5999500Y-395639562D01*
X6014859Y-395696882D01*
X6019979Y-395715990D01*
X6021962Y-395720775D01*
X6029500Y-395758666D01*
X6029500Y-398341333D01*
X6021964Y-398379218D01*
X6019978Y-398384011D01*
X5999500Y-398460435D01*
X5999500Y-398460437D01*
X5999500Y-398460438D01*
X5999500Y-398539562D01*
X6014859Y-398596882D01*
X6019979Y-398615990D01*
X6021962Y-398620775D01*
X6029500Y-398658666D01*
X6029500Y-401241333D01*
X6021964Y-401279218D01*
X6019978Y-401284011D01*
X5999500Y-401360435D01*
X5999500Y-401360437D01*
X5999500Y-401360438D01*
X5999500Y-401439562D01*
X6014859Y-401496882D01*
X6019979Y-401515990D01*
X6021962Y-401520775D01*
X6029500Y-401558666D01*
X6029500Y-404141333D01*
X6021964Y-404179218D01*
X6019978Y-404184011D01*
X5999500Y-404260435D01*
X5999500Y-404260437D01*
X5999500Y-404260438D01*
X5999500Y-404339562D01*
X6014859Y-404396882D01*
X6019979Y-404415990D01*
X6021962Y-404420775D01*
X6029500Y-404458666D01*
X6029500Y-407041333D01*
X6021964Y-407079218D01*
X6019978Y-407084011D01*
X5999500Y-407160435D01*
X5999500Y-407160437D01*
X5999500Y-407160438D01*
X5999500Y-407239562D01*
X6014859Y-407296882D01*
X6019979Y-407315990D01*
X6021962Y-407320775D01*
X6029500Y-407358666D01*
X6029500Y-409941333D01*
X6021964Y-409979218D01*
X6019978Y-409984011D01*
X5999500Y-410060435D01*
X5999500Y-410060437D01*
X5999500Y-410060438D01*
X5999500Y-410139562D01*
X6014859Y-410196882D01*
X6019979Y-410215990D01*
X6021962Y-410220775D01*
X6029500Y-410258666D01*
X6029500Y-413641333D01*
X6021964Y-413679218D01*
X6019978Y-413684011D01*
X5999500Y-413760435D01*
X5999500Y-413760437D01*
X5999500Y-413760438D01*
X5999500Y-413839562D01*
X6014859Y-413896882D01*
X6019979Y-413915990D01*
X6021962Y-413920775D01*
X6029500Y-413958666D01*
X6029500Y-415741333D01*
X6021964Y-415779218D01*
X6019978Y-415784011D01*
X5999500Y-415860435D01*
X5999500Y-415939564D01*
X6019978Y-416015988D01*
X6019980Y-416015992D01*
X6059538Y-416084508D01*
X6059540Y-416084511D01*
X6115489Y-416140460D01*
X6115491Y-416140461D01*
X6184007Y-416180019D01*
X6184011Y-416180021D01*
X6260435Y-416200499D01*
X6260437Y-416200500D01*
X6260438Y-416200500D01*
X6339563Y-416200500D01*
X6339563Y-416200499D01*
X6415989Y-416180021D01*
X6484511Y-416140460D01*
X6540460Y-416084511D01*
X6580021Y-416015989D01*
X6600500Y-415939562D01*
X6600500Y-415860438D01*
X6580021Y-415784011D01*
X6578036Y-415779218D01*
X6570500Y-415741333D01*
X6570500Y-413958666D01*
X6578038Y-413920775D01*
X6580020Y-413915990D01*
X6580021Y-413915989D01*
X6600500Y-413839562D01*
X6600500Y-413760438D01*
X6580021Y-413684011D01*
X6578036Y-413679218D01*
X6570500Y-413641333D01*
X6570500Y-410258666D01*
X6578038Y-410220775D01*
X6580020Y-410215990D01*
X6580021Y-410215989D01*
X6600500Y-410139562D01*
X6600500Y-410060438D01*
X6580021Y-409984011D01*
X6578036Y-409979218D01*
X6570500Y-409941333D01*
X6570500Y-407358666D01*
X6578038Y-407320775D01*
X6580020Y-407315990D01*
X6580021Y-407315989D01*
X6600500Y-407239562D01*
X6600500Y-407160438D01*
X6580021Y-407084011D01*
X6578036Y-407079218D01*
X6570500Y-407041333D01*
X6570500Y-404458666D01*
X6578038Y-404420775D01*
X6580020Y-404415990D01*
X6580021Y-404415989D01*
X6600500Y-404339562D01*
X6600500Y-404260438D01*
X6580021Y-404184011D01*
X6578036Y-404179218D01*
X6570500Y-404141333D01*
X6570500Y-401558666D01*
X6578038Y-401520775D01*
X6580020Y-401515990D01*
X6580021Y-401515989D01*
X6600500Y-401439562D01*
X6600500Y-401360438D01*
X6580021Y-401284011D01*
X6578036Y-401279218D01*
X6570500Y-401241333D01*
X6570500Y-398658666D01*
X6578038Y-398620775D01*
X6580020Y-398615990D01*
X6580021Y-398615989D01*
X6600500Y-398539562D01*
X6600500Y-398460438D01*
X6580021Y-398384011D01*
X6578036Y-398379218D01*
X6570500Y-398341333D01*
X6570500Y-395758666D01*
X6578038Y-395720775D01*
X6580020Y-395715990D01*
X6580021Y-395715989D01*
X6600500Y-395639562D01*
X6600500Y-395560438D01*
X6580021Y-395484011D01*
X6578036Y-395479218D01*
X6570500Y-395441333D01*
X6570500Y-393078625D01*
X6589407Y-393020434D01*
X6638907Y-392984470D01*
X6695124Y-392982999D01*
X6729324Y-392992163D01*
X6760435Y-393000499D01*
X6760437Y-393000500D01*
X6760438Y-393000500D01*
X6839563Y-393000500D01*
X6839563Y-393000499D01*
X6915989Y-392980021D01*
X6984511Y-392940460D01*
X7040460Y-392884511D01*
X7080021Y-392815989D01*
X7100500Y-392739562D01*
X7100500Y-392660438D01*
X7080021Y-392584011D01*
X7078036Y-392579218D01*
X7070500Y-392541333D01*
X7070500Y-390758666D01*
X7078038Y-390720775D01*
X7080020Y-390715990D01*
X7080021Y-390715989D01*
X7100500Y-390639562D01*
X7100500Y-390560438D01*
X7080021Y-390484011D01*
X7078036Y-390479218D01*
X7070500Y-390441333D01*
X7070500Y-387058666D01*
X7078038Y-387020775D01*
X7080020Y-387015990D01*
X7080021Y-387015989D01*
X7100500Y-386939562D01*
X7100500Y-386860438D01*
X7080021Y-386784011D01*
X7078036Y-386779218D01*
X7070500Y-386741333D01*
X7070500Y-384158666D01*
X7078038Y-384120775D01*
X7080020Y-384115990D01*
X7080021Y-384115989D01*
X7100500Y-384039562D01*
X7100500Y-383960438D01*
X7080021Y-383884011D01*
X7078036Y-383879218D01*
X7070500Y-383841333D01*
X7070500Y-381258666D01*
X7078038Y-381220775D01*
X7080020Y-381215990D01*
X7080021Y-381215989D01*
X7100500Y-381139562D01*
X7100500Y-381060438D01*
X7080021Y-380984011D01*
X7078036Y-380979218D01*
X7070500Y-380941333D01*
X7070500Y-378358666D01*
X7078038Y-378320775D01*
X7080020Y-378315990D01*
X7080021Y-378315989D01*
X7100500Y-378239562D01*
X7100500Y-378160438D01*
X7080021Y-378084011D01*
X7078036Y-378079218D01*
X7070500Y-378041333D01*
X7070500Y-375458666D01*
X7078038Y-375420775D01*
X7080020Y-375415990D01*
X7080021Y-375415989D01*
X7100500Y-375339562D01*
X7100500Y-375260438D01*
X7080021Y-375184011D01*
X7078036Y-375179218D01*
X7070500Y-375141333D01*
X7070500Y-372558666D01*
X7078038Y-372520775D01*
X7080020Y-372515990D01*
X7080021Y-372515989D01*
X7100500Y-372439562D01*
X7100500Y-372360438D01*
X7080021Y-372284011D01*
X7078036Y-372279218D01*
X7070500Y-372241333D01*
X7070500Y-339858666D01*
X7078038Y-339820775D01*
X7080020Y-339815990D01*
X7080021Y-339815989D01*
X7100500Y-339739562D01*
X7100500Y-339660438D01*
X7080021Y-339584011D01*
X7040460Y-339515489D01*
X6984511Y-339459540D01*
X6984508Y-339459538D01*
X6915992Y-339419980D01*
X6915988Y-339419978D01*
X6839564Y-339399500D01*
X6839562Y-339399500D01*
X6760438Y-339399500D01*
X6737150Y-339405739D01*
X6695123Y-339417001D01*
X6634021Y-339413798D01*
X6586471Y-339375293D01*
X6570500Y-339321374D01*
X6570500Y-320619500D01*
X6589407Y-320561309D01*
X6638907Y-320525345D01*
X6669500Y-320520500D01*
X8883871Y-320520500D01*
X8942062Y-320539407D01*
X8978026Y-320588907D01*
X8980968Y-320638819D01*
X8979501Y-320646191D01*
X8979500Y-320646194D01*
X8979500Y-320646197D01*
X8979500Y-395441333D01*
X8971964Y-395479218D01*
X8969978Y-395484011D01*
X8949500Y-395560435D01*
X8949500Y-395560437D01*
X8949500Y-395560438D01*
X8949500Y-395639562D01*
X8964859Y-395696882D01*
X8969979Y-395715990D01*
X8971962Y-395720775D01*
X8979500Y-395758666D01*
X8979500Y-398341333D01*
X8971964Y-398379218D01*
X8969978Y-398384011D01*
X8949500Y-398460435D01*
X8949500Y-398460437D01*
X8949500Y-398460438D01*
X8949500Y-398539562D01*
X8964859Y-398596882D01*
X8969979Y-398615990D01*
X8971962Y-398620775D01*
X8979500Y-398658666D01*
X8979500Y-401241333D01*
X8971964Y-401279218D01*
X8969978Y-401284011D01*
X8949500Y-401360435D01*
X8949500Y-401360437D01*
X8949500Y-401360438D01*
X8949500Y-401439562D01*
X8964859Y-401496882D01*
X8969979Y-401515990D01*
X8971962Y-401520775D01*
X8979500Y-401558666D01*
X8979500Y-404141333D01*
X8971964Y-404179218D01*
X8969978Y-404184011D01*
X8949500Y-404260435D01*
X8949500Y-404260437D01*
X8949500Y-404260438D01*
X8949500Y-404339562D01*
X8964859Y-404396882D01*
X8969979Y-404415990D01*
X8971962Y-404420775D01*
X8979500Y-404458666D01*
X8979500Y-407041333D01*
X8971964Y-407079218D01*
X8969978Y-407084011D01*
X8949500Y-407160435D01*
X8949500Y-407160437D01*
X8949500Y-407160438D01*
X8949500Y-407239562D01*
X8964859Y-407296882D01*
X8969979Y-407315990D01*
X8971962Y-407320775D01*
X8979500Y-407358666D01*
X8979500Y-410741333D01*
X8971964Y-410779218D01*
X8969978Y-410784011D01*
X8949500Y-410860435D01*
X8949500Y-410860437D01*
X8949500Y-410860438D01*
X8949500Y-410939562D01*
X8964859Y-410996882D01*
X8969979Y-411015990D01*
X8971962Y-411020775D01*
X8979500Y-411058666D01*
X8979500Y-412841333D01*
X8971964Y-412879218D01*
X8969978Y-412884011D01*
X8949500Y-412960435D01*
X8949500Y-412960437D01*
X8949500Y-412960438D01*
X8949500Y-413039562D01*
X8964859Y-413096882D01*
X8969979Y-413115990D01*
X8971962Y-413120775D01*
X8979500Y-413158666D01*
X8979500Y-415741333D01*
X8971964Y-415779218D01*
X8969978Y-415784011D01*
X8949500Y-415860435D01*
X8949500Y-415939564D01*
X8969978Y-416015988D01*
X8969980Y-416015992D01*
X9009538Y-416084508D01*
X9009540Y-416084511D01*
X9065489Y-416140460D01*
X9065491Y-416140461D01*
X9134007Y-416180019D01*
X9134011Y-416180021D01*
X9210435Y-416200499D01*
X9210437Y-416200500D01*
X9210438Y-416200500D01*
X9289563Y-416200500D01*
X9289563Y-416200499D01*
X9365989Y-416180021D01*
X9434511Y-416140460D01*
X9490460Y-416084511D01*
X9530021Y-416015989D01*
X9550500Y-415939562D01*
X9550500Y-415860438D01*
X9530021Y-415784011D01*
X9528036Y-415779218D01*
X9520500Y-415741333D01*
X9520500Y-413158666D01*
X9528038Y-413120775D01*
X9530020Y-413115990D01*
X9530021Y-413115989D01*
X9550500Y-413039562D01*
X9550500Y-412960438D01*
X9530021Y-412884011D01*
X9528036Y-412879218D01*
X9520500Y-412841333D01*
X9520500Y-411058666D01*
X9528038Y-411020775D01*
X9530020Y-411015990D01*
X9530021Y-411015989D01*
X9550500Y-410939562D01*
X9550500Y-410860438D01*
X9530021Y-410784011D01*
X9528036Y-410779218D01*
X9520500Y-410741333D01*
X9520500Y-407358666D01*
X9528038Y-407320775D01*
X9530020Y-407315990D01*
X9530021Y-407315989D01*
X9550500Y-407239562D01*
X9550500Y-407160438D01*
X9530021Y-407084011D01*
X9528036Y-407079218D01*
X9520500Y-407041333D01*
X9520500Y-404458666D01*
X9528038Y-404420775D01*
X9530020Y-404415990D01*
X9530021Y-404415989D01*
X9550500Y-404339562D01*
X9550500Y-404260438D01*
X9530021Y-404184011D01*
X9528036Y-404179218D01*
X9520500Y-404141333D01*
X9520500Y-401558666D01*
X9528038Y-401520775D01*
X9530020Y-401515990D01*
X9530021Y-401515989D01*
X9550500Y-401439562D01*
X9550500Y-401360438D01*
X9530021Y-401284011D01*
X9528036Y-401279218D01*
X9520500Y-401241333D01*
X9520500Y-398658666D01*
X9528038Y-398620775D01*
X9530020Y-398615990D01*
X9530021Y-398615989D01*
X9550500Y-398539562D01*
X9550500Y-398460438D01*
X9530021Y-398384011D01*
X9528036Y-398379218D01*
X9520500Y-398341333D01*
X9520500Y-395758666D01*
X9528038Y-395720775D01*
X9530020Y-395715990D01*
X9530021Y-395715989D01*
X9550500Y-395639562D01*
X9550500Y-395560438D01*
X9530021Y-395484011D01*
X9528036Y-395479218D01*
X9520500Y-395441333D01*
X9520500Y-393078625D01*
X9539407Y-393020434D01*
X9588907Y-392984470D01*
X9645124Y-392982999D01*
X9679324Y-392992163D01*
X9710435Y-393000499D01*
X9710437Y-393000500D01*
X9710438Y-393000500D01*
X9789563Y-393000500D01*
X9789563Y-393000499D01*
X9865989Y-392980021D01*
X9934511Y-392940460D01*
X9990460Y-392884511D01*
X10030021Y-392815989D01*
X10050500Y-392739562D01*
X10050500Y-392660438D01*
X10030021Y-392584011D01*
X10028036Y-392579218D01*
X10020500Y-392541333D01*
X10020500Y-389958666D01*
X10028038Y-389920775D01*
X10030020Y-389915990D01*
X10030021Y-389915989D01*
X10050500Y-389839562D01*
X10050500Y-389760438D01*
X10030021Y-389684011D01*
X10028036Y-389679218D01*
X10020500Y-389641333D01*
X10020500Y-387858666D01*
X10028038Y-387820775D01*
X10030020Y-387815990D01*
X10030021Y-387815989D01*
X10050500Y-387739562D01*
X10050500Y-387660438D01*
X10030021Y-387584011D01*
X10028036Y-387579218D01*
X10020500Y-387541333D01*
X10020500Y-384158666D01*
X10028038Y-384120775D01*
X10030020Y-384115990D01*
X10030021Y-384115989D01*
X10050500Y-384039562D01*
X10050500Y-383960438D01*
X10030021Y-383884011D01*
X10028036Y-383879218D01*
X10020500Y-383841333D01*
X10020500Y-381258666D01*
X10028038Y-381220775D01*
X10030020Y-381215990D01*
X10030021Y-381215989D01*
X10050500Y-381139562D01*
X10050500Y-381060438D01*
X10030021Y-380984011D01*
X10028036Y-380979218D01*
X10020500Y-380941333D01*
X10020500Y-378358666D01*
X10028038Y-378320775D01*
X10030020Y-378315990D01*
X10030021Y-378315989D01*
X10050500Y-378239562D01*
X10050500Y-378160438D01*
X10030021Y-378084011D01*
X10028036Y-378079218D01*
X10020500Y-378041333D01*
X10020500Y-375458666D01*
X10028038Y-375420775D01*
X10030020Y-375415990D01*
X10030021Y-375415989D01*
X10050500Y-375339562D01*
X10050500Y-375260438D01*
X10030021Y-375184011D01*
X10028036Y-375179218D01*
X10020500Y-375141333D01*
X10020500Y-372558666D01*
X10028038Y-372520775D01*
X10030020Y-372515990D01*
X10030021Y-372515989D01*
X10050500Y-372439562D01*
X10050500Y-372360438D01*
X10030021Y-372284011D01*
X10028036Y-372279218D01*
X10020500Y-372241333D01*
X10020500Y-340308666D01*
X10028038Y-340270775D01*
X10030020Y-340265990D01*
X10030021Y-340265989D01*
X10050500Y-340189562D01*
X10050500Y-340110438D01*
X10030021Y-340034011D01*
X9990460Y-339965489D01*
X9934511Y-339909540D01*
X9934508Y-339909538D01*
X9865992Y-339869980D01*
X9865988Y-339869978D01*
X9789564Y-339849500D01*
X9789562Y-339849500D01*
X9710438Y-339849500D01*
X9687150Y-339855739D01*
X9645123Y-339867001D01*
X9584021Y-339863798D01*
X9536471Y-339825293D01*
X9520500Y-339771374D01*
X9520500Y-323785438D01*
X9999500Y-323785438D01*
X9999500Y-323864562D01*
X10008546Y-323898324D01*
X10009233Y-323907652D01*
X10008784Y-323909479D01*
X10009500Y-323914914D01*
X10009500Y-329210083D01*
X10006127Y-329235706D01*
X9999500Y-329260438D01*
X9999500Y-329339564D01*
X10019978Y-329415988D01*
X10019980Y-329415992D01*
X10059538Y-329484508D01*
X10059540Y-329484511D01*
X10115489Y-329540460D01*
X10115491Y-329540461D01*
X10184007Y-329580019D01*
X10184011Y-329580021D01*
X10260435Y-329600499D01*
X10260437Y-329600500D01*
X10260438Y-329600500D01*
X10339563Y-329600500D01*
X10339563Y-329600499D01*
X10415989Y-329580021D01*
X10484511Y-329540460D01*
X10540460Y-329484511D01*
X10580021Y-329415989D01*
X10600500Y-329339562D01*
X10600500Y-329260438D01*
X10593873Y-329235706D01*
X10590500Y-329210083D01*
X10590500Y-323914914D01*
X10593874Y-323889289D01*
X10600500Y-323864562D01*
X10600500Y-323785437D01*
X10600499Y-323785435D01*
X10599915Y-323783257D01*
X10580021Y-323709011D01*
X10540460Y-323640489D01*
X10484511Y-323584540D01*
X10484508Y-323584538D01*
X10415992Y-323544980D01*
X10415988Y-323544978D01*
X10339564Y-323524500D01*
X10339562Y-323524500D01*
X10260438Y-323524500D01*
X10260435Y-323524500D01*
X10184011Y-323544978D01*
X10184007Y-323544980D01*
X10115491Y-323584538D01*
X10059538Y-323640491D01*
X10019980Y-323709007D01*
X10019978Y-323709011D01*
X10000083Y-323783257D01*
X10000083Y-323783261D01*
X9999500Y-323785438D01*
X9520500Y-323785438D01*
X9520500Y-321069500D01*
X9539407Y-321011309D01*
X9588907Y-320975345D01*
X9619500Y-320970500D01*
X11783871Y-320970500D01*
X11842062Y-320989407D01*
X11878026Y-321038907D01*
X11880968Y-321088819D01*
X11879501Y-321096191D01*
X11879500Y-321096194D01*
X11879500Y-321096197D01*
X11879500Y-395441333D01*
X11871964Y-395479218D01*
X11869978Y-395484011D01*
X11849500Y-395560435D01*
X11849500Y-395560437D01*
X11849500Y-395560438D01*
X11849500Y-395639562D01*
X11864859Y-395696882D01*
X11869979Y-395715990D01*
X11871962Y-395720775D01*
X11879500Y-395758666D01*
X11879500Y-398341333D01*
X11871964Y-398379218D01*
X11869978Y-398384011D01*
X11849500Y-398460435D01*
X11849500Y-398460437D01*
X11849500Y-398460438D01*
X11849500Y-398539562D01*
X11864859Y-398596882D01*
X11869979Y-398615990D01*
X11871962Y-398620775D01*
X11879500Y-398658666D01*
X11879500Y-401241333D01*
X11871964Y-401279218D01*
X11869978Y-401284011D01*
X11849500Y-401360435D01*
X11849500Y-401360437D01*
X11849500Y-401360438D01*
X11849500Y-401439562D01*
X11864859Y-401496882D01*
X11869979Y-401515990D01*
X11871962Y-401520775D01*
X11879500Y-401558666D01*
X11879500Y-404141333D01*
X11871964Y-404179218D01*
X11869978Y-404184011D01*
X11849500Y-404260435D01*
X11849500Y-404260437D01*
X11849500Y-404260438D01*
X11849500Y-404339562D01*
X11864859Y-404396882D01*
X11869979Y-404415990D01*
X11871962Y-404420775D01*
X11879500Y-404458666D01*
X11879500Y-407841333D01*
X11871964Y-407879218D01*
X11869978Y-407884011D01*
X11849500Y-407960435D01*
X11849500Y-407960437D01*
X11849500Y-407960438D01*
X11849500Y-408039562D01*
X11864859Y-408096882D01*
X11869979Y-408115990D01*
X11871962Y-408120775D01*
X11879500Y-408158666D01*
X11879500Y-409941333D01*
X11871964Y-409979218D01*
X11869978Y-409984011D01*
X11849500Y-410060435D01*
X11849500Y-410060437D01*
X11849500Y-410060438D01*
X11849500Y-410139562D01*
X11864859Y-410196882D01*
X11869979Y-410215990D01*
X11871962Y-410220775D01*
X11879500Y-410258666D01*
X11879500Y-412841333D01*
X11871964Y-412879218D01*
X11869978Y-412884011D01*
X11849500Y-412960435D01*
X11849500Y-412960437D01*
X11849500Y-412960438D01*
X11849500Y-413039562D01*
X11864859Y-413096882D01*
X11869979Y-413115990D01*
X11871962Y-413120775D01*
X11879500Y-413158666D01*
X11879500Y-415741333D01*
X11871964Y-415779218D01*
X11869978Y-415784011D01*
X11849500Y-415860435D01*
X11849500Y-415939564D01*
X11869978Y-416015988D01*
X11869980Y-416015992D01*
X11909538Y-416084508D01*
X11909540Y-416084511D01*
X11965489Y-416140460D01*
X11965491Y-416140461D01*
X12034007Y-416180019D01*
X12034011Y-416180021D01*
X12110435Y-416200499D01*
X12110437Y-416200500D01*
X12110438Y-416200500D01*
X12189563Y-416200500D01*
X12189563Y-416200499D01*
X12265989Y-416180021D01*
X12334511Y-416140460D01*
X12390460Y-416084511D01*
X12430021Y-416015989D01*
X12450500Y-415939562D01*
X12450500Y-415860438D01*
X12430021Y-415784011D01*
X12428036Y-415779218D01*
X12420500Y-415741333D01*
X12420500Y-413158666D01*
X12428038Y-413120775D01*
X12430020Y-413115990D01*
X12430021Y-413115989D01*
X12450500Y-413039562D01*
X12450500Y-412960438D01*
X12430021Y-412884011D01*
X12428036Y-412879218D01*
X12420500Y-412841333D01*
X12420500Y-410258666D01*
X12428038Y-410220775D01*
X12430020Y-410215990D01*
X12430021Y-410215989D01*
X12450500Y-410139562D01*
X12450500Y-410060438D01*
X12430021Y-409984011D01*
X12428036Y-409979218D01*
X12420500Y-409941333D01*
X12420500Y-408158666D01*
X12428038Y-408120775D01*
X12430020Y-408115990D01*
X12430021Y-408115989D01*
X12450500Y-408039562D01*
X12450500Y-407960438D01*
X12430021Y-407884011D01*
X12428036Y-407879218D01*
X12420500Y-407841333D01*
X12420500Y-404458666D01*
X12428038Y-404420775D01*
X12430020Y-404415990D01*
X12430021Y-404415989D01*
X12450500Y-404339562D01*
X12450500Y-404260438D01*
X12430021Y-404184011D01*
X12428036Y-404179218D01*
X12420500Y-404141333D01*
X12420500Y-401558666D01*
X12428038Y-401520775D01*
X12430020Y-401515990D01*
X12430021Y-401515989D01*
X12450500Y-401439562D01*
X12450500Y-401360438D01*
X12430021Y-401284011D01*
X12428036Y-401279218D01*
X12420500Y-401241333D01*
X12420500Y-398658666D01*
X12428038Y-398620775D01*
X12430020Y-398615990D01*
X12430021Y-398615989D01*
X12450500Y-398539562D01*
X12450500Y-398460438D01*
X12430021Y-398384011D01*
X12428036Y-398379218D01*
X12420500Y-398341333D01*
X12420500Y-395758666D01*
X12428038Y-395720775D01*
X12430020Y-395715990D01*
X12430021Y-395715989D01*
X12450500Y-395639562D01*
X12450500Y-395560438D01*
X12430021Y-395484011D01*
X12428036Y-395479218D01*
X12420500Y-395441333D01*
X12420500Y-393078625D01*
X12439407Y-393020434D01*
X12488907Y-392984470D01*
X12545124Y-392982999D01*
X12579324Y-392992163D01*
X12610435Y-393000499D01*
X12610437Y-393000500D01*
X12610438Y-393000500D01*
X12689563Y-393000500D01*
X12689563Y-393000499D01*
X12765989Y-392980021D01*
X12834511Y-392940460D01*
X12890460Y-392884511D01*
X12930021Y-392815989D01*
X12950500Y-392739562D01*
X12950500Y-392660438D01*
X12930021Y-392584011D01*
X12928036Y-392579218D01*
X12920500Y-392541333D01*
X12920500Y-389958666D01*
X12928038Y-389920775D01*
X12930020Y-389915990D01*
X12930021Y-389915989D01*
X12950500Y-389839562D01*
X12950500Y-389760438D01*
X12930021Y-389684011D01*
X12928036Y-389679218D01*
X12920500Y-389641333D01*
X12920500Y-387058666D01*
X12928038Y-387020775D01*
X12930020Y-387015990D01*
X12930021Y-387015989D01*
X12950500Y-386939562D01*
X12950500Y-386860438D01*
X12930021Y-386784011D01*
X12928036Y-386779218D01*
X12920500Y-386741333D01*
X12920500Y-384958666D01*
X12928038Y-384920775D01*
X12930020Y-384915990D01*
X12930021Y-384915989D01*
X12950500Y-384839562D01*
X12950500Y-384760438D01*
X12930021Y-384684011D01*
X12928036Y-384679218D01*
X12920500Y-384641333D01*
X12920500Y-381258666D01*
X12928038Y-381220775D01*
X12930020Y-381215990D01*
X12930021Y-381215989D01*
X12950500Y-381139562D01*
X12950500Y-381060438D01*
X12930021Y-380984011D01*
X12928036Y-380979218D01*
X12920500Y-380941333D01*
X12920500Y-378358666D01*
X12928038Y-378320775D01*
X12930020Y-378315990D01*
X12930021Y-378315989D01*
X12950500Y-378239562D01*
X12950500Y-378160438D01*
X12930021Y-378084011D01*
X12928036Y-378079218D01*
X12920500Y-378041333D01*
X12920500Y-375458666D01*
X12928038Y-375420775D01*
X12930020Y-375415990D01*
X12930021Y-375415989D01*
X12950500Y-375339562D01*
X12950500Y-375260438D01*
X12930021Y-375184011D01*
X12928036Y-375179218D01*
X12920500Y-375141333D01*
X12920500Y-372558666D01*
X12928038Y-372520775D01*
X12930020Y-372515990D01*
X12930021Y-372515989D01*
X12950500Y-372439562D01*
X12950500Y-372360438D01*
X12930021Y-372284011D01*
X12928036Y-372279218D01*
X12920500Y-372241333D01*
X12920500Y-340758666D01*
X12928038Y-340720775D01*
X12930020Y-340715990D01*
X12930021Y-340715989D01*
X12950500Y-340639562D01*
X12950500Y-340560438D01*
X12930021Y-340484011D01*
X12890460Y-340415489D01*
X12834511Y-340359540D01*
X12834508Y-340359538D01*
X12765992Y-340319980D01*
X12765988Y-340319978D01*
X12689564Y-340299500D01*
X12689562Y-340299500D01*
X12610438Y-340299500D01*
X12587150Y-340305739D01*
X12545123Y-340317001D01*
X12484021Y-340313798D01*
X12436471Y-340275293D01*
X12420500Y-340221374D01*
X12420500Y-321519500D01*
X12439407Y-321461309D01*
X12488907Y-321425345D01*
X12519500Y-321420500D01*
X14607977Y-321420500D01*
X14666168Y-321439407D01*
X14702132Y-321488907D01*
X14703603Y-321545122D01*
X14699500Y-321560438D01*
X14699500Y-321639562D01*
X14714859Y-321696882D01*
X14719979Y-321715990D01*
X14721962Y-321720775D01*
X14729500Y-321758666D01*
X14729500Y-395441333D01*
X14721964Y-395479218D01*
X14719978Y-395484011D01*
X14699500Y-395560435D01*
X14699500Y-395560437D01*
X14699500Y-395560438D01*
X14699500Y-395639562D01*
X14714859Y-395696882D01*
X14719979Y-395715990D01*
X14721962Y-395720775D01*
X14729500Y-395758666D01*
X14729500Y-398341333D01*
X14721964Y-398379218D01*
X14719978Y-398384011D01*
X14699500Y-398460435D01*
X14699500Y-398460437D01*
X14699500Y-398460438D01*
X14699500Y-398539562D01*
X14714859Y-398596882D01*
X14719979Y-398615990D01*
X14721962Y-398620775D01*
X14729500Y-398658666D01*
X14729500Y-401241333D01*
X14721964Y-401279218D01*
X14719978Y-401284011D01*
X14699500Y-401360435D01*
X14699500Y-401360437D01*
X14699500Y-401360438D01*
X14699500Y-401439562D01*
X14714859Y-401496882D01*
X14719979Y-401515990D01*
X14721962Y-401520775D01*
X14729500Y-401558666D01*
X14729500Y-404941333D01*
X14721964Y-404979218D01*
X14719978Y-404984011D01*
X14699500Y-405060435D01*
X14699500Y-405060437D01*
X14699500Y-405060438D01*
X14699500Y-405139562D01*
X14714859Y-405196882D01*
X14719979Y-405215990D01*
X14721962Y-405220775D01*
X14729500Y-405258666D01*
X14729500Y-407041333D01*
X14721964Y-407079218D01*
X14719978Y-407084011D01*
X14699500Y-407160435D01*
X14699500Y-407160437D01*
X14699500Y-407160438D01*
X14699500Y-407239562D01*
X14714859Y-407296882D01*
X14719979Y-407315990D01*
X14721962Y-407320775D01*
X14729500Y-407358666D01*
X14729500Y-409941333D01*
X14721964Y-409979218D01*
X14719978Y-409984011D01*
X14699500Y-410060435D01*
X14699500Y-410060437D01*
X14699500Y-410060438D01*
X14699500Y-410139562D01*
X14714859Y-410196882D01*
X14719979Y-410215990D01*
X14721962Y-410220775D01*
X14729500Y-410258666D01*
X14729500Y-412841333D01*
X14721964Y-412879218D01*
X14719978Y-412884011D01*
X14699500Y-412960435D01*
X14699500Y-412960437D01*
X14699500Y-412960438D01*
X14699500Y-413039562D01*
X14714859Y-413096882D01*
X14719979Y-413115990D01*
X14721962Y-413120775D01*
X14729500Y-413158666D01*
X14729500Y-415741333D01*
X14721964Y-415779218D01*
X14719978Y-415784011D01*
X14699500Y-415860435D01*
X14699500Y-415939564D01*
X14719978Y-416015988D01*
X14719980Y-416015992D01*
X14759538Y-416084508D01*
X14759540Y-416084511D01*
X14815489Y-416140460D01*
X14815491Y-416140461D01*
X14884007Y-416180019D01*
X14884011Y-416180021D01*
X14960435Y-416200499D01*
X14960437Y-416200500D01*
X14960438Y-416200500D01*
X15039563Y-416200500D01*
X15039563Y-416200499D01*
X15115989Y-416180021D01*
X15184511Y-416140460D01*
X15240460Y-416084511D01*
X15280021Y-416015989D01*
X15300500Y-415939562D01*
X15300500Y-415860438D01*
X15280021Y-415784011D01*
X15278036Y-415779218D01*
X15270500Y-415741333D01*
X15270500Y-413158666D01*
X15278038Y-413120775D01*
X15280020Y-413115990D01*
X15280021Y-413115989D01*
X15300500Y-413039562D01*
X15300500Y-412960438D01*
X15280021Y-412884011D01*
X15278036Y-412879218D01*
X15270500Y-412841333D01*
X15270500Y-410258666D01*
X15278038Y-410220775D01*
X15280020Y-410215990D01*
X15280021Y-410215989D01*
X15300500Y-410139562D01*
X15300500Y-410060438D01*
X15280021Y-409984011D01*
X15278036Y-409979218D01*
X15270500Y-409941333D01*
X15270500Y-407358666D01*
X15278038Y-407320775D01*
X15280020Y-407315990D01*
X15280021Y-407315989D01*
X15300500Y-407239562D01*
X15300500Y-407160438D01*
X15280021Y-407084011D01*
X15278036Y-407079218D01*
X15270500Y-407041333D01*
X15270500Y-405258666D01*
X15278038Y-405220775D01*
X15280020Y-405215990D01*
X15280021Y-405215989D01*
X15300500Y-405139562D01*
X15300500Y-405060438D01*
X15280021Y-404984011D01*
X15278036Y-404979218D01*
X15270500Y-404941333D01*
X15270500Y-401558666D01*
X15278038Y-401520775D01*
X15280020Y-401515990D01*
X15280021Y-401515989D01*
X15300500Y-401439562D01*
X15300500Y-401360438D01*
X15280021Y-401284011D01*
X15278036Y-401279218D01*
X15270500Y-401241333D01*
X15270500Y-398658666D01*
X15278038Y-398620775D01*
X15280020Y-398615990D01*
X15280021Y-398615989D01*
X15300500Y-398539562D01*
X15300500Y-398460438D01*
X15280021Y-398384011D01*
X15278036Y-398379218D01*
X15270500Y-398341333D01*
X15270500Y-395758666D01*
X15278038Y-395720775D01*
X15280020Y-395715990D01*
X15280021Y-395715989D01*
X15300500Y-395639562D01*
X15300500Y-395560438D01*
X15280021Y-395484011D01*
X15278036Y-395479218D01*
X15270500Y-395441333D01*
X15270500Y-393078625D01*
X15289407Y-393020434D01*
X15338907Y-392984470D01*
X15395124Y-392982999D01*
X15429324Y-392992163D01*
X15460435Y-393000499D01*
X15460437Y-393000500D01*
X15460438Y-393000500D01*
X15539563Y-393000500D01*
X15539563Y-393000499D01*
X15615989Y-392980021D01*
X15684511Y-392940460D01*
X15740460Y-392884511D01*
X15780021Y-392815989D01*
X15800500Y-392739562D01*
X15800500Y-392660438D01*
X15780021Y-392584011D01*
X15778036Y-392579218D01*
X15770500Y-392541333D01*
X15770500Y-389958666D01*
X15778038Y-389920775D01*
X15780020Y-389915990D01*
X15780021Y-389915989D01*
X15800500Y-389839562D01*
X15800500Y-389760438D01*
X15780021Y-389684011D01*
X15778036Y-389679218D01*
X15770500Y-389641333D01*
X15770500Y-387058666D01*
X15778038Y-387020775D01*
X15780020Y-387015990D01*
X15780021Y-387015989D01*
X15800500Y-386939562D01*
X15800500Y-386860438D01*
X15780021Y-386784011D01*
X15778036Y-386779218D01*
X15770500Y-386741333D01*
X15770500Y-384158666D01*
X15778038Y-384120775D01*
X15780020Y-384115990D01*
X15780021Y-384115989D01*
X15800500Y-384039562D01*
X15800500Y-383960438D01*
X15780021Y-383884011D01*
X15778036Y-383879218D01*
X15770500Y-383841333D01*
X15770500Y-382058666D01*
X15778038Y-382020775D01*
X15780020Y-382015990D01*
X15780021Y-382015989D01*
X15800500Y-381939562D01*
X15800500Y-381860438D01*
X15780021Y-381784011D01*
X15778036Y-381779218D01*
X15770500Y-381741333D01*
X15770500Y-378358666D01*
X15778038Y-378320775D01*
X15780020Y-378315990D01*
X15780021Y-378315989D01*
X15800500Y-378239562D01*
X15800500Y-378160438D01*
X15780021Y-378084011D01*
X15778036Y-378079218D01*
X15770500Y-378041333D01*
X15770500Y-375458666D01*
X15778038Y-375420775D01*
X15780020Y-375415990D01*
X15780021Y-375415989D01*
X15800500Y-375339562D01*
X15800500Y-375260438D01*
X15780021Y-375184011D01*
X15778036Y-375179218D01*
X15770500Y-375141333D01*
X15770500Y-372558666D01*
X15778038Y-372520775D01*
X15780020Y-372515990D01*
X15780021Y-372515989D01*
X15800500Y-372439562D01*
X15800500Y-372360438D01*
X15780021Y-372284011D01*
X15778036Y-372279218D01*
X15770500Y-372241333D01*
X15770500Y-338958666D01*
X15778038Y-338920775D01*
X15780020Y-338915990D01*
X15780021Y-338915989D01*
X15800500Y-338839562D01*
X15800500Y-338760438D01*
X15780021Y-338684011D01*
X15740460Y-338615489D01*
X15684511Y-338559540D01*
X15684508Y-338559538D01*
X15615992Y-338519980D01*
X15615988Y-338519978D01*
X15539564Y-338499500D01*
X15539562Y-338499500D01*
X15460438Y-338499500D01*
X15437150Y-338505739D01*
X15395123Y-338517001D01*
X15334021Y-338513798D01*
X15286471Y-338475293D01*
X15270500Y-338421374D01*
X15270500Y-321758666D01*
X15278038Y-321720775D01*
X15280020Y-321715990D01*
X15280021Y-321715989D01*
X15300500Y-321639562D01*
X15300500Y-321560438D01*
X15300500Y-321553949D01*
X15302333Y-321553949D01*
X15311908Y-321502267D01*
X15356288Y-321460147D01*
X15398914Y-321450500D01*
X15439563Y-321450500D01*
X15439563Y-321450499D01*
X15515989Y-321430021D01*
X15584511Y-321390460D01*
X15640460Y-321334511D01*
X15680021Y-321265989D01*
X15700500Y-321189562D01*
X15700500Y-321110438D01*
X15680021Y-321034011D01*
X15645661Y-320974498D01*
X15632940Y-320914653D01*
X15645660Y-320875503D01*
X15680021Y-320815989D01*
X15700500Y-320739562D01*
X15700500Y-320660438D01*
X15696396Y-320645122D01*
X15699598Y-320584022D01*
X15738103Y-320536472D01*
X15792023Y-320520500D01*
X16041333Y-320520500D01*
X16079218Y-320528036D01*
X16084011Y-320530021D01*
X16160435Y-320550499D01*
X16160437Y-320550500D01*
X16160438Y-320550500D01*
X16239563Y-320550500D01*
X16239563Y-320550499D01*
X16315989Y-320530021D01*
X16384511Y-320490460D01*
X16440460Y-320434511D01*
X16480021Y-320365989D01*
X16500500Y-320289562D01*
X16500500Y-320210438D01*
X16496396Y-320195122D01*
X16499598Y-320134022D01*
X16538103Y-320086472D01*
X16592023Y-320070500D01*
X16778833Y-320070500D01*
X16816718Y-320078036D01*
X16821511Y-320080021D01*
X16897935Y-320100499D01*
X16897937Y-320100500D01*
X16897938Y-320100500D01*
X16977063Y-320100500D01*
X16977063Y-320100499D01*
X17053489Y-320080021D01*
X17122011Y-320040460D01*
X17177960Y-319984511D01*
X17217521Y-319915989D01*
X17238000Y-319839562D01*
X17238000Y-319760438D01*
X17217521Y-319684011D01*
X17177960Y-319615489D01*
X17122011Y-319559540D01*
X17122008Y-319559538D01*
X17053492Y-319519980D01*
X17053488Y-319519978D01*
X16977064Y-319499500D01*
X16977062Y-319499500D01*
X16897938Y-319499500D01*
X16897935Y-319499500D01*
X16821511Y-319519978D01*
X16816718Y-319521964D01*
X16778833Y-319529500D01*
X4853806Y-319529500D01*
X4746194Y-319529500D01*
X4705013Y-319546558D01*
X4646775Y-319570681D01*
X4570681Y-319646775D01*
X4529500Y-319746194D01*
X4529500Y-395441333D01*
X4527803Y-395449862D01*
X4528454Y-395455687D01*
X4525774Y-395473973D01*
X4519979Y-395484011D01*
X4499500Y-395560438D01*
X500500Y-395560438D01*
X500500Y-316960438D01*
X3699500Y-316960438D01*
X3699500Y-317039562D01*
X3708546Y-317073324D01*
X3709233Y-317082652D01*
X3708784Y-317084479D01*
X3709500Y-317089914D01*
X3709500Y-327110083D01*
X3706127Y-327135706D01*
X3699500Y-327160438D01*
X3699500Y-327239564D01*
X3719978Y-327315988D01*
X3719980Y-327315992D01*
X3745123Y-327359540D01*
X3759540Y-327384511D01*
X3815489Y-327440460D01*
X3815491Y-327440461D01*
X3884007Y-327480019D01*
X3884011Y-327480021D01*
X3960435Y-327500499D01*
X3960437Y-327500500D01*
X3960438Y-327500500D01*
X4039563Y-327500500D01*
X4039563Y-327500499D01*
X4115989Y-327480021D01*
X4184511Y-327440460D01*
X4240460Y-327384511D01*
X4280021Y-327315989D01*
X4300500Y-327239562D01*
X4300500Y-327160438D01*
X4293873Y-327135706D01*
X4290500Y-327110083D01*
X4290500Y-317089914D01*
X4293874Y-317064289D01*
X4300500Y-317039562D01*
X4300500Y-316960437D01*
X4300499Y-316960435D01*
X4299915Y-316958257D01*
X4280021Y-316884011D01*
X4240460Y-316815489D01*
X4184511Y-316759540D01*
X4184508Y-316759538D01*
X4115992Y-316719980D01*
X4115988Y-316719978D01*
X4039564Y-316699500D01*
X4039562Y-316699500D01*
X3960438Y-316699500D01*
X3960435Y-316699500D01*
X3884011Y-316719978D01*
X3884007Y-316719980D01*
X3815491Y-316759538D01*
X3759538Y-316815491D01*
X3719980Y-316884007D01*
X3719978Y-316884011D01*
X3700083Y-316958257D01*
X3700083Y-316958261D01*
X3699500Y-316960438D01*
X500500Y-316960438D01*
X500500Y-242447273D01*
X14399500Y-242447273D01*
X14399500Y-242552727D01*
X14426793Y-242654587D01*
X14426794Y-242654589D01*
X14426794Y-242654590D01*
X14479518Y-242745910D01*
X14479520Y-242745913D01*
X14554087Y-242820480D01*
X14645413Y-242873207D01*
X14747273Y-242900500D01*
X14747275Y-242900500D01*
X14852725Y-242900500D01*
X14852727Y-242900500D01*
X14954587Y-242873207D01*
X15045913Y-242820480D01*
X15076898Y-242789495D01*
X15131415Y-242761719D01*
X15146901Y-242760500D01*
X18640500Y-242760500D01*
X18698691Y-242779407D01*
X18734655Y-242828907D01*
X18739500Y-242859500D01*
X18739500Y-243132091D01*
X18720593Y-243190282D01*
X18671093Y-243226246D01*
X18609907Y-243226246D01*
X18570498Y-243202096D01*
X18547561Y-243179159D01*
X18451817Y-243139500D01*
X18451816Y-243139500D01*
X15946901Y-243139500D01*
X15888710Y-243120593D01*
X15876898Y-243110505D01*
X15845913Y-243079520D01*
X15754587Y-243026793D01*
X15652727Y-242999500D01*
X15547273Y-242999500D01*
X15445413Y-243026793D01*
X15445412Y-243026793D01*
X15445410Y-243026794D01*
X15445409Y-243026794D01*
X15354089Y-243079518D01*
X15279518Y-243154089D01*
X15226794Y-243245409D01*
X15226794Y-243245410D01*
X15226793Y-243245412D01*
X15226793Y-243245413D01*
X15199500Y-243347273D01*
X15199500Y-243452727D01*
X15226793Y-243554587D01*
X15226794Y-243554589D01*
X15226794Y-243554590D01*
X15279518Y-243645910D01*
X15279520Y-243645913D01*
X15354087Y-243720480D01*
X15445413Y-243773207D01*
X15547273Y-243800500D01*
X15547275Y-243800500D01*
X15652725Y-243800500D01*
X15652727Y-243800500D01*
X15754587Y-243773207D01*
X15845913Y-243720480D01*
X15876898Y-243689495D01*
X15931415Y-243661719D01*
X15946901Y-243660500D01*
X18040500Y-243660500D01*
X18098691Y-243679407D01*
X18134655Y-243728907D01*
X18139500Y-243759500D01*
X18139500Y-318974054D01*
X18120593Y-319032245D01*
X18071093Y-319068209D01*
X18014877Y-319069681D01*
X17939562Y-319049500D01*
X17860438Y-319049500D01*
X17860435Y-319049500D01*
X17784011Y-319069978D01*
X17784007Y-319069980D01*
X17715491Y-319109538D01*
X17659538Y-319165491D01*
X17619980Y-319234007D01*
X17619978Y-319234011D01*
X17599500Y-319310435D01*
X17599500Y-319310438D01*
X17599500Y-319389562D01*
X17614859Y-319446882D01*
X17619979Y-319465990D01*
X17621962Y-319470775D01*
X17629500Y-319508666D01*
X17629500Y-395441333D01*
X17621964Y-395479218D01*
X17619978Y-395484011D01*
X17599500Y-395560435D01*
X17599500Y-395560437D01*
X17599500Y-395560438D01*
X17599500Y-395639562D01*
X17614859Y-395696882D01*
X17619979Y-395715990D01*
X17621962Y-395720775D01*
X17629500Y-395758666D01*
X17629500Y-398341333D01*
X17621964Y-398379218D01*
X17619978Y-398384011D01*
X17599500Y-398460435D01*
X17599500Y-398460437D01*
X17599500Y-398460438D01*
X17599500Y-398539562D01*
X17614859Y-398596882D01*
X17619979Y-398615990D01*
X17621962Y-398620775D01*
X17629500Y-398658666D01*
X17629500Y-402041333D01*
X17621964Y-402079218D01*
X17619978Y-402084011D01*
X17599500Y-402160435D01*
X17599500Y-402160437D01*
X17599500Y-402160438D01*
X17599500Y-402239562D01*
X17614859Y-402296882D01*
X17619979Y-402315990D01*
X17621962Y-402320775D01*
X17629500Y-402358666D01*
X17629500Y-404141333D01*
X17621964Y-404179218D01*
X17619978Y-404184011D01*
X17599500Y-404260435D01*
X17599500Y-404260437D01*
X17599500Y-404260438D01*
X17599500Y-404339562D01*
X17614859Y-404396882D01*
X17619979Y-404415990D01*
X17621962Y-404420775D01*
X17629500Y-404458666D01*
X17629500Y-407041333D01*
X17621964Y-407079218D01*
X17619978Y-407084011D01*
X17599500Y-407160435D01*
X17599500Y-407160437D01*
X17599500Y-407160438D01*
X17599500Y-407239562D01*
X17614859Y-407296882D01*
X17619979Y-407315990D01*
X17621962Y-407320775D01*
X17629500Y-407358666D01*
X17629500Y-409941333D01*
X17621964Y-409979218D01*
X17619978Y-409984011D01*
X17599500Y-410060435D01*
X17599500Y-410060437D01*
X17599500Y-410060438D01*
X17599500Y-410139562D01*
X17614859Y-410196882D01*
X17619979Y-410215990D01*
X17621962Y-410220775D01*
X17629500Y-410258666D01*
X17629500Y-412841333D01*
X17621964Y-412879218D01*
X17619978Y-412884011D01*
X17599500Y-412960435D01*
X17599500Y-412960437D01*
X17599500Y-412960438D01*
X17599500Y-413039562D01*
X17614859Y-413096882D01*
X17619979Y-413115990D01*
X17621962Y-413120775D01*
X17629500Y-413158666D01*
X17629500Y-415741333D01*
X17621964Y-415779218D01*
X17619978Y-415784011D01*
X17599500Y-415860435D01*
X17599500Y-415939564D01*
X17619978Y-416015988D01*
X17619980Y-416015992D01*
X17659538Y-416084508D01*
X17659540Y-416084511D01*
X17715489Y-416140460D01*
X17715491Y-416140461D01*
X17784007Y-416180019D01*
X17784011Y-416180021D01*
X17860435Y-416200499D01*
X17860437Y-416200500D01*
X17860438Y-416200500D01*
X17939563Y-416200500D01*
X17939563Y-416200499D01*
X18015989Y-416180021D01*
X18084511Y-416140460D01*
X18140460Y-416084511D01*
X18180021Y-416015989D01*
X18200500Y-415939562D01*
X18200500Y-415860438D01*
X18180021Y-415784011D01*
X18178036Y-415779218D01*
X18170500Y-415741333D01*
X18170500Y-413158666D01*
X18178038Y-413120775D01*
X18180020Y-413115990D01*
X18180021Y-413115989D01*
X18200500Y-413039562D01*
X18200500Y-412960438D01*
X18180021Y-412884011D01*
X18178036Y-412879218D01*
X18170500Y-412841333D01*
X18170500Y-410258666D01*
X18178038Y-410220775D01*
X18180020Y-410215990D01*
X18180021Y-410215989D01*
X18200500Y-410139562D01*
X18200500Y-410060438D01*
X18180021Y-409984011D01*
X18178036Y-409979218D01*
X18170500Y-409941333D01*
X18170500Y-407358666D01*
X18178038Y-407320775D01*
X18180020Y-407315990D01*
X18180021Y-407315989D01*
X18200500Y-407239562D01*
X18200500Y-407160438D01*
X18180021Y-407084011D01*
X18178036Y-407079218D01*
X18170500Y-407041333D01*
X18170500Y-404458666D01*
X18178038Y-404420775D01*
X18180020Y-404415990D01*
X18180021Y-404415989D01*
X18200500Y-404339562D01*
X18200500Y-404260438D01*
X18180021Y-404184011D01*
X18178036Y-404179218D01*
X18170500Y-404141333D01*
X18170500Y-402358666D01*
X18178038Y-402320775D01*
X18180020Y-402315990D01*
X18180021Y-402315989D01*
X18200500Y-402239562D01*
X18200500Y-402160438D01*
X18180021Y-402084011D01*
X18178036Y-402079218D01*
X18170500Y-402041333D01*
X18170500Y-398658666D01*
X18178038Y-398620775D01*
X18180020Y-398615990D01*
X18180021Y-398615989D01*
X18200500Y-398539562D01*
X18200500Y-398460438D01*
X18180021Y-398384011D01*
X18178036Y-398379218D01*
X18170500Y-398341333D01*
X18170500Y-395758666D01*
X18178038Y-395720775D01*
X18180020Y-395715990D01*
X18180021Y-395715989D01*
X18200500Y-395639562D01*
X18200500Y-395560438D01*
X18180021Y-395484011D01*
X18178036Y-395479218D01*
X18170500Y-395441333D01*
X18170500Y-393078625D01*
X18189407Y-393020434D01*
X18238907Y-392984470D01*
X18295124Y-392982999D01*
X18329324Y-392992163D01*
X18360435Y-393000499D01*
X18360437Y-393000500D01*
X18360438Y-393000500D01*
X18439563Y-393000500D01*
X18439563Y-393000499D01*
X18515989Y-392980021D01*
X18584511Y-392940460D01*
X18640460Y-392884511D01*
X18680021Y-392815989D01*
X18700500Y-392739562D01*
X18700500Y-392660438D01*
X18680021Y-392584011D01*
X18678036Y-392579218D01*
X18670500Y-392541333D01*
X18670500Y-389958666D01*
X18678038Y-389920775D01*
X18680020Y-389915990D01*
X18680021Y-389915989D01*
X18700500Y-389839562D01*
X18700500Y-389760438D01*
X18680021Y-389684011D01*
X18678036Y-389679218D01*
X18670500Y-389641333D01*
X18670500Y-387058666D01*
X18678038Y-387020775D01*
X18680020Y-387015990D01*
X18680021Y-387015989D01*
X18700500Y-386939562D01*
X18700500Y-386860438D01*
X18680021Y-386784011D01*
X18678036Y-386779218D01*
X18670500Y-386741333D01*
X18670500Y-384158666D01*
X18678038Y-384120775D01*
X18680020Y-384115990D01*
X18680021Y-384115989D01*
X18700500Y-384039562D01*
X18700500Y-383960438D01*
X18680021Y-383884011D01*
X18678036Y-383879218D01*
X18670500Y-383841333D01*
X18670500Y-381258666D01*
X18678038Y-381220775D01*
X18680020Y-381215990D01*
X18680021Y-381215989D01*
X18700500Y-381139562D01*
X18700500Y-381060438D01*
X18680021Y-380984011D01*
X18678036Y-380979218D01*
X18670500Y-380941333D01*
X18670500Y-379158666D01*
X18678038Y-379120775D01*
X18680020Y-379115990D01*
X18680021Y-379115989D01*
X18700500Y-379039562D01*
X18700500Y-378960438D01*
X18680021Y-378884011D01*
X18678036Y-378879218D01*
X18670500Y-378841333D01*
X18670500Y-375458666D01*
X18678038Y-375420775D01*
X18680020Y-375415990D01*
X18680021Y-375415989D01*
X18700500Y-375339562D01*
X18700500Y-375260438D01*
X18680021Y-375184011D01*
X18678036Y-375179218D01*
X18670500Y-375141333D01*
X18670500Y-372558666D01*
X18678038Y-372520775D01*
X18680020Y-372515990D01*
X18680021Y-372515989D01*
X18700500Y-372439562D01*
X18700500Y-372360438D01*
X18680021Y-372284011D01*
X18678036Y-372279218D01*
X18670500Y-372241333D01*
X18670500Y-338508666D01*
X18678038Y-338470775D01*
X18680020Y-338465990D01*
X18680021Y-338465989D01*
X18700500Y-338389562D01*
X18700500Y-338310438D01*
X18680021Y-338234011D01*
X18640460Y-338165489D01*
X18584511Y-338109540D01*
X18584508Y-338109538D01*
X18515992Y-338069980D01*
X18515988Y-338069978D01*
X18439564Y-338049500D01*
X18439562Y-338049500D01*
X18360438Y-338049500D01*
X18337150Y-338055739D01*
X18295123Y-338067001D01*
X18234021Y-338063798D01*
X18186471Y-338025293D01*
X18170500Y-337971374D01*
X18170500Y-327935064D01*
X18189407Y-327876873D01*
X18238907Y-327840909D01*
X18300093Y-327840909D01*
X18307375Y-327843596D01*
X18348183Y-327860500D01*
X19323673Y-327860500D01*
X19373170Y-327873762D01*
X19384011Y-327880021D01*
X19384013Y-327880021D01*
X19384014Y-327880022D01*
X19422224Y-327890260D01*
X19460435Y-327900499D01*
X19460437Y-327900500D01*
X19460438Y-327900500D01*
X19539563Y-327900500D01*
X19539563Y-327900499D01*
X19615989Y-327880021D01*
X19684511Y-327840460D01*
X19740460Y-327784511D01*
X19780021Y-327715989D01*
X19800500Y-327639562D01*
X19800500Y-327560438D01*
X19780021Y-327484011D01*
X19777717Y-327480021D01*
X19740461Y-327415491D01*
X19740460Y-327415489D01*
X19684511Y-327359540D01*
X19649801Y-327339500D01*
X19615992Y-327319980D01*
X19615988Y-327319978D01*
X19539564Y-327299500D01*
X19539562Y-327299500D01*
X19460438Y-327299500D01*
X19460435Y-327299500D01*
X19384014Y-327319977D01*
X19381282Y-327321554D01*
X19373170Y-327326237D01*
X19323673Y-327339500D01*
X18759500Y-327339500D01*
X18701309Y-327320593D01*
X18665345Y-327271093D01*
X18660500Y-327240500D01*
X18660500Y-322522284D01*
X18679407Y-322464093D01*
X18728907Y-322428129D01*
X18790093Y-322428129D01*
X18809284Y-322438230D01*
X18809870Y-322437216D01*
X18884007Y-322480019D01*
X18884011Y-322480021D01*
X18960435Y-322500499D01*
X18960437Y-322500500D01*
X18960438Y-322500500D01*
X19039563Y-322500500D01*
X19039563Y-322500499D01*
X19115989Y-322480021D01*
X19184511Y-322440460D01*
X19240460Y-322384511D01*
X19280021Y-322315989D01*
X19300500Y-322239562D01*
X19300500Y-322160438D01*
X19280021Y-322084011D01*
X19273761Y-322073169D01*
X19260500Y-322023672D01*
X19260500Y-318860435D01*
X20499500Y-318860435D01*
X20499500Y-318860437D01*
X20499500Y-318860438D01*
X20499500Y-318939562D01*
X20514859Y-318996882D01*
X20519979Y-319015990D01*
X20521962Y-319020775D01*
X20529500Y-319058666D01*
X20529500Y-395441333D01*
X20521964Y-395479218D01*
X20519978Y-395484011D01*
X20499500Y-395560435D01*
X20499500Y-395560437D01*
X20499500Y-395560438D01*
X20499500Y-395639562D01*
X20514859Y-395696882D01*
X20519979Y-395715990D01*
X20521962Y-395720775D01*
X20529500Y-395758666D01*
X20529500Y-399141333D01*
X20521964Y-399179218D01*
X20519978Y-399184011D01*
X20499500Y-399260435D01*
X20499500Y-399260437D01*
X20499500Y-399260438D01*
X20499500Y-399339562D01*
X20514859Y-399396882D01*
X20519979Y-399415990D01*
X20521962Y-399420775D01*
X20529500Y-399458666D01*
X20529500Y-401241333D01*
X20521964Y-401279218D01*
X20519978Y-401284011D01*
X20499500Y-401360435D01*
X20499500Y-401360437D01*
X20499500Y-401360438D01*
X20499500Y-401439562D01*
X20514859Y-401496882D01*
X20519979Y-401515990D01*
X20521962Y-401520775D01*
X20529500Y-401558666D01*
X20529500Y-404141333D01*
X20521964Y-404179218D01*
X20519978Y-404184011D01*
X20499500Y-404260435D01*
X20499500Y-404260437D01*
X20499500Y-404260438D01*
X20499500Y-404339562D01*
X20514859Y-404396882D01*
X20519979Y-404415990D01*
X20521962Y-404420775D01*
X20529500Y-404458666D01*
X20529500Y-407041333D01*
X20521964Y-407079218D01*
X20519978Y-407084011D01*
X20499500Y-407160435D01*
X20499500Y-407160437D01*
X20499500Y-407160438D01*
X20499500Y-407239562D01*
X20514859Y-407296882D01*
X20519979Y-407315990D01*
X20521962Y-407320775D01*
X20529500Y-407358666D01*
X20529500Y-409941333D01*
X20521964Y-409979218D01*
X20519978Y-409984011D01*
X20499500Y-410060435D01*
X20499500Y-410060437D01*
X20499500Y-410060438D01*
X20499500Y-410139562D01*
X20514859Y-410196882D01*
X20519979Y-410215990D01*
X20521962Y-410220775D01*
X20529500Y-410258666D01*
X20529500Y-412841333D01*
X20521964Y-412879218D01*
X20519978Y-412884011D01*
X20499500Y-412960435D01*
X20499500Y-412960437D01*
X20499500Y-412960438D01*
X20499500Y-413039562D01*
X20514859Y-413096882D01*
X20519979Y-413115990D01*
X20521962Y-413120775D01*
X20529500Y-413158666D01*
X20529500Y-415741333D01*
X20521964Y-415779218D01*
X20519978Y-415784011D01*
X20499500Y-415860435D01*
X20499500Y-415939564D01*
X20519978Y-416015988D01*
X20519980Y-416015992D01*
X20559538Y-416084508D01*
X20559540Y-416084511D01*
X20615489Y-416140460D01*
X20615491Y-416140461D01*
X20684007Y-416180019D01*
X20684011Y-416180021D01*
X20760435Y-416200499D01*
X20760437Y-416200500D01*
X20760438Y-416200500D01*
X20839563Y-416200500D01*
X20839563Y-416200499D01*
X20915989Y-416180021D01*
X20984511Y-416140460D01*
X21040460Y-416084511D01*
X21080021Y-416015989D01*
X21100500Y-415939562D01*
X21100500Y-415860438D01*
X21080021Y-415784011D01*
X21078036Y-415779218D01*
X21070500Y-415741333D01*
X21070500Y-413158666D01*
X21078038Y-413120775D01*
X21080020Y-413115990D01*
X21080021Y-413115989D01*
X21100500Y-413039562D01*
X21100500Y-412960438D01*
X21080021Y-412884011D01*
X21078036Y-412879218D01*
X21070500Y-412841333D01*
X21070500Y-410258666D01*
X21078038Y-410220775D01*
X21080020Y-410215990D01*
X21080021Y-410215989D01*
X21100500Y-410139562D01*
X21100500Y-410060438D01*
X21080021Y-409984011D01*
X21078036Y-409979218D01*
X21070500Y-409941333D01*
X21070500Y-407358666D01*
X21078038Y-407320775D01*
X21080020Y-407315990D01*
X21080021Y-407315989D01*
X21100500Y-407239562D01*
X21100500Y-407160438D01*
X21080021Y-407084011D01*
X21078036Y-407079218D01*
X21070500Y-407041333D01*
X21070500Y-404458666D01*
X21078038Y-404420775D01*
X21080020Y-404415990D01*
X21080021Y-404415989D01*
X21100500Y-404339562D01*
X21100500Y-404260438D01*
X21080021Y-404184011D01*
X21078036Y-404179218D01*
X21070500Y-404141333D01*
X21070500Y-401558666D01*
X21078038Y-401520775D01*
X21080020Y-401515990D01*
X21080021Y-401515989D01*
X21100500Y-401439562D01*
X21100500Y-401360438D01*
X21080021Y-401284011D01*
X21078036Y-401279218D01*
X21070500Y-401241333D01*
X21070500Y-399458666D01*
X21078038Y-399420775D01*
X21080020Y-399415990D01*
X21080021Y-399415989D01*
X21100500Y-399339562D01*
X21100500Y-399260438D01*
X21080021Y-399184011D01*
X21078036Y-399179218D01*
X21070500Y-399141333D01*
X21070500Y-395758666D01*
X21078038Y-395720775D01*
X21080020Y-395715990D01*
X21080021Y-395715989D01*
X21100500Y-395639562D01*
X21100500Y-395560438D01*
X21080021Y-395484011D01*
X21078036Y-395479218D01*
X21070500Y-395441333D01*
X21070500Y-393078625D01*
X21089407Y-393020434D01*
X21138907Y-392984470D01*
X21195124Y-392982999D01*
X21229324Y-392992163D01*
X21260435Y-393000499D01*
X21260437Y-393000500D01*
X21260438Y-393000500D01*
X21339563Y-393000500D01*
X21339563Y-393000499D01*
X21415989Y-392980021D01*
X21484511Y-392940460D01*
X21540460Y-392884511D01*
X21580021Y-392815989D01*
X21600500Y-392739562D01*
X21600500Y-392660438D01*
X21580021Y-392584011D01*
X21578036Y-392579218D01*
X21570500Y-392541333D01*
X21570500Y-389958666D01*
X21578038Y-389920775D01*
X21580020Y-389915990D01*
X21580021Y-389915989D01*
X21600500Y-389839562D01*
X21600500Y-389760438D01*
X21580021Y-389684011D01*
X21578036Y-389679218D01*
X21570500Y-389641333D01*
X21570500Y-387058666D01*
X21578038Y-387020775D01*
X21580020Y-387015990D01*
X21580021Y-387015989D01*
X21600500Y-386939562D01*
X21600500Y-386860438D01*
X21580021Y-386784011D01*
X21578036Y-386779218D01*
X21570500Y-386741333D01*
X21570500Y-384158666D01*
X21578038Y-384120775D01*
X21580020Y-384115990D01*
X21580021Y-384115989D01*
X21600500Y-384039562D01*
X21600500Y-383960438D01*
X21580021Y-383884011D01*
X21578036Y-383879218D01*
X21570500Y-383841333D01*
X21570500Y-381258666D01*
X21578038Y-381220775D01*
X21580020Y-381215990D01*
X21580021Y-381215989D01*
X21600500Y-381139562D01*
X21600500Y-381060438D01*
X21580021Y-380984011D01*
X21578036Y-380979218D01*
X21570500Y-380941333D01*
X21570500Y-378358666D01*
X21578038Y-378320775D01*
X21580020Y-378315990D01*
X21580021Y-378315989D01*
X21600500Y-378239562D01*
X21600500Y-378160438D01*
X21580021Y-378084011D01*
X21578036Y-378079218D01*
X21570500Y-378041333D01*
X21570500Y-376258666D01*
X21578038Y-376220775D01*
X21580020Y-376215990D01*
X21580021Y-376215989D01*
X21600500Y-376139562D01*
X21600500Y-376060438D01*
X21580021Y-375984011D01*
X21578036Y-375979218D01*
X21570500Y-375941333D01*
X21570500Y-372558666D01*
X21578038Y-372520775D01*
X21580020Y-372515990D01*
X21580021Y-372515989D01*
X21600500Y-372439562D01*
X21600500Y-372360438D01*
X21580021Y-372284011D01*
X21578036Y-372279218D01*
X21570500Y-372241333D01*
X21570500Y-338058666D01*
X21578038Y-338020775D01*
X21580020Y-338015990D01*
X21580021Y-338015989D01*
X21600500Y-337939562D01*
X21600500Y-337860438D01*
X21580021Y-337784011D01*
X21540460Y-337715489D01*
X21484511Y-337659540D01*
X21484508Y-337659538D01*
X21415992Y-337619980D01*
X21415988Y-337619978D01*
X21339564Y-337599500D01*
X21339562Y-337599500D01*
X21260438Y-337599500D01*
X21237150Y-337605739D01*
X21195123Y-337617001D01*
X21134021Y-337613798D01*
X21086471Y-337575293D01*
X21070500Y-337521374D01*
X21070500Y-319058666D01*
X21078038Y-319020775D01*
X21080020Y-319015990D01*
X21080021Y-319015989D01*
X21100500Y-318939562D01*
X21100500Y-318860438D01*
X21080021Y-318784011D01*
X21040460Y-318715489D01*
X20984511Y-318659540D01*
X20984508Y-318659538D01*
X20915992Y-318619980D01*
X20915988Y-318619978D01*
X20839564Y-318599500D01*
X20839562Y-318599500D01*
X20760438Y-318599500D01*
X20760435Y-318599500D01*
X20684011Y-318619978D01*
X20684007Y-318619980D01*
X20615491Y-318659538D01*
X20559538Y-318715491D01*
X20519980Y-318784007D01*
X20519978Y-318784011D01*
X20499500Y-318860435D01*
X19260500Y-318860435D01*
X19260500Y-318410435D01*
X21899500Y-318410435D01*
X21899500Y-318410437D01*
X21899500Y-318410438D01*
X21899500Y-318489562D01*
X21914859Y-318546882D01*
X21919979Y-318565990D01*
X21921962Y-318570775D01*
X21929500Y-318608666D01*
X21929500Y-396241333D01*
X21921964Y-396279218D01*
X21919978Y-396284011D01*
X21899500Y-396360435D01*
X21899500Y-396360437D01*
X21899500Y-396360438D01*
X21899500Y-396439562D01*
X21914859Y-396496882D01*
X21919979Y-396515990D01*
X21921962Y-396520775D01*
X21929500Y-396558666D01*
X21929500Y-398341333D01*
X21921964Y-398379218D01*
X21919978Y-398384011D01*
X21899500Y-398460435D01*
X21899500Y-398460437D01*
X21899500Y-398460438D01*
X21899500Y-398539562D01*
X21914859Y-398596882D01*
X21919979Y-398615990D01*
X21921962Y-398620775D01*
X21929500Y-398658666D01*
X21929500Y-401241333D01*
X21921964Y-401279218D01*
X21919978Y-401284011D01*
X21899500Y-401360435D01*
X21899500Y-401360437D01*
X21899500Y-401360438D01*
X21899500Y-401439562D01*
X21914859Y-401496882D01*
X21919979Y-401515990D01*
X21921962Y-401520775D01*
X21929500Y-401558666D01*
X21929500Y-404141333D01*
X21921964Y-404179218D01*
X21919978Y-404184011D01*
X21899500Y-404260435D01*
X21899500Y-404260437D01*
X21899500Y-404260438D01*
X21899500Y-404339562D01*
X21914859Y-404396882D01*
X21919979Y-404415990D01*
X21921962Y-404420775D01*
X21929500Y-404458666D01*
X21929500Y-407041333D01*
X21921964Y-407079218D01*
X21919978Y-407084011D01*
X21899500Y-407160435D01*
X21899500Y-407160437D01*
X21899500Y-407160438D01*
X21899500Y-407239562D01*
X21914859Y-407296882D01*
X21919979Y-407315990D01*
X21921962Y-407320775D01*
X21929500Y-407358666D01*
X21929500Y-409941333D01*
X21921964Y-409979218D01*
X21919978Y-409984011D01*
X21899500Y-410060435D01*
X21899500Y-410060437D01*
X21899500Y-410060438D01*
X21899500Y-410139562D01*
X21914859Y-410196882D01*
X21919979Y-410215990D01*
X21921962Y-410220775D01*
X21929500Y-410258666D01*
X21929500Y-412841333D01*
X21921964Y-412879218D01*
X21919978Y-412884011D01*
X21899500Y-412960435D01*
X21899500Y-412960437D01*
X21899500Y-412960438D01*
X21899500Y-413039562D01*
X21914859Y-413096882D01*
X21919979Y-413115990D01*
X21921962Y-413120775D01*
X21929500Y-413158666D01*
X21929500Y-415741333D01*
X21921964Y-415779218D01*
X21919978Y-415784011D01*
X21899500Y-415860435D01*
X21899500Y-415939564D01*
X21919978Y-416015988D01*
X21919980Y-416015992D01*
X21959538Y-416084508D01*
X21959540Y-416084511D01*
X22015489Y-416140460D01*
X22015491Y-416140461D01*
X22084007Y-416180019D01*
X22084011Y-416180021D01*
X22160435Y-416200499D01*
X22160437Y-416200500D01*
X22160438Y-416200500D01*
X22239563Y-416200500D01*
X22239563Y-416200499D01*
X22315989Y-416180021D01*
X22384511Y-416140460D01*
X22440460Y-416084511D01*
X22480021Y-416015989D01*
X22500500Y-415939562D01*
X22500500Y-415860438D01*
X22480021Y-415784011D01*
X22478036Y-415779218D01*
X22470500Y-415741333D01*
X22470500Y-413158666D01*
X22478038Y-413120775D01*
X22480020Y-413115990D01*
X22480021Y-413115989D01*
X22500500Y-413039562D01*
X22500500Y-412960438D01*
X22480021Y-412884011D01*
X22478036Y-412879218D01*
X22470500Y-412841333D01*
X22470500Y-410258666D01*
X22478038Y-410220775D01*
X22480020Y-410215990D01*
X22480021Y-410215989D01*
X22500500Y-410139562D01*
X22500500Y-410060438D01*
X22480021Y-409984011D01*
X22478036Y-409979218D01*
X22470500Y-409941333D01*
X22470500Y-407358666D01*
X22478038Y-407320775D01*
X22480020Y-407315990D01*
X22480021Y-407315989D01*
X22500500Y-407239562D01*
X22500500Y-407160438D01*
X22480021Y-407084011D01*
X22478036Y-407079218D01*
X22470500Y-407041333D01*
X22470500Y-404458666D01*
X22478038Y-404420775D01*
X22480020Y-404415990D01*
X22480021Y-404415989D01*
X22500500Y-404339562D01*
X22500500Y-404260438D01*
X22480021Y-404184011D01*
X22478036Y-404179218D01*
X22470500Y-404141333D01*
X22470500Y-401558666D01*
X22478038Y-401520775D01*
X22480020Y-401515990D01*
X22480021Y-401515989D01*
X22500500Y-401439562D01*
X22500500Y-401360438D01*
X22480021Y-401284011D01*
X22478036Y-401279218D01*
X22470500Y-401241333D01*
X22470500Y-398658666D01*
X22478038Y-398620775D01*
X22480020Y-398615990D01*
X22480021Y-398615989D01*
X22500500Y-398539562D01*
X22500500Y-398460438D01*
X22480021Y-398384011D01*
X22478036Y-398379218D01*
X22470500Y-398341333D01*
X22470500Y-396558666D01*
X22478038Y-396520775D01*
X22480020Y-396515990D01*
X22480021Y-396515989D01*
X22500500Y-396439562D01*
X22500500Y-396360438D01*
X22480021Y-396284011D01*
X22478036Y-396279218D01*
X22470500Y-396241333D01*
X22470500Y-393078625D01*
X22489407Y-393020434D01*
X22538907Y-392984470D01*
X22595124Y-392982999D01*
X22629324Y-392992163D01*
X22660435Y-393000499D01*
X22660437Y-393000500D01*
X22660438Y-393000500D01*
X22739563Y-393000500D01*
X22739563Y-393000499D01*
X22815989Y-392980021D01*
X22884511Y-392940460D01*
X22940460Y-392884511D01*
X22980021Y-392815989D01*
X23000500Y-392739562D01*
X23000500Y-392660438D01*
X22980021Y-392584011D01*
X22978036Y-392579218D01*
X22970500Y-392541333D01*
X22970500Y-389958666D01*
X22978038Y-389920775D01*
X22980020Y-389915990D01*
X22980021Y-389915989D01*
X23000500Y-389839562D01*
X23000500Y-389760438D01*
X22980021Y-389684011D01*
X22978036Y-389679218D01*
X22970500Y-389641333D01*
X22970500Y-387058666D01*
X22978038Y-387020775D01*
X22980020Y-387015990D01*
X22980021Y-387015989D01*
X23000500Y-386939562D01*
X23000500Y-386860438D01*
X22980021Y-386784011D01*
X22978036Y-386779218D01*
X22970500Y-386741333D01*
X22970500Y-384158666D01*
X22978038Y-384120775D01*
X22980020Y-384115990D01*
X22980021Y-384115989D01*
X23000500Y-384039562D01*
X23000500Y-383960438D01*
X22980021Y-383884011D01*
X22978036Y-383879218D01*
X22970500Y-383841333D01*
X22970500Y-381258666D01*
X22978038Y-381220775D01*
X22980020Y-381215990D01*
X22980021Y-381215989D01*
X23000500Y-381139562D01*
X23000500Y-381060438D01*
X22980021Y-380984011D01*
X22978036Y-380979218D01*
X22970500Y-380941333D01*
X22970500Y-378358666D01*
X22978038Y-378320775D01*
X22980020Y-378315990D01*
X22980021Y-378315989D01*
X23000500Y-378239562D01*
X23000500Y-378160438D01*
X22980021Y-378084011D01*
X22978036Y-378079218D01*
X22970500Y-378041333D01*
X22970500Y-375458666D01*
X22978038Y-375420775D01*
X22980020Y-375415990D01*
X22980021Y-375415989D01*
X23000500Y-375339562D01*
X23000500Y-375260438D01*
X22980021Y-375184011D01*
X22978036Y-375179218D01*
X22970500Y-375141333D01*
X22970500Y-373358666D01*
X22978038Y-373320775D01*
X22980020Y-373315990D01*
X22980021Y-373315989D01*
X23000500Y-373239562D01*
X23000500Y-373160438D01*
X22980021Y-373084011D01*
X22978036Y-373079218D01*
X22970500Y-373041333D01*
X22970500Y-337608666D01*
X22978038Y-337570775D01*
X22980020Y-337565990D01*
X22980021Y-337565989D01*
X23000500Y-337489562D01*
X23000500Y-337410438D01*
X22980021Y-337334011D01*
X22940460Y-337265489D01*
X22884511Y-337209540D01*
X22884508Y-337209538D01*
X22815992Y-337169980D01*
X22815988Y-337169978D01*
X22739564Y-337149500D01*
X22739562Y-337149500D01*
X22660438Y-337149500D01*
X22637150Y-337155739D01*
X22595123Y-337167001D01*
X22534021Y-337163798D01*
X22486471Y-337125293D01*
X22470500Y-337071374D01*
X22470500Y-318608666D01*
X22478038Y-318570775D01*
X22480020Y-318565990D01*
X22480021Y-318565989D01*
X22500500Y-318489562D01*
X22500500Y-318410438D01*
X22480021Y-318334011D01*
X22440460Y-318265489D01*
X22384511Y-318209540D01*
X22384508Y-318209538D01*
X22315992Y-318169980D01*
X22315988Y-318169978D01*
X22239564Y-318149500D01*
X22239562Y-318149500D01*
X22160438Y-318149500D01*
X22160435Y-318149500D01*
X22084011Y-318169978D01*
X22084007Y-318169980D01*
X22015491Y-318209538D01*
X21959538Y-318265491D01*
X21919980Y-318334007D01*
X21919978Y-318334011D01*
X21899500Y-318410435D01*
X19260500Y-318410435D01*
X19260500Y-317960435D01*
X24799500Y-317960435D01*
X24799500Y-317960437D01*
X24799500Y-317960438D01*
X24799500Y-318039562D01*
X24814859Y-318096882D01*
X24819979Y-318115990D01*
X24821962Y-318120775D01*
X24829500Y-318158666D01*
X24829500Y-395441333D01*
X24821964Y-395479218D01*
X24819978Y-395484011D01*
X24799500Y-395560435D01*
X24799500Y-395560437D01*
X24799500Y-395560438D01*
X24799500Y-395639562D01*
X24814859Y-395696882D01*
X24819979Y-395715990D01*
X24821962Y-395720775D01*
X24829500Y-395758666D01*
X24829500Y-398341333D01*
X24821964Y-398379218D01*
X24819978Y-398384011D01*
X24799500Y-398460435D01*
X24799500Y-398460437D01*
X24799500Y-398460438D01*
X24799500Y-398539562D01*
X24814859Y-398596882D01*
X24819979Y-398615990D01*
X24821962Y-398620775D01*
X24829500Y-398658666D01*
X24829500Y-401241333D01*
X24821964Y-401279218D01*
X24819978Y-401284011D01*
X24799500Y-401360435D01*
X24799500Y-401360437D01*
X24799500Y-401360438D01*
X24799500Y-401439562D01*
X24814859Y-401496882D01*
X24819979Y-401515990D01*
X24821962Y-401520775D01*
X24829500Y-401558666D01*
X24829500Y-404141333D01*
X24821964Y-404179218D01*
X24819978Y-404184011D01*
X24799500Y-404260435D01*
X24799500Y-404260437D01*
X24799500Y-404260438D01*
X24799500Y-404339562D01*
X24814859Y-404396882D01*
X24819979Y-404415990D01*
X24821962Y-404420775D01*
X24829500Y-404458666D01*
X24829500Y-407041333D01*
X24821964Y-407079218D01*
X24819978Y-407084011D01*
X24799500Y-407160435D01*
X24799500Y-407160437D01*
X24799500Y-407160438D01*
X24799500Y-407239562D01*
X24814859Y-407296882D01*
X24819979Y-407315990D01*
X24821962Y-407320775D01*
X24829500Y-407358666D01*
X24829500Y-409941333D01*
X24821964Y-409979218D01*
X24819978Y-409984011D01*
X24799500Y-410060435D01*
X24799500Y-410060437D01*
X24799500Y-410060438D01*
X24799500Y-410139562D01*
X24814859Y-410196882D01*
X24819979Y-410215990D01*
X24821962Y-410220775D01*
X24829500Y-410258666D01*
X24829500Y-412841333D01*
X24821964Y-412879218D01*
X24819978Y-412884011D01*
X24799500Y-412960435D01*
X24799500Y-412960437D01*
X24799500Y-412960438D01*
X24799500Y-413039562D01*
X24814859Y-413096882D01*
X24819979Y-413115990D01*
X24821962Y-413120775D01*
X24829500Y-413158666D01*
X24829500Y-415741333D01*
X24821964Y-415779218D01*
X24819978Y-415784011D01*
X24799500Y-415860435D01*
X24799500Y-415939564D01*
X24819978Y-416015988D01*
X24819980Y-416015992D01*
X24859538Y-416084508D01*
X24859540Y-416084511D01*
X24915489Y-416140460D01*
X24915491Y-416140461D01*
X24984007Y-416180019D01*
X24984011Y-416180021D01*
X25060435Y-416200499D01*
X25060437Y-416200500D01*
X25060438Y-416200500D01*
X25139563Y-416200500D01*
X25139563Y-416200499D01*
X25215989Y-416180021D01*
X25284511Y-416140460D01*
X25340460Y-416084511D01*
X25380021Y-416015989D01*
X25400500Y-415939562D01*
X25400500Y-415860438D01*
X25380021Y-415784011D01*
X25378036Y-415779218D01*
X25370500Y-415741333D01*
X25370500Y-413158666D01*
X25378038Y-413120775D01*
X25380020Y-413115990D01*
X25380021Y-413115989D01*
X25400500Y-413039562D01*
X25400500Y-412960438D01*
X25380021Y-412884011D01*
X25378036Y-412879218D01*
X25370500Y-412841333D01*
X25370500Y-410258666D01*
X25378038Y-410220775D01*
X25380020Y-410215990D01*
X25380021Y-410215989D01*
X25400500Y-410139562D01*
X25400500Y-410060438D01*
X25380021Y-409984011D01*
X25378036Y-409979218D01*
X25370500Y-409941333D01*
X25370500Y-407358666D01*
X25378038Y-407320775D01*
X25380020Y-407315990D01*
X25380021Y-407315989D01*
X25400500Y-407239562D01*
X25400500Y-407160438D01*
X25380021Y-407084011D01*
X25378036Y-407079218D01*
X25370500Y-407041333D01*
X25370500Y-404458666D01*
X25378038Y-404420775D01*
X25380020Y-404415990D01*
X25380021Y-404415989D01*
X25400500Y-404339562D01*
X25400500Y-404260438D01*
X25380021Y-404184011D01*
X25378036Y-404179218D01*
X25370500Y-404141333D01*
X25370500Y-401558666D01*
X25378038Y-401520775D01*
X25380020Y-401515990D01*
X25380021Y-401515989D01*
X25400500Y-401439562D01*
X25400500Y-401360438D01*
X25380021Y-401284011D01*
X25378036Y-401279218D01*
X25370500Y-401241333D01*
X25370500Y-398658666D01*
X25378038Y-398620775D01*
X25380020Y-398615990D01*
X25380021Y-398615989D01*
X25400500Y-398539562D01*
X25400500Y-398460438D01*
X25380021Y-398384011D01*
X25378036Y-398379218D01*
X25370500Y-398341333D01*
X25370500Y-395758666D01*
X25378038Y-395720775D01*
X25380020Y-395715990D01*
X25380021Y-395715989D01*
X25400500Y-395639562D01*
X25400500Y-395560438D01*
X25380021Y-395484011D01*
X25378036Y-395479218D01*
X25370500Y-395441333D01*
X25370500Y-393078625D01*
X25389407Y-393020434D01*
X25438907Y-392984470D01*
X25495124Y-392982999D01*
X25529324Y-392992163D01*
X25560435Y-393000499D01*
X25560437Y-393000500D01*
X25560438Y-393000500D01*
X25639563Y-393000500D01*
X25639563Y-393000499D01*
X25715989Y-392980021D01*
X25784511Y-392940460D01*
X25840460Y-392884511D01*
X25880021Y-392815989D01*
X25900500Y-392739562D01*
X25900500Y-392660438D01*
X25880021Y-392584011D01*
X25878036Y-392579218D01*
X25870500Y-392541333D01*
X25870500Y-389958666D01*
X25878038Y-389920775D01*
X25880020Y-389915990D01*
X25880021Y-389915989D01*
X25900500Y-389839562D01*
X25900500Y-389760438D01*
X25880021Y-389684011D01*
X25878036Y-389679218D01*
X25870500Y-389641333D01*
X25870500Y-387058666D01*
X25878038Y-387020775D01*
X25880020Y-387015990D01*
X25880021Y-387015989D01*
X25900500Y-386939562D01*
X25900500Y-386860438D01*
X25880021Y-386784011D01*
X25878036Y-386779218D01*
X25870500Y-386741333D01*
X25870500Y-384158666D01*
X25878038Y-384120775D01*
X25880020Y-384115990D01*
X25880021Y-384115989D01*
X25900500Y-384039562D01*
X25900500Y-383960438D01*
X25880021Y-383884011D01*
X25878036Y-383879218D01*
X25870500Y-383841333D01*
X25870500Y-381258666D01*
X25878038Y-381220775D01*
X25880020Y-381215990D01*
X25880021Y-381215989D01*
X25900500Y-381139562D01*
X25900500Y-381060438D01*
X25880021Y-380984011D01*
X25878036Y-380979218D01*
X25870500Y-380941333D01*
X25870500Y-378358666D01*
X25878038Y-378320775D01*
X25880020Y-378315990D01*
X25880021Y-378315989D01*
X25900500Y-378239562D01*
X25900500Y-378160438D01*
X25880021Y-378084011D01*
X25878036Y-378079218D01*
X25870500Y-378041333D01*
X25870500Y-375458666D01*
X25878038Y-375420775D01*
X25880020Y-375415990D01*
X25880021Y-375415989D01*
X25900500Y-375339562D01*
X25900500Y-375260438D01*
X25880021Y-375184011D01*
X25878036Y-375179218D01*
X25870500Y-375141333D01*
X25870500Y-372558666D01*
X25878038Y-372520775D01*
X25880020Y-372515990D01*
X25880021Y-372515989D01*
X25900500Y-372439562D01*
X25900500Y-372360438D01*
X25880021Y-372284011D01*
X25878036Y-372279218D01*
X25870500Y-372241333D01*
X25870500Y-337158666D01*
X25878038Y-337120775D01*
X25880020Y-337115990D01*
X25880021Y-337115989D01*
X25900500Y-337039562D01*
X25900500Y-336960438D01*
X25880021Y-336884011D01*
X25840460Y-336815489D01*
X25784511Y-336759540D01*
X25784508Y-336759538D01*
X25715992Y-336719980D01*
X25715988Y-336719978D01*
X25639564Y-336699500D01*
X25639562Y-336699500D01*
X25560438Y-336699500D01*
X25537150Y-336705739D01*
X25495123Y-336717001D01*
X25434021Y-336713798D01*
X25386471Y-336675293D01*
X25370500Y-336621374D01*
X25370500Y-318158666D01*
X25378038Y-318120775D01*
X25380020Y-318115990D01*
X25380021Y-318115989D01*
X25400500Y-318039562D01*
X25400500Y-317960438D01*
X25380021Y-317884011D01*
X25340460Y-317815489D01*
X25284511Y-317759540D01*
X25284508Y-317759538D01*
X25215992Y-317719980D01*
X25215988Y-317719978D01*
X25139564Y-317699500D01*
X25139562Y-317699500D01*
X25060438Y-317699500D01*
X25060435Y-317699500D01*
X24984011Y-317719978D01*
X24984007Y-317719980D01*
X24915491Y-317759538D01*
X24859538Y-317815491D01*
X24819980Y-317884007D01*
X24819978Y-317884011D01*
X24799500Y-317960435D01*
X19260500Y-317960435D01*
X19260500Y-242448183D01*
X19260123Y-242447273D01*
X19220841Y-242352439D01*
X19147561Y-242279159D01*
X19051817Y-242239500D01*
X19051816Y-242239500D01*
X15146901Y-242239500D01*
X15088710Y-242220593D01*
X15076898Y-242210505D01*
X15045913Y-242179520D01*
X14954587Y-242126793D01*
X14852727Y-242099500D01*
X14747273Y-242099500D01*
X14645413Y-242126793D01*
X14645412Y-242126793D01*
X14645410Y-242126794D01*
X14645409Y-242126794D01*
X14554089Y-242179518D01*
X14479518Y-242254089D01*
X14426794Y-242345409D01*
X14426794Y-242345410D01*
X14426793Y-242345412D01*
X14426793Y-242345413D01*
X14399500Y-242447273D01*
X500500Y-242447273D01*
X500500Y-238960435D01*
X13099500Y-238960435D01*
X13099500Y-239039564D01*
X13119978Y-239115988D01*
X13119980Y-239115992D01*
X13159538Y-239184508D01*
X13159540Y-239184511D01*
X13215489Y-239240460D01*
X13215491Y-239240461D01*
X13284007Y-239280019D01*
X13284011Y-239280021D01*
X13360435Y-239300499D01*
X13360437Y-239300500D01*
X13360438Y-239300500D01*
X13439563Y-239300500D01*
X13439563Y-239300499D01*
X13515989Y-239280021D01*
X13584511Y-239240460D01*
X13640460Y-239184511D01*
X13680021Y-239115989D01*
X13700500Y-239039562D01*
X13700500Y-239029099D01*
X13711194Y-238984343D01*
X13825130Y-238759540D01*
X14446708Y-237533127D01*
X14465010Y-237507882D01*
X14487957Y-237484936D01*
X14525873Y-237419264D01*
X14545500Y-237346016D01*
X14545500Y-237270184D01*
X14525873Y-237196936D01*
X14504801Y-237160438D01*
X14487960Y-237131268D01*
X14487958Y-237131266D01*
X14487957Y-237131264D01*
X14434336Y-237077643D01*
X14434333Y-237077641D01*
X14434331Y-237077639D01*
X14368669Y-237039729D01*
X14368666Y-237039728D01*
X14368664Y-237039727D01*
X14295416Y-237020100D01*
X14219584Y-237020100D01*
X14146336Y-237039727D01*
X14146334Y-237039727D01*
X14146330Y-237039729D01*
X14080668Y-237077639D01*
X14027039Y-237131268D01*
X13989129Y-237196930D01*
X13989127Y-237196934D01*
X13989127Y-237196936D01*
X13969500Y-237270184D01*
X13969500Y-237270185D01*
X13967821Y-237276452D01*
X13966584Y-237276120D01*
X13960470Y-237295808D01*
X13228960Y-238739122D01*
X13210659Y-238764368D01*
X13159539Y-238815489D01*
X13119980Y-238884007D01*
X13119978Y-238884011D01*
X13099500Y-238960435D01*
X500500Y-238960435D01*
X500500Y-237160435D01*
X11699500Y-237160435D01*
X11699500Y-237239564D01*
X11719978Y-237315988D01*
X11719980Y-237315992D01*
X11759538Y-237384508D01*
X11759540Y-237384511D01*
X11815489Y-237440460D01*
X11815491Y-237440461D01*
X11884007Y-237480019D01*
X11884011Y-237480021D01*
X11960435Y-237500499D01*
X11960437Y-237500500D01*
X11960438Y-237500500D01*
X12039563Y-237500500D01*
X12039563Y-237500499D01*
X12115989Y-237480021D01*
X12184511Y-237440460D01*
X12193932Y-237431038D01*
X12238093Y-237405472D01*
X13615236Y-237033085D01*
X13647495Y-237030935D01*
X13647495Y-237030500D01*
X13729814Y-237030500D01*
X13729816Y-237030500D01*
X13803064Y-237010873D01*
X13868736Y-236972957D01*
X13922357Y-236919336D01*
X13960273Y-236853664D01*
X13979900Y-236780416D01*
X13979900Y-236704584D01*
X13960273Y-236631336D01*
X13960270Y-236631330D01*
X13922360Y-236565668D01*
X13922358Y-236565666D01*
X13922357Y-236565664D01*
X13868736Y-236512043D01*
X13868733Y-236512041D01*
X13868731Y-236512039D01*
X13803069Y-236474129D01*
X13803066Y-236474128D01*
X13803064Y-236474127D01*
X13729816Y-236454500D01*
X13653984Y-236454500D01*
X13580736Y-236474127D01*
X13580734Y-236474127D01*
X13580734Y-236474128D01*
X13515057Y-236512046D01*
X13513648Y-236513128D01*
X13510415Y-236514726D01*
X13509445Y-236515287D01*
X13509408Y-236515224D01*
X13479226Y-236530152D01*
X12102334Y-236902471D01*
X12050870Y-236902530D01*
X12039562Y-236899500D01*
X11960438Y-236899500D01*
X11960435Y-236899500D01*
X11884011Y-236919978D01*
X11884007Y-236919980D01*
X11815491Y-236959538D01*
X11759538Y-237015491D01*
X11719980Y-237084007D01*
X11719978Y-237084011D01*
X11699500Y-237160435D01*
X500500Y-237160435D01*
X500500Y-233947273D01*
X11399500Y-233947273D01*
X11399500Y-234052727D01*
X11426793Y-234154587D01*
X11426794Y-234154589D01*
X11426794Y-234154590D01*
X11479518Y-234245910D01*
X11479520Y-234245913D01*
X11554087Y-234320480D01*
X11645413Y-234373207D01*
X11747273Y-234400500D01*
X11747275Y-234400500D01*
X11852725Y-234400500D01*
X11852727Y-234400500D01*
X11954587Y-234373207D01*
X12045913Y-234320480D01*
X12120480Y-234245913D01*
X12173207Y-234154587D01*
X12200500Y-234052727D01*
X12200500Y-233947273D01*
X12173207Y-233845413D01*
X12120480Y-233754087D01*
X12045913Y-233679520D01*
X11954587Y-233626793D01*
X11852727Y-233599500D01*
X11747273Y-233599500D01*
X11645413Y-233626793D01*
X11645412Y-233626793D01*
X11645410Y-233626794D01*
X11645409Y-233626794D01*
X11554089Y-233679518D01*
X11479518Y-233754089D01*
X11426794Y-233845409D01*
X11426794Y-233845410D01*
X11426793Y-233845412D01*
X11426793Y-233845413D01*
X11399500Y-233947273D01*
X500500Y-233947273D01*
X500500Y-81947273D01*
X14599500Y-81947273D01*
X14599500Y-82052727D01*
X14626793Y-82154587D01*
X14626794Y-82154589D01*
X14626794Y-82154590D01*
X14679518Y-82245910D01*
X14679520Y-82245913D01*
X14754087Y-82320480D01*
X14845413Y-82373207D01*
X14947273Y-82400500D01*
X14947275Y-82400500D01*
X15052725Y-82400500D01*
X15052727Y-82400500D01*
X15154587Y-82373207D01*
X15245913Y-82320480D01*
X15320480Y-82245913D01*
X15373207Y-82154587D01*
X15400500Y-82052727D01*
X15400500Y-81947273D01*
X15373207Y-81845413D01*
X15320480Y-81754087D01*
X15245913Y-81679520D01*
X15154587Y-81626793D01*
X15052727Y-81599500D01*
X14947273Y-81599500D01*
X14845413Y-81626793D01*
X14845412Y-81626793D01*
X14845410Y-81626794D01*
X14845409Y-81626794D01*
X14754089Y-81679518D01*
X14679518Y-81754089D01*
X14626794Y-81845409D01*
X14626794Y-81845410D01*
X14626793Y-81845412D01*
X14626793Y-81845413D01*
X14599500Y-81947273D01*
X500500Y-81947273D01*
X500500Y-33947273D01*
X13329500Y-33947273D01*
X13329500Y-34052727D01*
X13356793Y-34154587D01*
X13356794Y-34154589D01*
X13356794Y-34154590D01*
X13409518Y-34245910D01*
X13409520Y-34245913D01*
X13484087Y-34320480D01*
X13575413Y-34373207D01*
X13677273Y-34400500D01*
X13677275Y-34400500D01*
X13782725Y-34400500D01*
X13782727Y-34400500D01*
X13884587Y-34373207D01*
X13975913Y-34320480D01*
X14050480Y-34245913D01*
X14103207Y-34154587D01*
X14130500Y-34052727D01*
X14130500Y-33947273D01*
X14103207Y-33845413D01*
X14050480Y-33754087D01*
X13975913Y-33679520D01*
X13884587Y-33626793D01*
X13782727Y-33599500D01*
X13677273Y-33599500D01*
X13575413Y-33626793D01*
X13575412Y-33626793D01*
X13575410Y-33626794D01*
X13575409Y-33626794D01*
X13484089Y-33679518D01*
X13409518Y-33754089D01*
X13356794Y-33845409D01*
X13356794Y-33845410D01*
X13356793Y-33845412D01*
X13356793Y-33845413D01*
X13329500Y-33947273D01*
X500500Y-33947273D01*
X500500Y-599500D01*
X519407Y-541309D01*
X568907Y-505345D01*
X599500Y-500500D01*
X29400500Y-500500D01*
X29458691Y-519407D01*
G37*
%TD.AperFunction*%
%TD*%
M02*
