%TF.GenerationSoftware,KiCad,Pcbnew,10.0.0*%
%TF.CreationDate,2026-04-29T20:53:33+08:00*%
%TF.ProjectId,candle,63616e64-6c65-42e6-9b69-6361645f7063,rev?*%
%TF.SameCoordinates,Original*%
%TF.FileFunction,Legend,Bot*%
%TF.FilePolarity,Positive*%
%FSLAX46Y46*%
G04 Gerber Fmt 4.6, Leading zero omitted, Abs format (unit mm)*
G04 Created by KiCad (PCBNEW 10.0.0) date 2026-04-29 20:53:33*
%MOMM*%
%LPD*%
G01*
G04 APERTURE LIST*
G04 Aperture macros list*
%AMRoundRect*
0 Rectangle with rounded corners*
0 $1 Rounding radius*
0 $2 $3 $4 $5 $6 $7 $8 $9 X,Y pos of 4 corners*
0 Add a 4 corners polygon primitive as box body*
4,1,4,$2,$3,$4,$5,$6,$7,$8,$9,$2,$3,0*
0 Add four circle primitives for the rounded corners*
1,1,$1+$1,$2,$3*
1,1,$1+$1,$4,$5*
1,1,$1+$1,$6,$7*
1,1,$1+$1,$8,$9*
0 Add four rect primitives between the rounded corners*
20,1,$1+$1,$2,$3,$4,$5,0*
20,1,$1+$1,$4,$5,$6,$7,0*
20,1,$1+$1,$6,$7,$8,$9,0*
20,1,$1+$1,$8,$9,$2,$3,0*%
G04 Aperture macros list end*
%ADD10C,0.150000*%
%ADD11RoundRect,0.504000X-1.596000X-3.496000X1.596000X-3.496000X1.596000X3.496000X-1.596000X3.496000X0*%
%ADD12RoundRect,0.225000X0.250000X-0.225000X0.250000X0.225000X-0.250000X0.225000X-0.250000X-0.225000X0*%
%ADD13RoundRect,0.250000X0.475000X-0.250000X0.475000X0.250000X-0.475000X0.250000X-0.475000X-0.250000X0*%
%ADD14RoundRect,0.175000X0.225000X-0.175000X0.225000X0.175000X-0.225000X0.175000X-0.225000X-0.175000X0*%
%ADD15RoundRect,0.200000X0.275000X-0.200000X0.275000X0.200000X-0.275000X0.200000X-0.275000X-0.200000X0*%
%ADD16RoundRect,0.050000X-0.362500X-0.050000X0.362500X-0.050000X0.362500X0.050000X-0.362500X0.050000X0*%
%ADD17RoundRect,0.050000X-0.050000X-0.362500X0.050000X-0.362500X0.050000X0.362500X-0.050000X0.362500X0*%
%ADD18R,2.300000X2.300000*%
G04 APERTURE END LIST*
D10*
X20219047Y-93562295D02*
X20219047Y-94209914D01*
X20219047Y-94209914D02*
X20180952Y-94286104D01*
X20180952Y-94286104D02*
X20142857Y-94324200D01*
X20142857Y-94324200D02*
X20066666Y-94362295D01*
X20066666Y-94362295D02*
X19914285Y-94362295D01*
X19914285Y-94362295D02*
X19838095Y-94324200D01*
X19838095Y-94324200D02*
X19800000Y-94286104D01*
X19800000Y-94286104D02*
X19761904Y-94209914D01*
X19761904Y-94209914D02*
X19761904Y-93562295D01*
X18961905Y-94362295D02*
X19419048Y-94362295D01*
X19190476Y-94362295D02*
X19190476Y-93562295D01*
X19190476Y-93562295D02*
X19266667Y-93676580D01*
X19266667Y-93676580D02*
X19342857Y-93752771D01*
X19342857Y-93752771D02*
X19419048Y-93790866D01*
X18009523Y-94362295D02*
X18009523Y-93562295D01*
X18009523Y-93867057D02*
X17933333Y-93828961D01*
X17933333Y-93828961D02*
X17780952Y-93828961D01*
X17780952Y-93828961D02*
X17704761Y-93867057D01*
X17704761Y-93867057D02*
X17666666Y-93905152D01*
X17666666Y-93905152D02*
X17628571Y-93981342D01*
X17628571Y-93981342D02*
X17628571Y-94209914D01*
X17628571Y-94209914D02*
X17666666Y-94286104D01*
X17666666Y-94286104D02*
X17704761Y-94324200D01*
X17704761Y-94324200D02*
X17780952Y-94362295D01*
X17780952Y-94362295D02*
X17933333Y-94362295D01*
X17933333Y-94362295D02*
X18009523Y-94324200D01*
X16942856Y-93828961D02*
X16942856Y-94362295D01*
X17285713Y-93828961D02*
X17285713Y-94248009D01*
X17285713Y-94248009D02*
X17247618Y-94324200D01*
X17247618Y-94324200D02*
X17171428Y-94362295D01*
X17171428Y-94362295D02*
X17057142Y-94362295D01*
X17057142Y-94362295D02*
X16980951Y-94324200D01*
X16980951Y-94324200D02*
X16942856Y-94286104D01*
X16676189Y-93828961D02*
X16371427Y-93828961D01*
X16561903Y-93562295D02*
X16561903Y-94248009D01*
X16561903Y-94248009D02*
X16523808Y-94324200D01*
X16523808Y-94324200D02*
X16447618Y-94362295D01*
X16447618Y-94362295D02*
X16371427Y-94362295D01*
X16219046Y-93828961D02*
X15914284Y-93828961D01*
X16104760Y-93562295D02*
X16104760Y-94248009D01*
X16104760Y-94248009D02*
X16066665Y-94324200D01*
X16066665Y-94324200D02*
X15990475Y-94362295D01*
X15990475Y-94362295D02*
X15914284Y-94362295D01*
X15533332Y-94362295D02*
X15609522Y-94324200D01*
X15609522Y-94324200D02*
X15647617Y-94286104D01*
X15647617Y-94286104D02*
X15685713Y-94209914D01*
X15685713Y-94209914D02*
X15685713Y-93981342D01*
X15685713Y-93981342D02*
X15647617Y-93905152D01*
X15647617Y-93905152D02*
X15609522Y-93867057D01*
X15609522Y-93867057D02*
X15533332Y-93828961D01*
X15533332Y-93828961D02*
X15419046Y-93828961D01*
X15419046Y-93828961D02*
X15342855Y-93867057D01*
X15342855Y-93867057D02*
X15304760Y-93905152D01*
X15304760Y-93905152D02*
X15266665Y-93981342D01*
X15266665Y-93981342D02*
X15266665Y-94209914D01*
X15266665Y-94209914D02*
X15304760Y-94286104D01*
X15304760Y-94286104D02*
X15342855Y-94324200D01*
X15342855Y-94324200D02*
X15419046Y-94362295D01*
X15419046Y-94362295D02*
X15533332Y-94362295D01*
X14923807Y-93828961D02*
X14923807Y-94362295D01*
X14923807Y-93905152D02*
X14885712Y-93867057D01*
X14885712Y-93867057D02*
X14809522Y-93828961D01*
X14809522Y-93828961D02*
X14695236Y-93828961D01*
X14695236Y-93828961D02*
X14619045Y-93867057D01*
X14619045Y-93867057D02*
X14580950Y-93943247D01*
X14580950Y-93943247D02*
X14580950Y-94362295D01*
X13628569Y-94324200D02*
X13552378Y-94362295D01*
X13552378Y-94362295D02*
X13399997Y-94362295D01*
X13399997Y-94362295D02*
X13323807Y-94324200D01*
X13323807Y-94324200D02*
X13285711Y-94248009D01*
X13285711Y-94248009D02*
X13285711Y-94209914D01*
X13285711Y-94209914D02*
X13323807Y-94133723D01*
X13323807Y-94133723D02*
X13399997Y-94095628D01*
X13399997Y-94095628D02*
X13514283Y-94095628D01*
X13514283Y-94095628D02*
X13590473Y-94057533D01*
X13590473Y-94057533D02*
X13628569Y-93981342D01*
X13628569Y-93981342D02*
X13628569Y-93943247D01*
X13628569Y-93943247D02*
X13590473Y-93867057D01*
X13590473Y-93867057D02*
X13514283Y-93828961D01*
X13514283Y-93828961D02*
X13399997Y-93828961D01*
X13399997Y-93828961D02*
X13323807Y-93867057D01*
X12638092Y-94324200D02*
X12714283Y-94362295D01*
X12714283Y-94362295D02*
X12866664Y-94362295D01*
X12866664Y-94362295D02*
X12942854Y-94324200D01*
X12942854Y-94324200D02*
X12980950Y-94248009D01*
X12980950Y-94248009D02*
X12980950Y-93943247D01*
X12980950Y-93943247D02*
X12942854Y-93867057D01*
X12942854Y-93867057D02*
X12866664Y-93828961D01*
X12866664Y-93828961D02*
X12714283Y-93828961D01*
X12714283Y-93828961D02*
X12638092Y-93867057D01*
X12638092Y-93867057D02*
X12599997Y-93943247D01*
X12599997Y-93943247D02*
X12599997Y-94019438D01*
X12599997Y-94019438D02*
X12980950Y-94095628D01*
X12257140Y-94362295D02*
X12257140Y-93828961D01*
X12257140Y-93981342D02*
X12219045Y-93905152D01*
X12219045Y-93905152D02*
X12180950Y-93867057D01*
X12180950Y-93867057D02*
X12104759Y-93828961D01*
X12104759Y-93828961D02*
X12028569Y-93828961D01*
X11838093Y-93828961D02*
X11647617Y-94362295D01*
X11647617Y-94362295D02*
X11457140Y-93828961D01*
X11152378Y-94362295D02*
X11152378Y-93828961D01*
X11152378Y-93562295D02*
X11190474Y-93600390D01*
X11190474Y-93600390D02*
X11152378Y-93638485D01*
X11152378Y-93638485D02*
X11114283Y-93600390D01*
X11114283Y-93600390D02*
X11152378Y-93562295D01*
X11152378Y-93562295D02*
X11152378Y-93638485D01*
X10428569Y-94324200D02*
X10504760Y-94362295D01*
X10504760Y-94362295D02*
X10657141Y-94362295D01*
X10657141Y-94362295D02*
X10733331Y-94324200D01*
X10733331Y-94324200D02*
X10771426Y-94286104D01*
X10771426Y-94286104D02*
X10809522Y-94209914D01*
X10809522Y-94209914D02*
X10809522Y-93981342D01*
X10809522Y-93981342D02*
X10771426Y-93905152D01*
X10771426Y-93905152D02*
X10733331Y-93867057D01*
X10733331Y-93867057D02*
X10657141Y-93828961D01*
X10657141Y-93828961D02*
X10504760Y-93828961D01*
X10504760Y-93828961D02*
X10428569Y-93867057D01*
X9780950Y-94324200D02*
X9857141Y-94362295D01*
X9857141Y-94362295D02*
X10009522Y-94362295D01*
X10009522Y-94362295D02*
X10085712Y-94324200D01*
X10085712Y-94324200D02*
X10123808Y-94248009D01*
X10123808Y-94248009D02*
X10123808Y-93943247D01*
X10123808Y-93943247D02*
X10085712Y-93867057D01*
X10085712Y-93867057D02*
X10009522Y-93828961D01*
X10009522Y-93828961D02*
X9857141Y-93828961D01*
X9857141Y-93828961D02*
X9780950Y-93867057D01*
X9780950Y-93867057D02*
X9742855Y-93943247D01*
X9742855Y-93943247D02*
X9742855Y-94019438D01*
X9742855Y-94019438D02*
X10123808Y-94095628D01*
X22842858Y-108408557D02*
X22842858Y-107808557D01*
X22842858Y-107894271D02*
X22800001Y-107851414D01*
X22800001Y-107851414D02*
X22714286Y-107808557D01*
X22714286Y-107808557D02*
X22585715Y-107808557D01*
X22585715Y-107808557D02*
X22500001Y-107851414D01*
X22500001Y-107851414D02*
X22457144Y-107937128D01*
X22457144Y-107937128D02*
X22457144Y-108408557D01*
X22457144Y-107937128D02*
X22414286Y-107851414D01*
X22414286Y-107851414D02*
X22328572Y-107808557D01*
X22328572Y-107808557D02*
X22200001Y-107808557D01*
X22200001Y-107808557D02*
X22114286Y-107851414D01*
X22114286Y-107851414D02*
X22071429Y-107937128D01*
X22071429Y-107937128D02*
X22071429Y-108408557D01*
X21514286Y-108408557D02*
X21600001Y-108365700D01*
X21600001Y-108365700D02*
X21642858Y-108322842D01*
X21642858Y-108322842D02*
X21685715Y-108237128D01*
X21685715Y-108237128D02*
X21685715Y-107979985D01*
X21685715Y-107979985D02*
X21642858Y-107894271D01*
X21642858Y-107894271D02*
X21600001Y-107851414D01*
X21600001Y-107851414D02*
X21514286Y-107808557D01*
X21514286Y-107808557D02*
X21385715Y-107808557D01*
X21385715Y-107808557D02*
X21300001Y-107851414D01*
X21300001Y-107851414D02*
X21257144Y-107894271D01*
X21257144Y-107894271D02*
X21214286Y-107979985D01*
X21214286Y-107979985D02*
X21214286Y-108237128D01*
X21214286Y-108237128D02*
X21257144Y-108322842D01*
X21257144Y-108322842D02*
X21300001Y-108365700D01*
X21300001Y-108365700D02*
X21385715Y-108408557D01*
X21385715Y-108408557D02*
X21514286Y-108408557D01*
X20442858Y-108408557D02*
X20442858Y-107508557D01*
X20442858Y-108365700D02*
X20528572Y-108408557D01*
X20528572Y-108408557D02*
X20700000Y-108408557D01*
X20700000Y-108408557D02*
X20785715Y-108365700D01*
X20785715Y-108365700D02*
X20828572Y-108322842D01*
X20828572Y-108322842D02*
X20871429Y-108237128D01*
X20871429Y-108237128D02*
X20871429Y-107979985D01*
X20871429Y-107979985D02*
X20828572Y-107894271D01*
X20828572Y-107894271D02*
X20785715Y-107851414D01*
X20785715Y-107851414D02*
X20700000Y-107808557D01*
X20700000Y-107808557D02*
X20528572Y-107808557D01*
X20528572Y-107808557D02*
X20442858Y-107851414D01*
X19671429Y-108365700D02*
X19757143Y-108408557D01*
X19757143Y-108408557D02*
X19928572Y-108408557D01*
X19928572Y-108408557D02*
X20014286Y-108365700D01*
X20014286Y-108365700D02*
X20057143Y-108279985D01*
X20057143Y-108279985D02*
X20057143Y-107937128D01*
X20057143Y-107937128D02*
X20014286Y-107851414D01*
X20014286Y-107851414D02*
X19928572Y-107808557D01*
X19928572Y-107808557D02*
X19757143Y-107808557D01*
X19757143Y-107808557D02*
X19671429Y-107851414D01*
X19671429Y-107851414D02*
X19628572Y-107937128D01*
X19628572Y-107937128D02*
X19628572Y-108022842D01*
X19628572Y-108022842D02*
X20057143Y-108108557D01*
X19242857Y-108408557D02*
X19242857Y-107808557D01*
X19242857Y-107979985D02*
X19200000Y-107894271D01*
X19200000Y-107894271D02*
X19157143Y-107851414D01*
X19157143Y-107851414D02*
X19071428Y-107808557D01*
X19071428Y-107808557D02*
X18985714Y-107808557D01*
X18685714Y-107808557D02*
X18685714Y-108408557D01*
X18685714Y-107894271D02*
X18642857Y-107851414D01*
X18642857Y-107851414D02*
X18557142Y-107808557D01*
X18557142Y-107808557D02*
X18428571Y-107808557D01*
X18428571Y-107808557D02*
X18342857Y-107851414D01*
X18342857Y-107851414D02*
X18300000Y-107937128D01*
X18300000Y-107937128D02*
X18300000Y-108408557D01*
X17871428Y-108408557D02*
X17871428Y-107808557D01*
X17871428Y-107508557D02*
X17914285Y-107551414D01*
X17914285Y-107551414D02*
X17871428Y-107594271D01*
X17871428Y-107594271D02*
X17828571Y-107551414D01*
X17828571Y-107551414D02*
X17871428Y-107508557D01*
X17871428Y-107508557D02*
X17871428Y-107594271D01*
X17528571Y-107808557D02*
X17057143Y-107808557D01*
X17057143Y-107808557D02*
X17528571Y-108408557D01*
X17528571Y-108408557D02*
X17057143Y-108408557D01*
X16371429Y-108365700D02*
X16457143Y-108408557D01*
X16457143Y-108408557D02*
X16628572Y-108408557D01*
X16628572Y-108408557D02*
X16714286Y-108365700D01*
X16714286Y-108365700D02*
X16757143Y-108279985D01*
X16757143Y-108279985D02*
X16757143Y-107937128D01*
X16757143Y-107937128D02*
X16714286Y-107851414D01*
X16714286Y-107851414D02*
X16628572Y-107808557D01*
X16628572Y-107808557D02*
X16457143Y-107808557D01*
X16457143Y-107808557D02*
X16371429Y-107851414D01*
X16371429Y-107851414D02*
X16328572Y-107937128D01*
X16328572Y-107937128D02*
X16328572Y-108022842D01*
X16328572Y-108022842D02*
X16757143Y-108108557D01*
X15557143Y-108408557D02*
X15557143Y-107508557D01*
X15557143Y-108365700D02*
X15642857Y-108408557D01*
X15642857Y-108408557D02*
X15814285Y-108408557D01*
X15814285Y-108408557D02*
X15900000Y-108365700D01*
X15900000Y-108365700D02*
X15942857Y-108322842D01*
X15942857Y-108322842D02*
X15985714Y-108237128D01*
X15985714Y-108237128D02*
X15985714Y-107979985D01*
X15985714Y-107979985D02*
X15942857Y-107894271D01*
X15942857Y-107894271D02*
X15900000Y-107851414D01*
X15900000Y-107851414D02*
X15814285Y-107808557D01*
X15814285Y-107808557D02*
X15642857Y-107808557D01*
X15642857Y-107808557D02*
X15557143Y-107851414D01*
X14485714Y-108365700D02*
X14400000Y-108408557D01*
X14400000Y-108408557D02*
X14228571Y-108408557D01*
X14228571Y-108408557D02*
X14142857Y-108365700D01*
X14142857Y-108365700D02*
X14100000Y-108279985D01*
X14100000Y-108279985D02*
X14100000Y-108237128D01*
X14100000Y-108237128D02*
X14142857Y-108151414D01*
X14142857Y-108151414D02*
X14228571Y-108108557D01*
X14228571Y-108108557D02*
X14357143Y-108108557D01*
X14357143Y-108108557D02*
X14442857Y-108065700D01*
X14442857Y-108065700D02*
X14485714Y-107979985D01*
X14485714Y-107979985D02*
X14485714Y-107937128D01*
X14485714Y-107937128D02*
X14442857Y-107851414D01*
X14442857Y-107851414D02*
X14357143Y-107808557D01*
X14357143Y-107808557D02*
X14228571Y-107808557D01*
X14228571Y-107808557D02*
X14142857Y-107851414D01*
X13842857Y-107808557D02*
X13500000Y-107808557D01*
X13714286Y-107508557D02*
X13714286Y-108279985D01*
X13714286Y-108279985D02*
X13671429Y-108365700D01*
X13671429Y-108365700D02*
X13585714Y-108408557D01*
X13585714Y-108408557D02*
X13500000Y-108408557D01*
X12857143Y-108365700D02*
X12942857Y-108408557D01*
X12942857Y-108408557D02*
X13114286Y-108408557D01*
X13114286Y-108408557D02*
X13200000Y-108365700D01*
X13200000Y-108365700D02*
X13242857Y-108279985D01*
X13242857Y-108279985D02*
X13242857Y-107937128D01*
X13242857Y-107937128D02*
X13200000Y-107851414D01*
X13200000Y-107851414D02*
X13114286Y-107808557D01*
X13114286Y-107808557D02*
X12942857Y-107808557D01*
X12942857Y-107808557D02*
X12857143Y-107851414D01*
X12857143Y-107851414D02*
X12814286Y-107937128D01*
X12814286Y-107937128D02*
X12814286Y-108022842D01*
X12814286Y-108022842D02*
X13242857Y-108108557D01*
X12428571Y-108408557D02*
X12428571Y-107808557D01*
X12428571Y-107894271D02*
X12385714Y-107851414D01*
X12385714Y-107851414D02*
X12299999Y-107808557D01*
X12299999Y-107808557D02*
X12171428Y-107808557D01*
X12171428Y-107808557D02*
X12085714Y-107851414D01*
X12085714Y-107851414D02*
X12042857Y-107937128D01*
X12042857Y-107937128D02*
X12042857Y-108408557D01*
X12042857Y-107937128D02*
X11999999Y-107851414D01*
X11999999Y-107851414D02*
X11914285Y-107808557D01*
X11914285Y-107808557D02*
X11785714Y-107808557D01*
X11785714Y-107808557D02*
X11699999Y-107851414D01*
X11699999Y-107851414D02*
X11657142Y-107937128D01*
X11657142Y-107937128D02*
X11657142Y-108408557D01*
X10542857Y-108408557D02*
X10542857Y-107508557D01*
X10542857Y-107851414D02*
X10457143Y-107808557D01*
X10457143Y-107808557D02*
X10285714Y-107808557D01*
X10285714Y-107808557D02*
X10200000Y-107851414D01*
X10200000Y-107851414D02*
X10157143Y-107894271D01*
X10157143Y-107894271D02*
X10114285Y-107979985D01*
X10114285Y-107979985D02*
X10114285Y-108237128D01*
X10114285Y-108237128D02*
X10157143Y-108322842D01*
X10157143Y-108322842D02*
X10200000Y-108365700D01*
X10200000Y-108365700D02*
X10285714Y-108408557D01*
X10285714Y-108408557D02*
X10457143Y-108408557D01*
X10457143Y-108408557D02*
X10542857Y-108365700D01*
X9599999Y-108408557D02*
X9685714Y-108365700D01*
X9685714Y-108365700D02*
X9728571Y-108322842D01*
X9728571Y-108322842D02*
X9771428Y-108237128D01*
X9771428Y-108237128D02*
X9771428Y-107979985D01*
X9771428Y-107979985D02*
X9728571Y-107894271D01*
X9728571Y-107894271D02*
X9685714Y-107851414D01*
X9685714Y-107851414D02*
X9599999Y-107808557D01*
X9599999Y-107808557D02*
X9471428Y-107808557D01*
X9471428Y-107808557D02*
X9385714Y-107851414D01*
X9385714Y-107851414D02*
X9342857Y-107894271D01*
X9342857Y-107894271D02*
X9299999Y-107979985D01*
X9299999Y-107979985D02*
X9299999Y-108237128D01*
X9299999Y-108237128D02*
X9342857Y-108322842D01*
X9342857Y-108322842D02*
X9385714Y-108365700D01*
X9385714Y-108365700D02*
X9471428Y-108408557D01*
X9471428Y-108408557D02*
X9599999Y-108408557D01*
X8528571Y-108408557D02*
X8528571Y-107937128D01*
X8528571Y-107937128D02*
X8571428Y-107851414D01*
X8571428Y-107851414D02*
X8657142Y-107808557D01*
X8657142Y-107808557D02*
X8828571Y-107808557D01*
X8828571Y-107808557D02*
X8914285Y-107851414D01*
X8528571Y-108365700D02*
X8614285Y-108408557D01*
X8614285Y-108408557D02*
X8828571Y-108408557D01*
X8828571Y-108408557D02*
X8914285Y-108365700D01*
X8914285Y-108365700D02*
X8957142Y-108279985D01*
X8957142Y-108279985D02*
X8957142Y-108194271D01*
X8957142Y-108194271D02*
X8914285Y-108108557D01*
X8914285Y-108108557D02*
X8828571Y-108065700D01*
X8828571Y-108065700D02*
X8614285Y-108065700D01*
X8614285Y-108065700D02*
X8528571Y-108022842D01*
X8099999Y-108408557D02*
X8099999Y-107808557D01*
X8099999Y-107979985D02*
X8057142Y-107894271D01*
X8057142Y-107894271D02*
X8014285Y-107851414D01*
X8014285Y-107851414D02*
X7928570Y-107808557D01*
X7928570Y-107808557D02*
X7842856Y-107808557D01*
X7157142Y-108408557D02*
X7157142Y-107508557D01*
X7157142Y-108365700D02*
X7242856Y-108408557D01*
X7242856Y-108408557D02*
X7414284Y-108408557D01*
X7414284Y-108408557D02*
X7499999Y-108365700D01*
X7499999Y-108365700D02*
X7542856Y-108322842D01*
X7542856Y-108322842D02*
X7585713Y-108237128D01*
X7585713Y-108237128D02*
X7585713Y-107979985D01*
X7585713Y-107979985D02*
X7542856Y-107894271D01*
X7542856Y-107894271D02*
X7499999Y-107851414D01*
X7499999Y-107851414D02*
X7414284Y-107808557D01*
X7414284Y-107808557D02*
X7242856Y-107808557D01*
X7242856Y-107808557D02*
X7157142Y-107851414D01*
X18542857Y-365828961D02*
X18238095Y-365828961D01*
X18428571Y-366362295D02*
X18428571Y-365676580D01*
X18428571Y-365676580D02*
X18390476Y-365600390D01*
X18390476Y-365600390D02*
X18314286Y-365562295D01*
X18314286Y-365562295D02*
X18238095Y-365562295D01*
X17971428Y-366362295D02*
X17971428Y-365828961D01*
X17971428Y-365981342D02*
X17933333Y-365905152D01*
X17933333Y-365905152D02*
X17895238Y-365867057D01*
X17895238Y-365867057D02*
X17819047Y-365828961D01*
X17819047Y-365828961D02*
X17742857Y-365828961D01*
X17361905Y-366362295D02*
X17438095Y-366324200D01*
X17438095Y-366324200D02*
X17476190Y-366286104D01*
X17476190Y-366286104D02*
X17514286Y-366209914D01*
X17514286Y-366209914D02*
X17514286Y-365981342D01*
X17514286Y-365981342D02*
X17476190Y-365905152D01*
X17476190Y-365905152D02*
X17438095Y-365867057D01*
X17438095Y-365867057D02*
X17361905Y-365828961D01*
X17361905Y-365828961D02*
X17247619Y-365828961D01*
X17247619Y-365828961D02*
X17171428Y-365867057D01*
X17171428Y-365867057D02*
X17133333Y-365905152D01*
X17133333Y-365905152D02*
X17095238Y-365981342D01*
X17095238Y-365981342D02*
X17095238Y-366209914D01*
X17095238Y-366209914D02*
X17133333Y-366286104D01*
X17133333Y-366286104D02*
X17171428Y-366324200D01*
X17171428Y-366324200D02*
X17247619Y-366362295D01*
X17247619Y-366362295D02*
X17361905Y-366362295D01*
X16752380Y-365828961D02*
X16752380Y-366362295D01*
X16752380Y-365905152D02*
X16714285Y-365867057D01*
X16714285Y-365867057D02*
X16638095Y-365828961D01*
X16638095Y-365828961D02*
X16523809Y-365828961D01*
X16523809Y-365828961D02*
X16447618Y-365867057D01*
X16447618Y-365867057D02*
X16409523Y-365943247D01*
X16409523Y-365943247D02*
X16409523Y-366362295D01*
X16142856Y-365828961D02*
X15838094Y-365828961D01*
X16028570Y-365562295D02*
X16028570Y-366248009D01*
X16028570Y-366248009D02*
X15990475Y-366324200D01*
X15990475Y-366324200D02*
X15914285Y-366362295D01*
X15914285Y-366362295D02*
X15838094Y-366362295D01*
X14961903Y-366362295D02*
X14961903Y-365828961D01*
X14961903Y-365905152D02*
X14923808Y-365867057D01*
X14923808Y-365867057D02*
X14847618Y-365828961D01*
X14847618Y-365828961D02*
X14733332Y-365828961D01*
X14733332Y-365828961D02*
X14657141Y-365867057D01*
X14657141Y-365867057D02*
X14619046Y-365943247D01*
X14619046Y-365943247D02*
X14619046Y-366362295D01*
X14619046Y-365943247D02*
X14580951Y-365867057D01*
X14580951Y-365867057D02*
X14504760Y-365828961D01*
X14504760Y-365828961D02*
X14390475Y-365828961D01*
X14390475Y-365828961D02*
X14314284Y-365867057D01*
X14314284Y-365867057D02*
X14276189Y-365943247D01*
X14276189Y-365943247D02*
X14276189Y-366362295D01*
X13552379Y-366362295D02*
X13552379Y-365943247D01*
X13552379Y-365943247D02*
X13590474Y-365867057D01*
X13590474Y-365867057D02*
X13666665Y-365828961D01*
X13666665Y-365828961D02*
X13819046Y-365828961D01*
X13819046Y-365828961D02*
X13895236Y-365867057D01*
X13552379Y-366324200D02*
X13628570Y-366362295D01*
X13628570Y-366362295D02*
X13819046Y-366362295D01*
X13819046Y-366362295D02*
X13895236Y-366324200D01*
X13895236Y-366324200D02*
X13933332Y-366248009D01*
X13933332Y-366248009D02*
X13933332Y-366171819D01*
X13933332Y-366171819D02*
X13895236Y-366095628D01*
X13895236Y-366095628D02*
X13819046Y-366057533D01*
X13819046Y-366057533D02*
X13628570Y-366057533D01*
X13628570Y-366057533D02*
X13552379Y-366019438D01*
X13285712Y-365828961D02*
X12980950Y-365828961D01*
X13171426Y-365562295D02*
X13171426Y-366248009D01*
X13171426Y-366248009D02*
X13133331Y-366324200D01*
X13133331Y-366324200D02*
X13057141Y-366362295D01*
X13057141Y-366362295D02*
X12980950Y-366362295D01*
X12714283Y-366362295D02*
X12714283Y-365828961D01*
X12714283Y-365981342D02*
X12676188Y-365905152D01*
X12676188Y-365905152D02*
X12638093Y-365867057D01*
X12638093Y-365867057D02*
X12561902Y-365828961D01*
X12561902Y-365828961D02*
X12485712Y-365828961D01*
X12219045Y-366362295D02*
X12219045Y-365828961D01*
X12219045Y-365562295D02*
X12257141Y-365600390D01*
X12257141Y-365600390D02*
X12219045Y-365638485D01*
X12219045Y-365638485D02*
X12180950Y-365600390D01*
X12180950Y-365600390D02*
X12219045Y-365562295D01*
X12219045Y-365562295D02*
X12219045Y-365638485D01*
X11914284Y-366362295D02*
X11495236Y-365828961D01*
X11914284Y-365828961D02*
X11495236Y-366362295D01*
%LPC*%
D11*
%TO.C,J1*%
X10000000Y-12000000D03*
X20000000Y-12000000D03*
%TD*%
D12*
%TO.C,C3*%
X6800000Y-343775000D03*
X6800000Y-342225000D03*
%TD*%
D13*
%TO.C,C4*%
X23200000Y-343950000D03*
X23200000Y-342050000D03*
%TD*%
D12*
%TO.C,C8*%
X18000000Y-324775000D03*
X18000000Y-323225000D03*
%TD*%
D14*
%TO.C,D129*%
X4850000Y-416700000D03*
X4850000Y-415300000D03*
%TD*%
%TO.C,D130*%
X7750000Y-416700000D03*
X7750000Y-415300000D03*
%TD*%
%TO.C,D131*%
X10650000Y-416700000D03*
X10650000Y-415300000D03*
%TD*%
%TO.C,D132*%
X13550000Y-416700000D03*
X13550000Y-415300000D03*
%TD*%
%TO.C,D133*%
X16450000Y-416700000D03*
X16450000Y-415300000D03*
%TD*%
%TO.C,D134*%
X19350000Y-416700000D03*
X19350000Y-415300000D03*
%TD*%
%TO.C,D135*%
X22250000Y-416700000D03*
X22250000Y-415300000D03*
%TD*%
%TO.C,D136*%
X25150000Y-416700000D03*
X25150000Y-415300000D03*
%TD*%
%TO.C,D137*%
X4850000Y-413800000D03*
X4850000Y-412400000D03*
%TD*%
%TO.C,D138*%
X7750000Y-413800000D03*
X7750000Y-412400000D03*
%TD*%
%TO.C,D139*%
X10650000Y-413800000D03*
X10650000Y-412400000D03*
%TD*%
%TO.C,D140*%
X13550000Y-413800000D03*
X13550000Y-412400000D03*
%TD*%
%TO.C,D141*%
X16450000Y-413800000D03*
X16450000Y-412400000D03*
%TD*%
%TO.C,D142*%
X19350000Y-413800000D03*
X19350000Y-412400000D03*
%TD*%
%TO.C,D143*%
X22250000Y-413800000D03*
X22250000Y-412400000D03*
%TD*%
%TO.C,D144*%
X25150000Y-413800000D03*
X25150000Y-412400000D03*
%TD*%
%TO.C,D145*%
X4850000Y-410900000D03*
X4850000Y-409500000D03*
%TD*%
%TO.C,D146*%
X7750000Y-410900000D03*
X7750000Y-409500000D03*
%TD*%
%TO.C,D147*%
X10650000Y-410900000D03*
X10650000Y-409500000D03*
%TD*%
%TO.C,D148*%
X13550000Y-410900000D03*
X13550000Y-409500000D03*
%TD*%
%TO.C,D149*%
X16450000Y-410900000D03*
X16450000Y-409500000D03*
%TD*%
%TO.C,D150*%
X19350000Y-410900000D03*
X19350000Y-409500000D03*
%TD*%
%TO.C,D151*%
X22250000Y-410900000D03*
X22250000Y-409500000D03*
%TD*%
%TO.C,D152*%
X25150000Y-410900000D03*
X25150000Y-409500000D03*
%TD*%
%TO.C,D153*%
X4850000Y-408000000D03*
X4850000Y-406600000D03*
%TD*%
%TO.C,D154*%
X7750000Y-408000000D03*
X7750000Y-406600000D03*
%TD*%
%TO.C,D155*%
X10650000Y-408000000D03*
X10650000Y-406600000D03*
%TD*%
%TO.C,D156*%
X13550000Y-408000000D03*
X13550000Y-406600000D03*
%TD*%
%TO.C,D157*%
X16450000Y-408000000D03*
X16450000Y-406600000D03*
%TD*%
%TO.C,D158*%
X19350000Y-408000000D03*
X19350000Y-406600000D03*
%TD*%
%TO.C,D159*%
X22250000Y-408000000D03*
X22250000Y-406600000D03*
%TD*%
%TO.C,D160*%
X25150000Y-408000000D03*
X25150000Y-406600000D03*
%TD*%
%TO.C,D161*%
X4850000Y-405100000D03*
X4850000Y-403700000D03*
%TD*%
%TO.C,D162*%
X7750000Y-405100000D03*
X7750000Y-403700000D03*
%TD*%
%TO.C,D163*%
X10650000Y-405100000D03*
X10650000Y-403700000D03*
%TD*%
%TO.C,D164*%
X13550000Y-405100000D03*
X13550000Y-403700000D03*
%TD*%
%TO.C,D165*%
X16450000Y-405100000D03*
X16450000Y-403700000D03*
%TD*%
%TO.C,D166*%
X19350000Y-405100000D03*
X19350000Y-403700000D03*
%TD*%
%TO.C,D167*%
X22250000Y-405100000D03*
X22250000Y-403700000D03*
%TD*%
%TO.C,D168*%
X25150000Y-405100000D03*
X25150000Y-403700000D03*
%TD*%
%TO.C,D169*%
X4850000Y-402200000D03*
X4850000Y-400800000D03*
%TD*%
%TO.C,D170*%
X7750000Y-402200000D03*
X7750000Y-400800000D03*
%TD*%
%TO.C,D171*%
X10650000Y-402200000D03*
X10650000Y-400800000D03*
%TD*%
%TO.C,D172*%
X13550000Y-402200000D03*
X13550000Y-400800000D03*
%TD*%
%TO.C,D173*%
X16450000Y-402200000D03*
X16450000Y-400800000D03*
%TD*%
%TO.C,D174*%
X19350000Y-402200000D03*
X19350000Y-400800000D03*
%TD*%
%TO.C,D175*%
X22250000Y-402200000D03*
X22250000Y-400800000D03*
%TD*%
%TO.C,D176*%
X25150000Y-402200000D03*
X25150000Y-400800000D03*
%TD*%
%TO.C,D177*%
X4850000Y-399300000D03*
X4850000Y-397900000D03*
%TD*%
%TO.C,D178*%
X7750000Y-399300000D03*
X7750000Y-397900000D03*
%TD*%
%TO.C,D179*%
X10650000Y-399300000D03*
X10650000Y-397900000D03*
%TD*%
%TO.C,D180*%
X13550000Y-399300000D03*
X13550000Y-397900000D03*
%TD*%
%TO.C,D181*%
X16450000Y-399300000D03*
X16450000Y-397900000D03*
%TD*%
%TO.C,D182*%
X19350000Y-399300000D03*
X19350000Y-397900000D03*
%TD*%
%TO.C,D183*%
X22250000Y-399300000D03*
X22250000Y-397900000D03*
%TD*%
%TO.C,D184*%
X25150000Y-399300000D03*
X25150000Y-397900000D03*
%TD*%
%TO.C,D185*%
X4850000Y-396400000D03*
X4850000Y-395000000D03*
%TD*%
%TO.C,D186*%
X7750000Y-396400000D03*
X7750000Y-395000000D03*
%TD*%
%TO.C,D187*%
X10650000Y-396400000D03*
X10650000Y-395000000D03*
%TD*%
%TO.C,D188*%
X13550000Y-396400000D03*
X13550000Y-395000000D03*
%TD*%
%TO.C,D189*%
X16450000Y-396400000D03*
X16450000Y-395000000D03*
%TD*%
%TO.C,D190*%
X19350000Y-396400000D03*
X19350000Y-395000000D03*
%TD*%
%TO.C,D191*%
X22250000Y-396400000D03*
X22250000Y-395000000D03*
%TD*%
%TO.C,D192*%
X25150000Y-396400000D03*
X25150000Y-395000000D03*
%TD*%
%TO.C,D193*%
X4850000Y-393500000D03*
X4850000Y-392100000D03*
%TD*%
%TO.C,D194*%
X7750000Y-393500000D03*
X7750000Y-392100000D03*
%TD*%
%TO.C,D195*%
X10650000Y-393500000D03*
X10650000Y-392100000D03*
%TD*%
%TO.C,D196*%
X13550000Y-393500000D03*
X13550000Y-392100000D03*
%TD*%
%TO.C,D197*%
X16450000Y-393500000D03*
X16450000Y-392100000D03*
%TD*%
%TO.C,D198*%
X19350000Y-393500000D03*
X19350000Y-392100000D03*
%TD*%
%TO.C,D199*%
X22250000Y-393500000D03*
X22250000Y-392100000D03*
%TD*%
%TO.C,D200*%
X25150000Y-393500000D03*
X25150000Y-392100000D03*
%TD*%
%TO.C,D201*%
X4850000Y-390600000D03*
X4850000Y-389200000D03*
%TD*%
%TO.C,D202*%
X7750000Y-390600000D03*
X7750000Y-389200000D03*
%TD*%
%TO.C,D203*%
X10650000Y-390600000D03*
X10650000Y-389200000D03*
%TD*%
%TO.C,D204*%
X13550000Y-390600000D03*
X13550000Y-389200000D03*
%TD*%
%TO.C,D205*%
X16450000Y-390600000D03*
X16450000Y-389200000D03*
%TD*%
%TO.C,D206*%
X19350000Y-390600000D03*
X19350000Y-389200000D03*
%TD*%
%TO.C,D207*%
X22250000Y-390600000D03*
X22250000Y-389200000D03*
%TD*%
%TO.C,D208*%
X25150000Y-390600000D03*
X25150000Y-389200000D03*
%TD*%
%TO.C,D209*%
X4850000Y-387700000D03*
X4850000Y-386300000D03*
%TD*%
%TO.C,D210*%
X7750000Y-387700000D03*
X7750000Y-386300000D03*
%TD*%
%TO.C,D211*%
X10650000Y-387700000D03*
X10650000Y-386300000D03*
%TD*%
%TO.C,D212*%
X13550000Y-387700000D03*
X13550000Y-386300000D03*
%TD*%
%TO.C,D213*%
X16450000Y-387700000D03*
X16450000Y-386300000D03*
%TD*%
%TO.C,D214*%
X19350000Y-387700000D03*
X19350000Y-386300000D03*
%TD*%
%TO.C,D215*%
X22250000Y-387700000D03*
X22250000Y-386300000D03*
%TD*%
%TO.C,D216*%
X25150000Y-387700000D03*
X25150000Y-386300000D03*
%TD*%
%TO.C,D217*%
X4850000Y-384800000D03*
X4850000Y-383400000D03*
%TD*%
%TO.C,D218*%
X7750000Y-384800000D03*
X7750000Y-383400000D03*
%TD*%
%TO.C,D219*%
X10650000Y-384800000D03*
X10650000Y-383400000D03*
%TD*%
%TO.C,D220*%
X13550000Y-384800000D03*
X13550000Y-383400000D03*
%TD*%
%TO.C,D221*%
X16450000Y-384800000D03*
X16450000Y-383400000D03*
%TD*%
%TO.C,D222*%
X19350000Y-384800000D03*
X19350000Y-383400000D03*
%TD*%
%TO.C,D223*%
X22250000Y-384800000D03*
X22250000Y-383400000D03*
%TD*%
%TO.C,D224*%
X25150000Y-384800000D03*
X25150000Y-383400000D03*
%TD*%
%TO.C,D225*%
X4850000Y-381900000D03*
X4850000Y-380500000D03*
%TD*%
%TO.C,D226*%
X7750000Y-381900000D03*
X7750000Y-380500000D03*
%TD*%
%TO.C,D227*%
X10650000Y-381900000D03*
X10650000Y-380500000D03*
%TD*%
%TO.C,D228*%
X13550000Y-381900000D03*
X13550000Y-380500000D03*
%TD*%
%TO.C,D229*%
X16450000Y-381900000D03*
X16450000Y-380500000D03*
%TD*%
%TO.C,D230*%
X19350000Y-381900000D03*
X19350000Y-380500000D03*
%TD*%
%TO.C,D231*%
X22250000Y-381900000D03*
X22250000Y-380500000D03*
%TD*%
%TO.C,D232*%
X25150000Y-381900000D03*
X25150000Y-380500000D03*
%TD*%
%TO.C,D233*%
X4850000Y-379000000D03*
X4850000Y-377600000D03*
%TD*%
%TO.C,D234*%
X7750000Y-379000000D03*
X7750000Y-377600000D03*
%TD*%
%TO.C,D235*%
X10650000Y-379000000D03*
X10650000Y-377600000D03*
%TD*%
%TO.C,D236*%
X13550000Y-379000000D03*
X13550000Y-377600000D03*
%TD*%
%TO.C,D237*%
X16450000Y-379000000D03*
X16450000Y-377600000D03*
%TD*%
%TO.C,D238*%
X19350000Y-379000000D03*
X19350000Y-377600000D03*
%TD*%
%TO.C,D239*%
X22250000Y-379000000D03*
X22250000Y-377600000D03*
%TD*%
%TO.C,D240*%
X25150000Y-379000000D03*
X25150000Y-377600000D03*
%TD*%
%TO.C,D241*%
X4850000Y-376100000D03*
X4850000Y-374700000D03*
%TD*%
%TO.C,D242*%
X7750000Y-376100000D03*
X7750000Y-374700000D03*
%TD*%
%TO.C,D243*%
X10650000Y-376100000D03*
X10650000Y-374700000D03*
%TD*%
%TO.C,D244*%
X13550000Y-376100000D03*
X13550000Y-374700000D03*
%TD*%
%TO.C,D245*%
X16450000Y-376100000D03*
X16450000Y-374700000D03*
%TD*%
%TO.C,D246*%
X19350000Y-376100000D03*
X19350000Y-374700000D03*
%TD*%
%TO.C,D247*%
X22250000Y-376100000D03*
X22250000Y-374700000D03*
%TD*%
%TO.C,D248*%
X25150000Y-376100000D03*
X25150000Y-374700000D03*
%TD*%
%TO.C,D249*%
X4850000Y-373200000D03*
X4850000Y-371800000D03*
%TD*%
%TO.C,D250*%
X7750000Y-373200000D03*
X7750000Y-371800000D03*
%TD*%
%TO.C,D251*%
X10650000Y-373200000D03*
X10650000Y-371800000D03*
%TD*%
%TO.C,D252*%
X13550000Y-373200000D03*
X13550000Y-371800000D03*
%TD*%
%TO.C,D253*%
X16450000Y-373200000D03*
X16450000Y-371800000D03*
%TD*%
%TO.C,D254*%
X19350000Y-373200000D03*
X19350000Y-371800000D03*
%TD*%
%TO.C,D255*%
X22250000Y-373200000D03*
X22250000Y-371800000D03*
%TD*%
%TO.C,D256*%
X25150000Y-373200000D03*
X25150000Y-371800000D03*
%TD*%
D15*
%TO.C,R2*%
X6800000Y-323825000D03*
X6800000Y-322175000D03*
%TD*%
D16*
%TO.C,U3*%
X13062500Y-329200000D03*
X13062500Y-328800000D03*
X13062500Y-328400000D03*
X13062500Y-328000000D03*
X13062500Y-327600000D03*
X13062500Y-327200000D03*
X13062500Y-326800000D03*
D17*
X13800000Y-326062500D03*
X14200000Y-326062500D03*
X14600000Y-326062500D03*
X15000000Y-326062500D03*
X15400000Y-326062500D03*
X15800000Y-326062500D03*
X16200000Y-326062500D03*
D16*
X16937500Y-326800000D03*
X16937500Y-327200000D03*
X16937500Y-327600000D03*
X16937500Y-328000000D03*
X16937500Y-328400000D03*
X16937500Y-328800000D03*
X16937500Y-329200000D03*
D17*
X16200000Y-329937500D03*
X15800000Y-329937500D03*
X15400000Y-329937500D03*
X15000000Y-329937500D03*
X14600000Y-329937500D03*
X14200000Y-329937500D03*
X13800000Y-329937500D03*
D18*
X15000000Y-328000000D03*
%TD*%
%LPD*%
M02*
