M48
; DRILL file KiCad 10.0.0 date 2026-04-29T20:53:33
; FORMAT={-:-/ absolute / metric / decimal}
; #@! TF.CreationDate,2026-04-29T20:53:33+08:00
; #@! TF.GenerationSoftware,Kicad,Pcbnew,10.0.0
; #@! TF.FileFunction,Plated,1,2,Blind
FMAT,2
METRIC
; #@! TA.AperFunction,Plated,Buried,ViaDrill
T1C0.075
%
G90
G05
T1
X4.0Y-317.0
X4.0Y-327.2
X4.8Y-395.6
X4.8Y-398.5
X4.8Y-401.4
X4.8Y-404.3
X4.8Y-407.2
X4.8Y-410.1
X4.8Y-413.0
X4.8Y-416.7
X5.3Y-339.25
X5.3Y-372.4
X5.3Y-375.3
X5.3Y-378.2
X5.3Y-381.1
X5.3Y-384.0
X5.3Y-386.9
X5.3Y-389.8
X5.3Y-393.5
X6.3Y-395.6
X6.3Y-398.5
X6.3Y-401.4
X6.3Y-404.3
X6.3Y-407.2
X6.3Y-410.1
X6.3Y-413.8
X6.3Y-415.9
X6.8Y-339.7
X6.8Y-372.4
X6.8Y-375.3
X6.8Y-378.2
X6.8Y-381.1
X6.8Y-384.0
X6.8Y-386.9
X6.8Y-390.6
X6.8Y-392.7
X9.25Y-395.6
X9.25Y-398.5
X9.25Y-401.4
X9.25Y-404.3
X9.25Y-407.2
X9.25Y-410.9
X9.25Y-413.0
X9.25Y-415.9
X9.75Y-340.15
X9.75Y-372.4
X9.75Y-375.3
X9.75Y-378.2
X9.75Y-381.1
X9.75Y-384.0
X9.75Y-387.7
X9.75Y-389.8
X9.75Y-392.7
X10.3Y-323.825
X10.3Y-329.3
X12.0Y-237.2
X12.15Y-395.6
X12.15Y-398.5
X12.15Y-401.4
X12.15Y-404.3
X12.15Y-408.0
X12.15Y-410.1
X12.15Y-413.0
X12.15Y-415.9
X12.65Y-340.6
X12.65Y-372.4
X12.65Y-375.3
X12.65Y-378.2
X12.65Y-381.1
X12.65Y-384.8
X12.65Y-386.9
X12.65Y-389.8
X12.65Y-392.7
X13.4Y-239.0
X13.692Y-236.742
X14.257Y-237.308
X15.0Y-321.6
X15.0Y-395.6
X15.0Y-398.5
X15.0Y-401.4
X15.0Y-405.1
X15.0Y-407.2
X15.0Y-410.1
X15.0Y-413.0
X15.0Y-415.9
X15.4Y-320.7
X15.4Y-321.15
X15.5Y-338.8
X15.5Y-372.4
X15.5Y-375.3
X15.5Y-378.2
X15.5Y-381.9
X15.5Y-384.0
X15.5Y-386.9
X15.5Y-389.8
X15.5Y-392.7
X16.2Y-320.25
X16.938Y-319.8
X17.9Y-319.35
X17.9Y-395.6
X17.9Y-398.5
X17.9Y-402.2
X17.9Y-404.3
X17.9Y-407.2
X17.9Y-410.1
X17.9Y-413.0
X17.9Y-415.9
X18.4Y-338.35
X18.4Y-372.4
X18.4Y-375.3
X18.4Y-379.0
X18.4Y-381.1
X18.4Y-384.0
X18.4Y-386.9
X18.4Y-389.8
X18.4Y-392.7
X19.0Y-322.2
X19.5Y-327.6
X20.8Y-318.9
X20.8Y-395.6
X20.8Y-399.3
X20.8Y-401.4
X20.8Y-404.3
X20.8Y-407.2
X20.8Y-410.1
X20.8Y-413.0
X20.8Y-415.9
X21.3Y-337.9
X21.3Y-372.4
X21.3Y-376.1
X21.3Y-378.2
X21.3Y-381.1
X21.3Y-384.0
X21.3Y-386.9
X21.3Y-389.8
X21.3Y-392.7
X22.2Y-318.45
X22.2Y-396.4
X22.2Y-398.5
X22.2Y-401.4
X22.2Y-404.3
X22.2Y-407.2
X22.2Y-410.1
X22.2Y-413.0
X22.2Y-415.9
X22.7Y-337.45
X22.7Y-373.2
X22.7Y-375.3
X22.7Y-378.2
X22.7Y-381.1
X22.7Y-384.0
X22.7Y-386.9
X22.7Y-389.8
X22.7Y-392.7
X25.1Y-318.0
X25.1Y-395.6
X25.1Y-398.5
X25.1Y-401.4
X25.1Y-404.3
X25.1Y-407.2
X25.1Y-410.1
X25.1Y-413.0
X25.1Y-415.9
X25.6Y-337.0
X25.6Y-372.4
X25.6Y-375.3
X25.6Y-378.2
X25.6Y-381.1
X25.6Y-384.0
X25.6Y-386.9
X25.6Y-389.8
X25.6Y-392.7
M30
