<svg xmlns="http://www.w3.org/2000/svg" width="1600" height="900" viewBox="0 0 1600 900" role="img" aria-labelledby="title desc">
  <title id="title">ButterflyNet KiCad Agent Pipeline Architecture</title>
  <desc id="desc">A clean architecture diagram showing the ButterflyNet pipeline from user goal through research, design review, KiCad generation, DRC validation, fabrication export, and replay UI.</desc>
  <defs>
    <linearGradient id="background" x1="0" y1="0" x2="1" y2="1">
      <stop offset="0" stop-color="#0e1324"/>
      <stop offset="0.58" stop-color="#111827"/>
      <stop offset="1" stop-color="#0b1220"/>
    </linearGradient>
    <linearGradient id="card" x1="0" y1="0" x2="0" y2="1">
      <stop offset="0" stop-color="#1f2b46"/>
      <stop offset="1" stop-color="#172238"/>
    </linearGradient>
    <linearGradient id="activeCard" x1="0" y1="0" x2="1" y2="1">
      <stop offset="0" stop-color="#12334a"/>
      <stop offset="1" stop-color="#18243a"/>
    </linearGradient>
    <linearGradient id="outputCard" x1="0" y1="0" x2="1" y2="1">
      <stop offset="0" stop-color="#123121"/>
      <stop offset="1" stop-color="#16253a"/>
    </linearGradient>
    <filter id="softShadow" x="-20%" y="-20%" width="140%" height="150%">
      <feDropShadow dx="0" dy="16" stdDeviation="18" flood-color="#020617" flood-opacity="0.32"/>
    </filter>
    <marker id="arrow" markerWidth="12" markerHeight="12" refX="9" refY="6" orient="auto">
      <path d="M 0 0 L 12 6 L 0 12 z" fill="#4fc3f7"/>
    </marker>
    <marker id="greenArrow" markerWidth="12" markerHeight="12" refX="9" refY="6" orient="auto">
      <path d="M 0 0 L 12 6 L 0 12 z" fill="#66bb6a"/>
    </marker>
    <style>
      .bg { fill: url(#background); }
      .halo-blue { fill: #1b5f85; opacity: 0.12; }
      .halo-green { fill: #1f6f43; opacity: 0.10; }
      .title { fill: #f8fafc; font-family: Arial; font-size: 54px; font-weight: 800; }
      .subtitle { fill: #aeb9cb; font-family: Arial; font-size: 23px; font-weight: 500; }
      .section-label { fill: #4fc3f7; font-family: Arial; font-size: 16px; font-weight: 800; letter-spacing: 3px; }
      .card { fill: #172238; stroke: #405b8b; stroke-width: 2; }
      .card-active { fill: #12334a; stroke: #4fc3f7; stroke-width: 3; }
      .card-output { fill: #122b20; stroke: #66bb6a; stroke-width: 3; }
      .card-title { fill: #f8fafc; font-family: Arial; font-size: 28px; font-weight: 800; }
      .card-text { fill: #cbd6e6; font-family: Arial; font-size: 18px; font-weight: 600; }
      .card-muted { fill: #93a4bd; font-family: Arial; font-size: 16px; font-weight: 500; }
      .code { fill: #9bdcff; font-family: monospace; font-size: 16px; font-weight: 800; }
      .step { fill: #4fc3f7; font-family: Arial; font-size: 15px; font-weight: 800; letter-spacing: 2px; }
      .flow { stroke: #4fc3f7; stroke-width: 4; fill: none; marker-end: url(#arrow); stroke-linecap: round; }
      .green-flow { stroke: #66bb6a; stroke-width: 4; fill: none; marker-end: url(#greenArrow); stroke-linecap: round; }
      .loop { stroke: #66bb6a; stroke-width: 4; fill: none; marker-end: url(#greenArrow); stroke-linecap: round; stroke-dasharray: 10 10; }
      .artifact-shelf { fill: #101827; stroke: #33496f; stroke-width: 2; }
      .artifact { fill: #111827; stroke: #405b8b; stroke-width: 2; }
      .artifact-green { fill: #12231b; stroke: #66bb6a; stroke-width: 2; }
      .artifact-title { fill: #f1f5f9; font-family: Arial; font-size: 18px; font-weight: 800; }
      .artifact-text { fill: #9fb0c7; font-family: Arial; font-size: 14px; font-weight: 600; }
      .note { fill: #d5e1f2; font-family: Arial; font-size: 19px; font-weight: 700; }
      .divider { stroke: #263852; stroke-width: 2; }
    </style>
  </defs>

  <rect class="bg" width="1600" height="900"/>
  <circle class="halo-blue" cx="1280" cy="50" r="260"/>
  <circle class="halo-green" cx="210" cy="820" r="260"/>

  <text class="title" x="72" y="86">ButterflyNet Architecture</text>
  <text class="subtitle" x="74" y="126">A multi-agent workflow that operates KiCad from sourced intent to validated manufacturing artifacts.</text>

  <text class="section-label" x="76" y="188">PIPELINE</text>

  <rect class="card-active" x="74" y="220" width="210" height="150"/>
  <text class="step" x="102" y="258">INPUT</text>
  <text class="card-title" x="102" y="296">User goal</text>
  <text class="card-text" x="102" y="329">Natural language</text>
  <text class="card-muted" x="102" y="354">design request</text>

  <rect class="card" x="352" y="220" width="230" height="150"/>
  <text class="step" x="380" y="258">PHASE 1</text>
  <text class="card-title" x="380" y="296">Research</text>
  <text class="card-text" x="380" y="329">Sources and facts</text>
  <text class="card-muted" x="380" y="354">unknowns stay visible</text>

  <rect class="card" x="650" y="220" width="250" height="150"/>
  <text class="step" x="678" y="258">PHASE 2</text>
  <text class="card-title" x="678" y="296">Design review</text>
  <text class="card-text" x="678" y="329">Spec normalization</text>
  <text class="card-muted" x="678" y="354">risky claims rejected</text>

  <rect class="card-active" x="968" y="220" width="250" height="150"/>
  <text class="step" x="996" y="258">PHASE 3</text>
  <text class="card-title" x="996" y="296">KiCad build</text>
  <text class="card-text" x="996" y="329">Generator creates</text>
  <text class="code" x="996" y="354">.kicad_sch + .kicad_pcb</text>

  <rect class="card-active" x="1286" y="220" width="240" height="150"/>
  <text class="step" x="1314" y="258">PHASE 4</text>
  <text class="card-title" x="1314" y="296">Validate</text>
  <text class="card-text" x="1314" y="329">Run DRC, patch,</text>
  <text class="card-muted" x="1314" y="354">keep/revert until clean</text>

  <line x1="292" y1="295" x2="332" y2="295" stroke="#4fc3f7" stroke-width="4" stroke-linecap="round"/>
  <polygon points="332,284 352,295 332,306" fill="#4fc3f7"/>
  <line x1="590" y1="295" x2="630" y2="295" stroke="#4fc3f7" stroke-width="4" stroke-linecap="round"/>
  <polygon points="630,284 650,295 630,306" fill="#4fc3f7"/>
  <line x1="908" y1="295" x2="948" y2="295" stroke="#4fc3f7" stroke-width="4" stroke-linecap="round"/>
  <polygon points="948,284 968,295 948,306" fill="#4fc3f7"/>
  <line x1="1226" y1="295" x2="1266" y2="295" stroke="#4fc3f7" stroke-width="4" stroke-linecap="round"/>
  <polygon points="1266,284 1286,295 1266,306" fill="#4fc3f7"/>

  <line class="divider" x1="74" y1="425" x2="1526" y2="425"/>

  <text class="section-label" x="76" y="480">ORCHESTRATION AND TOOLING</text>

  <rect class="card" x="74" y="512" width="310" height="142"/>
  <text class="card-title" x="104" y="553">Agent roles</text>
  <text class="card-text" x="104" y="586">researcher, reviewer,</text>
  <text class="card-text" x="104" y="612">schematic architect,</text>
  <text class="card-muted" x="104" y="638">router, validator, exporter</text>

  <rect class="card" x="434" y="512" width="332" height="142"/>
  <text class="card-title" x="464" y="553">KiCad tool adapter</text>
  <text class="code" x="464" y="586">generate_candle.py</text>
  <text class="code" x="464" y="612">kicad-cli</text>
  <text class="card-muted" x="464" y="638">canonicalize, render, recover</text>

  <rect class="card" x="816" y="512" width="332" height="142"/>
  <text class="card-title" x="846" y="553">Validation memory</text>
  <text class="card-text" x="846" y="586">DRC counts, diffs,</text>
  <text class="card-text" x="846" y="612">hotspots, reverted fixes</text>
  <text class="card-muted" x="846" y="638">stateful engineering loop</text>

  <rect class="card-output" x="1198" y="512" width="328" height="142"/>
  <text class="step" x="1228" y="549">PHASE 5</text>
  <text class="card-title" x="1228" y="586">Export package</text>
  <text class="card-text" x="1228" y="619">Gerbers, drills, BOM,</text>
  <text class="card-muted" x="1228" y="644">PnP, GLB, STEP, PDFs</text>

  <line x1="392" y1="583" x2="414" y2="583" stroke="#4fc3f7" stroke-width="4" stroke-linecap="round"/>
  <polygon points="414,572 434,583 414,594" fill="#4fc3f7"/>
  <line x1="774" y1="583" x2="796" y2="583" stroke="#4fc3f7" stroke-width="4" stroke-linecap="round"/>
  <polygon points="796,572 816,583 796,594" fill="#4fc3f7"/>
  <line x1="1156" y1="583" x2="1178" y2="583" stroke="#66bb6a" stroke-width="4" stroke-linecap="round"/>
  <polygon points="1178,572 1198,583 1178,594" fill="#66bb6a"/>

  <rect class="artifact-shelf" x="74" y="704" width="1452" height="124"/>
  <text class="section-label" x="106" y="744">AUDITABLE ARTIFACTS</text>

  <rect class="artifact" x="106" y="766" width="190" height="40"/>
  <text class="artifact-title" x="134" y="792">Replay logs</text>
  <rect class="artifact" x="320" y="766" width="210" height="40"/>
  <text class="artifact-title" x="348" y="792">Source ledger</text>
  <rect class="artifact" x="554" y="766" width="206" height="40"/>
  <text class="artifact-title" x="582" y="792">Canonical spec</text>
  <rect class="artifact" x="784" y="766" width="198" height="40"/>
  <text class="artifact-title" x="812" y="792">KiCad board</text>
  <rect class="artifact" x="1006" y="766" width="190" height="40"/>
  <text class="artifact-title" x="1034" y="792">DRC reports</text>
  <rect class="artifact-green" x="1220" y="766" width="258" height="40"/>
  <text class="artifact-title" x="1248" y="792">Manufacturing bundle</text>

  <text class="note" x="92" y="866">Core idea: the agents do not only write text. They operate real KiCad files, read tool failures, and keep iterating across artifact boundaries.</text>
</svg>
