M48
; DRILL file KiCad 10.0.0 date 2026-04-29T20:53:33
; FORMAT={-:-/ absolute / metric / decimal}
; #@! TF.CreationDate,2026-04-29T20:53:33+08:00
; #@! TF.GenerationSoftware,Kicad,Pcbnew,10.0.0
; #@! TF.FileFunction,Plated,3,4,Blind
FMAT,2
METRIC
; #@! TA.AperFunction,Plated,Buried,ViaDrill
T1C0.075
%
G90
G05
T1
X4.8Y-338.8
X4.8Y-394.4
X4.8Y-397.3
X4.8Y-400.2
X4.8Y-403.1
X4.8Y-406.0
X4.8Y-408.9
X4.8Y-411.8
X4.8Y-414.7
X5.3Y-320.25
X5.3Y-371.2
X5.3Y-374.1
X5.3Y-377.0
X5.3Y-379.9
X5.3Y-382.8
X5.3Y-385.7
X5.3Y-388.6
X5.3Y-391.5
X7.8Y-339.25
X7.8Y-396.4
X7.8Y-397.3
X7.8Y-400.2
X7.8Y-403.1
X7.8Y-406.0
X7.8Y-408.9
X7.8Y-411.8
X7.8Y-414.7
X8.3Y-320.7
X8.3Y-373.2
X8.3Y-374.1
X8.3Y-377.0
X8.3Y-379.9
X8.3Y-382.8
X8.3Y-385.7
X8.3Y-388.6
X8.3Y-391.5
X9.25Y-339.7
X9.25Y-394.4
X9.25Y-399.3
X9.25Y-400.2
X9.25Y-403.1
X9.25Y-406.0
X9.25Y-408.9
X9.25Y-411.8
X9.25Y-414.7
X9.75Y-321.15
X9.75Y-371.2
X9.75Y-376.1
X9.75Y-377.0
X9.75Y-379.9
X9.75Y-382.8
X9.75Y-385.7
X9.75Y-388.6
X9.75Y-391.5
X11.062Y-317.0
X11.062Y-328.8
X12.15Y-340.15
X12.15Y-394.4
X12.15Y-397.3
X12.15Y-402.2
X12.15Y-403.1
X12.15Y-406.0
X12.15Y-408.9
X12.15Y-411.8
X12.15Y-414.7
X12.6Y-321.6
X12.6Y-371.2
X12.6Y-374.1
X12.6Y-379.0
X12.6Y-379.9
X12.6Y-382.8
X12.6Y-385.7
X12.6Y-388.6
X12.6Y-391.5
X13.062Y-318.0
X13.062Y-322.0
X13.8Y-318.45
X13.8Y-322.0
X14.2Y-318.9
X14.2Y-322.0
X14.6Y-319.35
X14.6Y-322.0
X15.0Y-319.8
X15.0Y-322.0
X15.0Y-340.6
X15.0Y-394.4
X15.0Y-397.3
X15.0Y-400.2
X15.0Y-405.1
X15.0Y-406.0
X15.0Y-408.9
X15.0Y-411.8
X15.0Y-414.7
X15.5Y-319.8
X15.5Y-371.2
X15.5Y-374.1
X15.5Y-377.0
X15.5Y-381.9
X15.5Y-382.8
X15.5Y-385.7
X15.5Y-388.6
X15.5Y-391.5
X17.8Y-328.4
X17.9Y-338.35
X17.9Y-394.4
X17.9Y-397.3
X17.9Y-400.2
X17.9Y-403.1
X17.9Y-408.0
X17.9Y-408.9
X17.9Y-411.8
X17.9Y-414.7
X18.4Y-319.35
X18.4Y-371.2
X18.4Y-374.1
X18.4Y-377.0
X18.4Y-379.9
X18.4Y-384.8
X18.4Y-385.7
X18.4Y-388.6
X18.4Y-391.5
X19.0Y-328.8
X19.938Y-317.0
X19.938Y-328.6
X20.8Y-337.9
X20.8Y-394.4
X20.8Y-397.3
X20.8Y-400.2
X20.8Y-403.1
X20.8Y-406.0
X20.8Y-410.9
X20.8Y-411.8
X20.8Y-414.7
X21.3Y-318.9
X21.3Y-371.2
X21.3Y-374.1
X21.3Y-377.0
X21.3Y-379.9
X21.3Y-382.8
X21.3Y-387.7
X21.3Y-388.6
X21.3Y-391.5
X23.65Y-337.45
X23.65Y-394.4
X23.65Y-397.3
X23.65Y-400.2
X23.65Y-403.1
X23.65Y-406.0
X23.65Y-408.9
X23.65Y-413.8
X23.65Y-414.7
X24.15Y-318.45
X24.15Y-371.2
X24.15Y-374.1
X24.15Y-377.0
X24.15Y-379.9
X24.15Y-382.8
X24.15Y-385.7
X24.15Y-390.6
X24.15Y-391.5
X25.1Y-337.0
X25.1Y-394.4
X25.1Y-397.3
X25.1Y-400.2
X25.1Y-403.1
X25.1Y-406.0
X25.1Y-408.9
X25.1Y-411.8
X25.1Y-416.7
X25.6Y-318.0
X25.6Y-371.2
X25.6Y-374.1
X25.6Y-377.0
X25.6Y-379.9
X25.6Y-382.8
X25.6Y-385.7
X25.6Y-388.6
X25.6Y-393.5
M30
